<svg width="60" height="60" viewBox="0 0 60 60" fill="none" xmlns="http://www.w3.org/2000/svg">
<path d="M44.026 40.8887C44.3332 41.195 44.8707 41.195 45.1778 40.8887C47.4046 38.7063 48.4412 35.9495 48.4412 32.159C48.4412 31.6995 48.0573 31.3167 47.6349 31.3167C47.1742 31.3167 46.8287 31.6995 46.7903 32.1207C46.7903 35.4901 45.9457 37.7874 44.026 39.6635C43.7189 40.0464 43.7189 40.5441 44.026 40.8887Z" fill="#364751"/>
<path d="M28.4386 26.3774C28.3618 26.5689 28.2466 26.7986 28.1698 26.9901C28.1698 26.7986 28.2466 26.5689 28.4386 26.3774C28.4386 26.3774 28.4002 26.4157 28.4386 26.3774Z" fill="#FDFFFF"/>
<path d="M33.4296 34.8774C33.4296 35.3369 33.0457 35.6814 32.6234 35.6814C32.1627 35.6814 31.8171 35.2986 31.8171 34.8391C31.8171 34.1882 31.7787 33.5373 31.6252 32.9247C31.51 32.4652 31.3948 31.9675 31.2028 31.508C30.8189 30.4742 30.1662 29.517 29.3216 28.5215C29.0528 28.1769 28.7457 27.8706 28.4002 27.526C28.2466 27.3729 28.1698 27.1432 28.1698 26.9517C28.2466 26.7603 28.3618 26.5305 28.4386 26.3391C28.7457 26.0328 29.2832 26.0328 29.5903 26.3391C29.7439 26.4923 29.8975 26.6454 30.0511 26.7986C30.7421 27.5643 31.3564 28.2918 31.8171 29.0959C32.2778 29.8616 32.6618 30.6274 32.9305 31.3932C33.2761 32.5418 33.468 33.6905 33.4296 34.8774Z" fill="#364751"/>
<path d="M50.5528 22.5486C48.9403 17.0351 46.2528 13.704 43.0278 13.0914C39.8028 12.517 36.1171 14.6612 32.6233 19.2175C31.8555 20.213 31.126 21.3233 30.4733 22.4337C28.5921 20.8256 26.4421 19.2558 24.2537 18.1071C19.1858 15.3887 14.9242 14.9292 12.2367 16.767C9.54922 18.6049 8.47422 22.7783 9.24208 28.445C9.85637 33.0013 11.6224 38.0553 13.6573 41.0035C15.7689 44.0666 19.0323 46.2107 22.5644 46.8616C22.718 46.8999 27.4403 47.5891 31.7403 44.9855C31.8939 44.8706 32.0474 44.7558 32.1626 44.6792C33.3912 45.5598 34.9653 46.3639 36.8081 46.8233C37.5376 46.9382 38.2287 47.0148 38.9581 47.0148C41.4153 47.0148 43.834 46.249 45.9456 44.7941C47.3278 43.8369 48.518 42.6116 49.4778 41.2333C49.4778 41.2333 51.0903 39.0891 51.6662 35.8346C52.3189 32.2738 51.8581 26.9517 50.5528 22.5486ZM33.9287 20.2513C35.234 18.5283 36.5778 17.1882 37.8832 16.231C36.9233 17.4945 36.0403 18.9495 35.3108 20.3279C34.543 21.8211 33.7751 23.4675 33.1608 25.1139C32.7001 24.6161 32.201 24.0801 31.6635 23.5824C32.393 22.4337 33.1224 21.2851 33.9287 20.2513ZM32.009 42.6116C31.6251 42.9562 31.2412 43.3008 30.8189 43.6071C30.5501 43.7986 30.243 43.9517 29.8974 44.1432C23.793 41.463 19.3394 31.6612 19.301 31.5846C19.109 31.1634 18.6099 30.972 18.1876 31.1634C17.7653 31.3549 17.5733 31.8526 17.7653 32.2738C17.9573 32.6567 21.8733 41.3481 27.7858 44.9472C26.6724 45.2535 25.5974 45.4833 24.9064 45.4833C24.2537 45.4833 23.5626 45.4067 22.8715 45.2918C19.7617 44.7175 16.8823 42.8414 15.0394 40.1229C13.1198 37.3661 11.4689 32.5801 10.893 28.2535C10.5474 26.0711 10.5474 24.195 10.8162 22.5869C11.0082 24.1567 11.4689 25.8031 11.9296 27.2963C13.1965 31.3166 15.2698 35.7197 17.2278 38.5531C17.3814 38.7828 17.6501 38.8977 17.9189 38.8977C18.0724 38.8977 18.226 38.8594 18.3796 38.7445C18.7635 38.4765 18.8403 37.9788 18.5715 37.5959C16.7287 34.9923 14.6939 30.6274 13.5037 26.7986C12.1599 22.5103 11.968 19.2941 13.0046 18.2603C13.4269 18.4517 14.8474 19.4089 18.4564 23.6206C20.9903 26.5306 23.8314 30.1297 25.6358 32.7715C25.7894 33.0013 26.0582 33.1161 26.3269 33.1161C26.4421 33.1161 26.5189 33.0779 26.634 33.0396C26.6724 33.0013 26.7492 33.0013 26.7876 32.963C27.1715 32.695 27.2483 32.1972 26.9796 31.8143C26.9028 31.7378 26.8644 31.6229 26.7876 31.508C24.7912 28.713 21.7582 24.8842 19.1858 21.936C17.6885 20.213 16.3832 18.9112 15.3849 17.9923C15.1546 17.8008 14.9626 17.6094 14.7323 17.4562C15.193 17.3414 15.6537 17.3031 16.1528 17.3031C18.1492 17.3031 20.6832 18.0688 23.4474 19.5621C25.6358 20.749 27.7858 22.2806 29.6287 23.927C30.051 24.3098 30.4733 24.6927 30.8573 25.1139C31.4715 25.7265 32.009 26.3391 32.5081 26.9517C32.7001 27.2197 32.8921 27.4495 33.084 27.7175C33.3144 28.0238 33.5064 28.3684 33.6983 28.6747C35.1189 31.2017 35.6564 34.1116 35.1573 36.8684C34.6965 39.0891 33.6215 41.1184 32.009 42.6116ZM50.0537 35.5283C49.4778 38.7828 47.6349 41.6544 45.0242 43.454C42.6823 45.0621 39.8796 45.713 37.1537 45.2152C36.693 45.1004 35.3876 45.0238 33.3528 43.6454C35.1189 41.9224 36.309 39.6634 36.7698 37.1364C37.0769 35.49 37.0385 33.767 36.7314 32.1206C36.7314 32.1206 36.3474 29.4788 34.4662 26.7603C34.4278 26.722 34.4278 26.6837 34.3894 26.6837C35.0805 24.7693 35.9251 22.8549 36.8081 21.1702C38.8814 17.1116 41.0314 14.6995 42.4903 14.6995C42.6439 15.1206 42.951 16.8053 42.5671 22.3188C42.2983 26.186 41.7224 30.704 41.1465 33.8819C41.1081 34.1499 41.1849 34.4179 41.3769 34.6094C41.4921 34.7242 41.6456 34.8008 41.7992 34.8391C42.2599 34.9157 42.6823 34.6094 42.759 34.1882C43.3733 30.7423 43.9876 25.7265 44.2564 21.6679C44.4099 19.4089 44.4483 17.5711 44.3331 16.1927C44.3331 15.8864 44.2948 15.6184 44.2564 15.3504C44.6403 15.5801 45.0242 15.8864 45.3698 16.2693C46.7903 17.686 48.0189 19.9833 48.9019 23.008C50.2456 27.1815 50.668 32.2355 50.0537 35.5283Z" fill="#364751"/>
</svg>
