<svg id="Ebene_1" data-name="Ebene 1" xmlns="http://www.w3.org/2000/svg" xmlns:xlink="http://www.w3.org/1999/xlink" viewBox="0 0 50.56 39.73"><defs><style>.cls-1,.cls-3{fill:none;}.cls-2{clip-path:url(#clip-path);}.cls-3{stroke:#364751;stroke-miterlimit:10;stroke-width:1.5px;}</style><clipPath id="clip-path" transform="translate(-4.54 -10.92)"><rect class="cls-1" x="0.5" y="0.5" width="60" height="60"/></clipPath></defs><g class="cls-2"><path class="cls-3" d="M54.35,20.12c.06-4.57-5.68-8.35-12.83-8.45s-13,3.53-13,8.1,5.68,8.36,12.83,8.45S54.29,24.69,54.35,20.12Z" transform="translate(-4.54 -10.92)"/><path class="cls-3" d="M28.62,20.89a10.4,10.4,0,0,1,4-2c5.09-1.34,8.24,2.42,13.39,2.49a13.11,13.11,0,0,0,8.3-3" transform="translate(-4.54 -10.92)"/><path class="cls-3" d="M44.57,48.4c6.59-2.78,10.49-8.44,8.72-12.65s-8.55-5.38-15.14-2.61-10.5,8.44-8.73,12.65S38,51.17,44.57,48.4Z" transform="translate(-4.54 -10.92)"/><path class="cls-3" d="M30.1,47a10.94,10.94,0,0,1,2.78-3.45c4.08-3.26,8.35-1.24,13-3.32a14,14,0,0,0,6.37-6.05" transform="translate(-4.54 -10.92)"/><path class="cls-3" d="M27.33,37.84c2.68-3.7.16-10.1-5.63-14.3S9,18.94,6.36,22.64,6.19,32.74,12,36.94,24.65,41.5,27.33,37.84Z" transform="translate(-4.54 -10.92)"/><path class="cls-3" d="M5.5,23.35A10.81,10.81,0,0,1,9.9,24c4.92,1.94,5.5,6.59,9.78,9.61a15.11,15.11,0,0,0,8.5,2.51" transform="translate(-4.54 -10.92)"/></g></svg>