<svg width="60" height="60" viewBox="0 0 60 60" fill="none" xmlns="http://www.w3.org/2000/svg">
<g clip-path="url(#clip0)">
<path d="M53.8511 19.622C53.9127 15.0527 48.1659 11.2705 41.0154 11.1742C33.8649 11.078 28.0185 14.7041 27.9569 19.2735C27.8954 23.8428 33.6422 27.625 40.7927 27.7213C47.9432 27.8175 53.7896 24.1914 53.8511 19.622Z" stroke="#FDFFFF" stroke-width="1.5" stroke-miterlimit="10"/>
<path d="M28.1237 20.3883C29.1922 19.5155 30.5121 18.777 32.0834 18.3742C37.1746 17.0314 40.3173 20.7912 45.4713 20.8583C47.6083 20.9254 50.4367 20.3212 53.768 17.9042" stroke="#FDFFFF" stroke-width="1.5" stroke-miterlimit="10"/>
<path d="M44.0654 47.8959C50.6567 45.122 54.563 39.4588 52.7904 35.2468C51.0177 31.0348 44.2375 29.8691 37.6462 32.643C31.0549 35.417 27.1487 41.0802 28.9213 45.2922C30.6939 49.5041 37.4742 50.6699 44.0654 47.8959Z" stroke="#FDFFFF" stroke-width="1.5" stroke-miterlimit="10"/>
<path d="M29.6033 46.5075C30.2833 45.2709 31.1487 44.0342 32.385 43.0579C36.4649 39.8035 40.7303 41.8212 45.4283 39.7385C47.4065 38.8923 49.6937 37.2001 51.7955 33.6854" stroke="#FDFFFF" stroke-width="1.5" stroke-miterlimit="10"/>
<path d="M26.8266 37.3379C29.5082 33.6373 26.9874 27.2355 21.1964 23.0392C15.4053 18.8429 8.53694 18.441 5.85538 22.1417C3.17383 25.8423 5.69457 32.244 11.4856 36.4403C17.2767 40.6367 24.145 41.0385 26.8266 37.3379Z" stroke="#FDFFFF" stroke-width="1.5" stroke-miterlimit="10"/>
<path d="M4.94525 22.8474C6.3511 22.7846 7.82086 22.973 9.35452 23.5382C14.275 25.4849 14.8501 30.1319 19.1316 33.1461C20.9208 34.4021 23.5408 35.5324 27.6306 35.658" stroke="#FDFFFF" stroke-width="1.5" stroke-miterlimit="10"/>
</g>
<defs>
<clipPath id="clip0">
<rect width="60" height="60" fill="white"/>
</clipPath>
</defs>
</svg>
