<svg id="Ebene_1" data-name="Ebene 1" xmlns="http://www.w3.org/2000/svg" viewBox="0 0 49.93 31.29"><defs><style>.cls-1{fill:none;stroke:#364751;stroke-miterlimit:10;stroke-width:1.5px;}</style></defs><path class="cls-1" d="M46.07,43.45c6.59-2.77,10.49-8.43,8.72-12.64s-8.55-5.38-15.14-2.61-10.5,8.44-8.73,12.65S39.47,46.23,46.07,43.45Z" transform="translate(-6.03 -14.42)"/><path class="cls-1" d="M31.6,42.07a11.05,11.05,0,0,1,2.78-3.45c4.08-3.26,8.35-1.24,13-3.32a14,14,0,0,0,6.37-6.06" transform="translate(-6.03 -14.42)"/><path class="cls-1" d="M28.83,32.9c2.68-3.7.16-10.11-5.63-14.3S10.54,14,7.86,17.7,7.69,27.8,13.49,32,26.15,36.6,28.83,32.9Z" transform="translate(-6.03 -14.42)"/><path class="cls-1" d="M7,18.41a10.9,10.9,0,0,1,4.4.69c4.92,1.94,5.5,6.59,9.78,9.61a15.13,15.13,0,0,0,8.5,2.51" transform="translate(-6.03 -14.42)"/></svg>