<svg width="60" height="60" viewBox="0 0 60 60" fill="none" xmlns="http://www.w3.org/2000/svg">
<path d="M46.0654 43.4548C52.6567 40.6809 56.563 35.0177 54.7904 30.8057C53.0177 26.5937 46.2375 25.428 39.6462 28.2019C33.0549 30.9759 29.1487 36.6391 30.9213 40.8511C32.6939 45.063 39.4742 46.2288 46.0654 43.4548Z" stroke="#FDFFFF" stroke-width="1.5" stroke-miterlimit="10"/>
<path d="M31.6033 42.0664C32.2833 40.8298 33.1487 39.5931 34.385 38.6168C38.4649 35.3624 42.7303 37.3801 47.4283 35.2974C49.4065 34.4512 51.6937 32.759 53.7955 29.2443" stroke="#FDFFFF" stroke-width="1.5" stroke-miterlimit="10"/>
<path d="M28.8266 32.8968C31.5082 29.1962 28.9874 22.7944 23.1964 18.5981C17.4053 14.4018 10.5369 13.9999 7.85538 17.7006C5.17383 21.4012 7.69457 27.8029 13.4856 31.9992C19.2767 36.1956 26.145 36.5974 28.8266 32.8968Z" stroke="#FDFFFF" stroke-width="1.5" stroke-miterlimit="10"/>
<path d="M6.94525 18.4063C8.3511 18.3435 9.82086 18.5319 11.3545 19.0971C16.275 21.0438 16.8501 25.6908 21.1316 28.705C22.9208 29.961 25.5408 31.0913 29.6306 31.2169" stroke="#FDFFFF" stroke-width="1.5" stroke-miterlimit="10"/>
</svg>
