<svg width="60" height="60" viewBox="0 0 60 60" fill="none" xmlns="http://www.w3.org/2000/svg">
<path d="M25.8733 33.4446L25.8726 33.4442L22.6068 31.5231V24.9292L28.3219 28.2578V32.0353C28.3219 32.2531 28.3949 32.4423 28.53 32.5773C28.665 32.7123 28.8542 32.7854 29.0719 32.7854C29.2896 32.7854 29.4789 32.7123 29.6139 32.5773C29.7489 32.4423 29.8219 32.2531 29.8219 32.0353V29.0899L32.6614 30.7566L32.6612 30.7568L32.6673 30.7598C32.7388 30.7955 32.7971 30.8157 32.858 30.8258C32.915 30.8353 32.9711 30.8353 33.0322 30.8353H33.037C33.1548 30.8353 33.2848 30.7967 33.4013 30.734C33.5182 30.671 33.6294 30.5796 33.7052 30.4658L33.7053 30.4659L33.7077 30.4618C33.9356 30.0821 33.7781 29.6334 33.4134 29.4146L33.4112 29.4133L30.5725 27.8088L33.0875 26.3366L33.0884 26.336C33.467 26.1089 33.5326 25.6601 33.3898 25.3031L33.3869 25.2957L33.3827 25.2888C33.1556 24.9103 32.7068 24.8446 32.3498 24.9874L32.3428 24.9902L32.3363 24.994L29.0717 26.9144L23.3555 23.5852L29.0717 20.256L32.3363 22.1764L32.3362 22.1766L32.3423 22.1796C32.4138 22.2154 32.4721 22.2356 32.533 22.2457C32.59 22.2552 32.6461 22.2552 32.7073 22.2552H32.712C32.8298 22.2552 32.9598 22.2166 33.0763 22.1539C33.1932 22.0909 33.3043 21.9994 33.3802 21.8857L33.3803 21.8857L33.3827 21.8816C33.6106 21.5019 33.4531 21.0532 33.0884 20.8344L33.0875 20.8339L30.5697 19.36L33.4126 17.6914L33.4134 17.6909C33.792 17.4638 33.8576 17.0149 33.7148 16.658L33.7119 16.6505L33.7077 16.6437C33.4806 16.2651 33.0318 16.1995 32.6748 16.3423L32.6679 16.345L32.6614 16.3489L29.8219 18.0155V15.0701C29.8219 14.8524 29.7489 14.6631 29.6139 14.5281C29.4789 14.3931 29.2896 14.3201 29.0719 14.3201C28.8542 14.3201 28.665 14.3931 28.53 14.5281C28.3949 14.6631 28.3219 14.8524 28.3219 15.0701V18.8477L22.6068 22.1762V15.7123L25.8726 13.7913L25.8733 13.7908C26.2518 13.5637 26.3175 13.1149 26.1747 12.7579L26.1717 12.7505L26.1676 12.7436C25.9405 12.3651 25.4917 12.2994 25.1347 12.4422L25.1269 12.4453L25.1198 12.4497L22.6068 13.982V10.65C22.6068 10.4323 22.5338 10.2431 22.3988 10.108C22.2637 9.97301 22.0745 9.9 21.8568 9.9C21.6391 9.9 21.4499 9.97301 21.3148 10.108C21.1798 10.2431 21.1068 10.4323 21.1068 10.65V13.9857L18.5932 12.5143C18.593 12.5142 18.5929 12.5141 18.5927 12.514C18.2131 12.2866 17.7647 12.4441 17.546 12.8086C17.3182 13.1883 17.4756 13.637 17.8403 13.8558L17.841 13.8563L21.1068 15.7773V22.4362L15.3917 19.1077V15.3301C15.3917 15.1124 15.3187 14.9231 15.1837 14.7881C15.0486 14.6531 14.8594 14.5801 14.6417 14.5801C14.424 14.5801 14.2348 14.6531 14.0997 14.7881C13.9647 14.9231 13.8917 15.1124 13.8917 15.3301V18.2755L11.0531 16.6094C11.0529 16.6093 11.0528 16.6092 11.0526 16.6091C10.673 16.3817 10.2246 16.5391 10.0059 16.9037C9.77805 17.2834 9.9355 17.7321 10.3002 17.9509L10.301 17.9514L13.1439 19.62L10.6261 21.0939L10.6252 21.0944C10.2467 21.3215 10.181 21.7704 10.3238 22.1273L10.3276 22.137L10.3334 22.1457C10.4788 22.3637 10.7028 22.5152 11.0016 22.5152H11.0064C11.0676 22.5152 11.1236 22.5152 11.1806 22.5057C11.2415 22.4956 11.2999 22.4754 11.3714 22.4396L11.3715 22.4398L11.3773 22.4364L14.6419 20.516L20.3581 23.8452L14.6419 27.1744L11.3781 25.2545C11.378 25.2544 11.3778 25.2543 11.3777 25.2542C10.9981 25.0268 10.5496 25.1843 10.3309 25.5488C10.1031 25.9285 10.2605 26.3772 10.6252 26.596L10.6261 26.5966L13.1439 28.0704L10.301 29.7391L10.3002 29.7396C9.92165 29.9667 9.85598 30.4155 9.99877 30.7725L10.0026 30.7821L10.0084 30.7908C10.1538 31.0088 10.3778 31.1603 10.6766 31.1603H10.6814C10.7426 31.1603 10.7986 31.1603 10.8556 31.1508C10.9165 31.1407 10.9749 31.1205 11.0464 31.0848L11.0465 31.085L11.0523 31.0816L13.8917 29.415V32.3604C13.8917 32.5781 13.9647 32.7673 14.0997 32.9023C14.2348 33.0374 14.424 33.1104 14.6417 33.1104C14.8594 33.1104 15.0486 33.0374 15.1837 32.9023C15.3187 32.7673 15.3917 32.5781 15.3917 32.3604V28.5828L21.1068 25.2542V31.9132L17.841 33.8342L17.8403 33.8346C17.4618 34.0617 17.3961 34.5106 17.5389 34.8675L17.5428 34.8772L17.5485 34.8859C17.6939 35.1039 17.918 35.2554 18.2168 35.2554H18.2215C18.2827 35.2554 18.3387 35.2554 18.3957 35.2459C18.4566 35.2358 18.515 35.2156 18.5865 35.1798L18.5866 35.18L18.5923 35.1767L21.1068 33.7048V37.0404C21.1068 37.2582 21.1798 37.4474 21.3148 37.5824C21.4499 37.7174 21.6391 37.7904 21.8568 37.7904C22.0745 37.7904 22.2637 37.7174 22.3988 37.5824C22.5338 37.4474 22.6068 37.2582 22.6068 37.0404V33.7048L25.1213 35.1767L25.1212 35.1769L25.1271 35.1798C25.1986 35.2156 25.257 35.2358 25.3179 35.2459C25.3749 35.2554 25.4309 35.2554 25.4921 35.2554H25.4969C25.6147 35.2554 25.7446 35.2168 25.8612 35.1541C25.9781 35.0911 26.0892 34.9996 26.1651 34.8859L26.1741 34.8724L26.1784 34.8567C26.2781 34.491 26.2982 34.1965 26.2443 33.9629C26.1894 33.7249 26.0589 33.556 25.8733 33.4446ZM33.362 29.5003L33.362 29.5003L33.362 29.5003Z" fill="#FDFFFF" stroke="#FDFFFF" stroke-width="0.2"/>
<path d="M38.6785 46.7699L38.677 46.769L34.9923 44.6456L38.677 42.5222L38.677 42.5222L38.6785 42.5213C39.057 42.2942 39.1227 41.8454 38.9799 41.4884L38.9769 41.481L38.9728 41.4741C38.7457 41.0956 38.2969 41.0299 37.9399 41.1727L37.9333 41.1754L37.9271 41.1789L34.242 43.3026V39.0555C34.242 38.8378 34.169 38.6486 34.0339 38.5136C33.8989 38.3785 33.7097 38.3055 33.492 38.3055C33.2742 38.3055 33.085 38.3785 32.95 38.5136C32.815 38.6486 32.7419 38.8378 32.7419 39.0555V43.3026L29.0576 41.1793C28.678 40.9522 28.2298 41.1097 28.0111 41.4741C27.7833 41.8538 27.9407 42.3025 28.3054 42.5213L28.3054 42.5213L28.3069 42.5222L31.9917 44.6456L28.3069 46.769L28.3069 46.769L28.3054 46.7699C27.9269 46.997 27.8612 47.4458 28.004 47.8028L28.0079 47.8125L28.0137 47.8211C28.159 48.0392 28.3831 48.1907 28.6819 48.1907H28.6866C28.7478 48.1907 28.8038 48.1907 28.8608 48.1812C28.9218 48.171 28.9801 48.1509 29.0516 48.1151L29.0517 48.1153L29.0568 48.1123L32.7419 45.9887V50.2357C32.7419 50.4534 32.815 50.6427 32.95 50.7777C33.085 50.9127 33.2742 50.9857 33.492 50.9857C33.7097 50.9857 33.8989 50.9127 34.0339 50.7777C34.169 50.6427 34.242 50.4534 34.242 50.2357V45.9887L37.9271 48.1123L37.927 48.1125L37.9323 48.1151C38.0038 48.1509 38.0622 48.171 38.1231 48.1812C38.1801 48.1907 38.2361 48.1907 38.2973 48.1907H38.302C38.4198 48.1907 38.5498 48.1521 38.6663 48.0893C38.7833 48.0264 38.8944 47.9349 38.9703 47.8211L38.9703 47.8212L38.9728 47.8171C39.2006 47.4374 39.0432 46.9887 38.6785 46.7699Z" fill="#FDFFFF" stroke="#FDFFFF" stroke-width="0.2"/>
<path d="M49.7287 32.1447L49.7271 32.1438L46.0424 30.0204L49.7271 27.897L49.7272 27.897L49.7287 27.8961C50.1072 27.669 50.1729 27.2202 50.0301 26.8632L50.0271 26.8557L50.023 26.8489C49.7959 26.4703 49.347 26.4047 48.9901 26.5475L48.9834 26.5501L48.9773 26.5537L45.2921 28.6773V24.4303C45.2921 24.2126 45.2191 24.0233 45.0841 23.8883C44.9491 23.7533 44.7599 23.6803 44.5421 23.6803C44.3244 23.6803 44.1352 23.7533 44.0002 23.8883C43.8651 24.0233 43.7921 24.2126 43.7921 24.4303V28.6773L40.1077 26.5541C39.7282 26.327 39.2799 26.4844 39.0613 26.8489C38.8335 27.2286 38.9909 27.6773 39.3556 27.8961L39.3556 27.8961L39.3571 27.897L43.0418 30.0204L39.3571 32.1438L39.3571 32.1438L39.3556 32.1447C38.9771 32.3718 38.9114 32.8206 39.0542 33.1776L39.0581 33.1872L39.0638 33.1959C39.2092 33.4139 39.4333 33.5654 39.7321 33.5654H39.7368C39.798 33.5654 39.854 33.5654 39.911 33.5559C39.9719 33.5458 40.0303 33.5256 40.1018 33.4899L40.1019 33.49L40.107 33.4871L43.7921 31.3634V35.6105C43.7921 35.8282 43.8651 36.0174 44.0002 36.1524C44.1352 36.2875 44.3244 36.3605 44.5421 36.3605C44.7599 36.3605 44.9491 36.2875 45.0841 36.1524C45.2191 36.0174 45.2921 35.8282 45.2921 35.6105V31.3634L48.9773 33.4871L48.9772 33.4872L48.9825 33.4899C49.054 33.5256 49.1123 33.5458 49.1733 33.5559C49.2303 33.5654 49.2863 33.5654 49.3475 33.5654H49.3522C49.47 33.5654 49.6 33.5268 49.7165 33.4641C49.8335 33.4011 49.9446 33.3097 50.0204 33.1959L50.0262 33.1872L50.0301 33.1776C50.1729 32.8206 50.1072 32.3718 49.7287 32.1447Z" fill="#FDFFFF" stroke="#FDFFFF" stroke-width="0.2"/>
</svg>
