<svg id="Ebene_1" data-name="Ebene 1" xmlns="http://www.w3.org/2000/svg" viewBox="0 0 40.4 41.29"><defs><style>.cls-1{fill:#364751;stroke:#364751;stroke-width:0.2px;}</style></defs><path class="cls-1" d="M25.87,33.44h0l-3.26-1.92V24.93l5.71,3.33V32a.75.75,0,0,0,.21.54.77.77,0,0,0,.54.21.75.75,0,0,0,.54-.21.75.75,0,0,0,.21-.54V29.09l2.84,1.67h0a.56.56,0,0,0,.19.07H33a.75.75,0,0,0,.36-.11.86.86,0,0,0,.31-.26h0a.76.76,0,0,0-.3-1.05h0l-2.84-1.6,2.52-1.47h0a.83.83,0,0,0,.3-1h0a.8.8,0,0,0-1-.3h0l-3.27,1.92-5.71-3.32,5.71-3.33,3.27,1.92h0a.56.56,0,0,0,.19.07h.18a.75.75,0,0,0,.37-.11.93.93,0,0,0,.3-.26h0a.76.76,0,0,0-.29-1.05h0l-2.52-1.47,2.84-1.67h0a.81.81,0,0,0,.3-1h0a.84.84,0,0,0-1-.3h0L29.82,18V15.07a.72.72,0,0,0-.75-.75.73.73,0,0,0-.54.21.72.72,0,0,0-.21.54v3.78l-5.71,3.33V15.71l3.26-1.92h0a.81.81,0,0,0,.3-1h0a.84.84,0,0,0-1-.3h0L22.61,14V10.65a.75.75,0,0,0-.21-.54.75.75,0,0,0-1.29.54V14l-2.52-1.48h0a.75.75,0,0,0-1,.3.76.76,0,0,0,.29,1h0l3.27,1.92v6.66l-5.72-3.33V15.33a.75.75,0,1,0-1.5,0v3l-2.84-1.67h0a.75.75,0,0,0-1,.29A.76.76,0,0,0,10.3,18h0l2.84,1.67-2.51,1.47h0a.83.83,0,0,0-.31,1h0a.81.81,0,0,0,.67.37h.18a.56.56,0,0,0,.19-.07h0l3.26-1.92,5.72,3.33-5.72,3.32-3.26-1.92h0a.76.76,0,0,0-1.05.3.76.76,0,0,0,.3,1.05h0l2.51,1.47L10.3,29.74h0a.82.82,0,0,0-.3,1h0a.77.77,0,0,0,.67.37h.18a.64.64,0,0,0,.19-.07h0l2.84-1.66v2.94a.75.75,0,1,0,1.5,0V28.58l5.72-3.33v6.66l-3.27,1.92h0a.83.83,0,0,0-.3,1h0a.8.8,0,0,0,.67.37h.18a.64.64,0,0,0,.19-.07h0l2.52-1.48V37a.75.75,0,1,0,1.5,0V33.7l2.51,1.48h0a.56.56,0,0,0,.19.07h.18a.75.75,0,0,0,.36-.11.86.86,0,0,0,.31-.26v0h0a1.8,1.8,0,0,0,.06-.9A.77.77,0,0,0,25.87,33.44Zm7.49-3.94Z" transform="translate(-9.8 -9.8)"/><path class="cls-1" d="M38.68,46.77h0L35,44.65l3.69-2.13h0a.82.82,0,0,0,.3-1h0a.82.82,0,0,0-1-.3h0L34.24,43.3V39.06a.75.75,0,1,0-1.5,0V43.3l-3.68-2.12a.77.77,0,1,0-.75,1.34h0L32,44.65l-3.68,2.12h0a.82.82,0,0,0-.31,1h0a.79.79,0,0,0,.67.37h.18l.19-.06h0L32.74,46v4.25a.75.75,0,0,0,.21.54.8.8,0,0,0,1.08,0,.75.75,0,0,0,.21-.54V46l3.69,2.12h0l.19.06h.18a.86.86,0,0,0,.37-.1,1,1,0,0,0,.3-.27h0A.76.76,0,0,0,38.68,46.77Z" transform="translate(-9.8 -9.8)"/><path class="cls-1" d="M49.73,32.14h0L46,30l3.69-2.12h0a.83.83,0,0,0,.3-1h0a.8.8,0,0,0-1-.3h0l-3.69,2.13V24.43a.72.72,0,0,0-.75-.75.73.73,0,0,0-.54.21.75.75,0,0,0-.21.54v4.25l-3.68-2.13a.76.76,0,0,0-1,.3.76.76,0,0,0,.3,1h0L43,30l-3.68,2.12h0a.83.83,0,0,0-.31,1h0a.81.81,0,0,0,.67.37h.18a.56.56,0,0,0,.19-.07h0l3.68-2.13v4.25a.75.75,0,0,0,.21.54.73.73,0,0,0,.54.21.72.72,0,0,0,.75-.75V31.36L49,33.49h0a.56.56,0,0,0,.19.07h.18a.75.75,0,0,0,.37-.11.93.93,0,0,0,.3-.26h0A.83.83,0,0,0,49.73,32.14Z" transform="translate(-9.8 -9.8)"/></svg>