<svg width="60" height="60" viewBox="0 0 60 60" fill="none" xmlns="http://www.w3.org/2000/svg">
<path d="M26.8873 43.6661C26.9203 43.9402 26.9161 44.1885 26.9022 44.3321L26.8873 43.6661Z" fill="#FDFFFF" stroke="#FDFFFF" stroke-width="3"/>
<path d="M20.7436 32.3878L20.7421 32.3893L20.7436 32.3878ZM20.7436 32.3878L20.7424 32.3941L20.7424 32.3941L20.7399 32.4083L20.7383 32.4171L20.7436 32.3878ZM20.7161 32.3908C20.7139 32.3868 20.7115 32.3818 20.7087 32.3752C20.7086 32.375 20.7085 32.3747 20.7084 32.3743C20.7083 32.374 20.7082 32.3736 20.7081 32.3732C20.7081 32.3729 20.7081 32.3727 20.7081 32.3724C20.708 32.3713 20.708 32.37 20.708 32.3687C20.7079 32.3671 20.7079 32.3653 20.7079 32.3634C20.7079 32.3632 20.7079 32.363 20.7079 32.3628C20.7079 32.3612 20.7079 32.3597 20.708 32.3582C20.708 32.3577 20.7081 32.3571 20.7081 32.3565C20.7085 32.35 20.7095 32.3448 20.7106 32.3408C20.7114 32.338 20.7122 32.3358 20.7129 32.3341C20.7129 32.3339 20.713 32.3338 20.713 32.3337C20.7142 32.331 20.7159 32.3275 20.7189 32.3234C20.7189 32.3233 20.7189 32.3233 20.719 32.3232L20.7191 32.3235L20.7275 32.3364L20.7347 32.3476L20.733 32.3519L20.7324 32.3537L20.7317 32.3553L20.73 32.3599L20.7297 32.3606L20.7289 32.3628L20.7287 32.3634L20.7283 32.3642L20.7173 32.3931C20.7169 32.3923 20.7164 32.3915 20.7161 32.3908ZM20.7044 32.427L20.7044 32.427L20.7044 32.427ZM20.819 32.4113C20.8183 32.4123 20.8176 32.4131 20.817 32.4139C20.8153 32.4161 20.8143 32.4172 20.8143 32.4173C20.8143 32.4173 20.8145 32.4171 20.8148 32.4167C20.8153 32.4161 20.816 32.4153 20.8171 32.414C20.8179 32.413 20.8189 32.4119 20.8202 32.4105C20.8205 32.4102 20.8209 32.41 20.8213 32.4097C20.8202 32.4113 20.8191 32.4129 20.818 32.4146L20.8214 32.4096C20.8223 32.409 20.8233 32.4083 20.8243 32.4076L20.819 32.4113ZM20.8296 32.3235L20.8301 32.3226L20.8361 32.3342L20.8347 32.3329L20.8276 32.3265L20.8296 32.3235ZM20.8245 32.4035C20.8241 32.4039 20.8237 32.4042 20.8234 32.4046L20.8169 32.3981L20.8176 32.3967L20.8245 32.4035ZM20.8114 32.4101L20.8163 32.3996L20.8075 32.4187L20.8113 32.4105L20.8114 32.4101ZM20.8213 32.3886L20.8306 32.3684L20.8307 32.3681L20.8324 32.3644L20.8329 32.3634L20.8332 32.3628L20.8335 32.3621L20.836 32.3568L20.84 32.3479L20.8213 32.3886Z" fill="#FDFFFF" stroke="#FDFFFF" stroke-width="3"/>
<path d="M35.1881 42.3305C35.5142 42.3873 35.8486 42.2247 35.9615 41.9394L34.6289 42.2223C34.8941 42.2523 35.0761 42.3029 35.0961 42.3085C35.0966 42.3087 35.0971 42.3088 35.0974 42.3089C35.1253 42.3174 35.1534 42.3242 35.1816 42.3294C35.1838 42.3298 35.186 42.3301 35.1881 42.3305Z" fill="#FDFFFF" stroke="#FDFFFF" stroke-width="3"/>
<mask id="path-4-inside-1" fill="white">
<path d="M56.0084 16.3858C54.4688 14.021 45.4908 14.3542 43.6719 15.2705C43.2293 15.4941 42.8061 15.7413 42.3967 15.9809C41.7338 16.3686 41.1076 16.735 40.4373 16.9844C40.0445 17.1301 39.6649 17.2029 39.2864 17.2281C39.5468 16.1209 40.0342 13.9958 40.2291 12.7962C40.4086 11.6924 39.9883 10.7187 39.1328 10.256C38.1947 9.74907 36.9836 10.006 35.9727 10.9297C34.5122 12.2635 33.2839 15.0285 32.9594 15.8015C31.8699 15.5933 30.82 15.4804 29.688 15.4459C29.6789 15.4459 29.6703 15.4477 29.6611 15.4477C29.6525 15.4477 29.6445 15.4454 29.6359 15.4459C28.5068 15.4804 27.4592 15.5927 26.3651 15.8026C26.0406 15.0308 24.8123 12.2641 23.3512 10.9297C22.3409 10.0071 21.131 9.74907 20.1917 10.256C19.3362 10.7193 18.9159 11.6924 19.0953 12.7962C19.2903 13.9958 19.7783 16.1214 20.0386 17.2287C19.6613 17.2035 19.2811 17.1306 18.8878 16.9844C18.2169 16.735 17.5907 16.3691 16.9278 15.9809C16.5184 15.7418 16.0952 15.4941 15.6526 15.2705C13.8337 14.353 4.85514 14.021 3.3161 16.3858C2.89349 17.0355 2.89464 17.9627 3.31954 19.1416C4.32072 21.9198 7.59148 25.9177 10.1512 26.7153C11.5257 27.1436 12.774 27.1889 13.6852 27.2222C13.9466 27.2319 14.246 27.2428 14.4771 27.2646C14.3406 27.9556 14.2431 28.6597 14.1869 29.3656C13.809 34.1261 17.0901 38.1371 17.9801 39.1309C17.5374 39.9165 17.2914 40.8855 17.3401 42.1144C17.46 45.1437 18.7857 48.6622 22.1253 48.6622C22.1465 48.6622 22.1683 48.6616 22.1895 48.6616C23.0582 48.6737 23.5026 48.9615 24.197 49.4317C25.2338 50.133 26.5148 51 29.3841 51C29.4753 51 29.5682 50.9989 29.6622 50.9971C29.7569 50.9989 29.8492 51 29.9404 51C32.8091 51 34.0913 50.1324 35.1275 49.4317C35.8104 48.969 36.2657 48.661 37.0914 48.661C37.1247 48.661 37.1625 48.6616 37.1992 48.6622C40.5376 48.6616 41.8645 45.1431 41.9849 42.1144C42.0331 40.8861 41.7877 39.9176 41.345 39.1314C42.2344 38.1389 45.5172 34.1278 45.1387 29.3656C45.0825 28.6586 44.9851 27.9544 44.8486 27.2646C45.0797 27.2423 45.379 27.2314 45.6405 27.2222C46.5516 27.1889 47.7999 27.1436 49.1744 26.7153C51.7341 25.9171 55.0043 21.9192 56.0055 19.1416C56.4304 17.9627 56.4316 17.0355 56.0084 16.3858ZM37.1333 12.1993C37.6425 11.7348 38.0949 11.6499 38.3145 11.7686C38.5072 11.873 38.5898 12.1609 38.5318 12.5198C38.3346 13.7326 37.8019 16.0337 37.5639 17.0412C37.0748 16.9231 36.5656 16.7654 36.0105 16.5899C35.5409 16.4414 35.0959 16.3135 34.6619 16.1965C35.1412 15.1025 36.1413 13.1053 37.1333 12.1993ZM21.01 11.7681C21.2307 11.6488 21.6826 11.7348 22.1906 12.1987C23.1804 13.103 24.1827 15.1025 24.6626 16.1965C24.2125 16.3175 23.7503 16.4506 23.2595 16.606C22.7291 16.774 22.2371 16.9259 21.7617 17.0412C21.5238 16.0348 20.9899 13.732 20.7927 12.5187C20.7347 12.1603 20.8179 11.8724 21.01 11.7681ZM40.2653 42.0461C40.2458 42.549 39.9906 46.9419 37.1935 46.9419C37.1814 46.9419 37.1694 46.9414 37.1574 46.9414C35.7525 46.9356 34.9497 47.4746 34.163 48.0068C33.2037 48.6559 32.2042 49.3354 29.6794 49.2769C29.6731 49.2769 29.6674 49.2786 29.6617 49.2786C29.6559 49.2786 29.6508 49.2769 29.645 49.2769C27.1151 49.3417 26.1208 48.6565 25.1609 48.0068C24.3862 47.4827 23.5858 46.9408 22.2325 46.9408C22.1987 46.9408 22.1648 46.9419 22.1304 46.9419C19.3339 46.9414 19.0787 42.549 19.0592 42.0461C18.9841 40.1395 19.5827 38.8843 22.9562 37.718C24.3427 37.2386 25.2171 36.6726 25.9889 36.1726C27.0555 35.4817 27.8285 34.9828 29.6622 34.9426C31.4966 34.9828 32.269 35.4817 33.3355 36.1726C34.1074 36.6726 34.9818 37.2386 36.3678 37.718C39.7417 38.8843 40.341 40.1395 40.2653 42.0461ZM54.3868 18.5584C53.5484 20.8854 50.6217 24.4623 48.6624 25.073C47.5069 25.4331 46.4375 25.4721 45.578 25.5031C44.4948 25.5426 43.5595 25.5765 43.1146 26.3655L42.9489 26.6597L43.0274 26.9882C43.2229 27.8042 43.356 28.65 43.4236 29.5015C43.7247 33.2958 41.1546 36.6973 40.2257 37.7931C39.3163 37.0241 38.1471 36.5127 36.9303 36.0918C35.7416 35.6812 34.9939 35.1967 34.2714 34.7288C33.1119 33.9776 32.0167 33.2683 29.6794 33.2213C29.6737 33.2213 29.668 33.223 29.6617 33.223C29.6559 33.223 29.6502 33.2213 29.6445 33.2213C27.3072 33.2683 26.2126 33.9776 25.0531 34.7288C24.3301 35.1967 23.5829 35.6812 22.3936 36.0918C21.1768 36.5127 20.0071 37.0247 19.0976 37.7937C18.1687 36.7013 15.5987 33.3107 15.9008 29.5021C15.9685 28.6529 16.1021 27.8065 16.2971 26.9882L16.3756 26.6602L16.2099 26.3661C15.7649 25.5765 14.8297 25.5426 13.7471 25.5031C12.887 25.4721 11.8176 25.4331 10.6627 25.073C8.70334 24.4623 5.77605 20.8854 4.93772 18.5584C4.65044 17.7608 4.71064 17.3973 4.75824 17.3245C5.49565 16.1914 13.2803 16.001 14.8779 16.8067C15.273 17.0062 15.6549 17.2293 16.0591 17.4655C16.7564 17.8732 17.4772 18.2952 18.2891 18.5969C20.3064 19.3457 22.0719 18.7872 23.8335 18.2299C26.0256 17.536 27.7166 17.2281 29.6628 17.1668C31.6084 17.2276 33.3006 17.536 35.5461 18.2471C37.2531 18.7878 39.0187 19.3463 41.0371 18.5969C41.8485 18.2952 42.5693 17.8738 43.2665 17.4661C43.6708 17.2293 44.0527 17.0062 44.4483 16.8067C46.0464 16.0004 53.8306 16.192 54.5674 17.3239C54.6144 17.3967 54.6746 17.7608 54.3868 18.5584Z"/>
</mask>
<path d="M56.0084 16.3858C54.4688 14.021 45.4908 14.3542 43.6719 15.2705C43.2293 15.4941 42.8061 15.7413 42.3967 15.9809C41.7338 16.3686 41.1076 16.735 40.4373 16.9844C40.0445 17.1301 39.6649 17.2029 39.2864 17.2281C39.5468 16.1209 40.0342 13.9958 40.2291 12.7962C40.4086 11.6924 39.9883 10.7187 39.1328 10.256C38.1947 9.74907 36.9836 10.006 35.9727 10.9297C34.5122 12.2635 33.2839 15.0285 32.9594 15.8015C31.8699 15.5933 30.82 15.4804 29.688 15.4459C29.6789 15.4459 29.6703 15.4477 29.6611 15.4477C29.6525 15.4477 29.6445 15.4454 29.6359 15.4459C28.5068 15.4804 27.4592 15.5927 26.3651 15.8026C26.0406 15.0308 24.8123 12.2641 23.3512 10.9297C22.3409 10.0071 21.131 9.74907 20.1917 10.256C19.3362 10.7193 18.9159 11.6924 19.0953 12.7962C19.2903 13.9958 19.7783 16.1214 20.0386 17.2287C19.6613 17.2035 19.2811 17.1306 18.8878 16.9844C18.2169 16.735 17.5907 16.3691 16.9278 15.9809C16.5184 15.7418 16.0952 15.4941 15.6526 15.2705C13.8337 14.353 4.85514 14.021 3.3161 16.3858C2.89349 17.0355 2.89464 17.9627 3.31954 19.1416C4.32072 21.9198 7.59148 25.9177 10.1512 26.7153C11.5257 27.1436 12.774 27.1889 13.6852 27.2222C13.9466 27.2319 14.246 27.2428 14.4771 27.2646C14.3406 27.9556 14.2431 28.6597 14.1869 29.3656C13.809 34.1261 17.0901 38.1371 17.9801 39.1309C17.5374 39.9165 17.2914 40.8855 17.3401 42.1144C17.46 45.1437 18.7857 48.6622 22.1253 48.6622C22.1465 48.6622 22.1683 48.6616 22.1895 48.6616C23.0582 48.6737 23.5026 48.9615 24.197 49.4317C25.2338 50.133 26.5148 51 29.3841 51C29.4753 51 29.5682 50.9989 29.6622 50.9971C29.7569 50.9989 29.8492 51 29.9404 51C32.8091 51 34.0913 50.1324 35.1275 49.4317C35.8104 48.969 36.2657 48.661 37.0914 48.661C37.1247 48.661 37.1625 48.6616 37.1992 48.6622C40.5376 48.6616 41.8645 45.1431 41.9849 42.1144C42.0331 40.8861 41.7877 39.9176 41.345 39.1314C42.2344 38.1389 45.5172 34.1278 45.1387 29.3656C45.0825 28.6586 44.9851 27.9544 44.8486 27.2646C45.0797 27.2423 45.379 27.2314 45.6405 27.2222C46.5516 27.1889 47.7999 27.1436 49.1744 26.7153C51.7341 25.9171 55.0043 21.9192 56.0055 19.1416C56.4304 17.9627 56.4316 17.0355 56.0084 16.3858ZM37.1333 12.1993C37.6425 11.7348 38.0949 11.6499 38.3145 11.7686C38.5072 11.873 38.5898 12.1609 38.5318 12.5198C38.3346 13.7326 37.8019 16.0337 37.5639 17.0412C37.0748 16.9231 36.5656 16.7654 36.0105 16.5899C35.5409 16.4414 35.0959 16.3135 34.6619 16.1965C35.1412 15.1025 36.1413 13.1053 37.1333 12.1993ZM21.01 11.7681C21.2307 11.6488 21.6826 11.7348 22.1906 12.1987C23.1804 13.103 24.1827 15.1025 24.6626 16.1965C24.2125 16.3175 23.7503 16.4506 23.2595 16.606C22.7291 16.774 22.2371 16.9259 21.7617 17.0412C21.5238 16.0348 20.9899 13.732 20.7927 12.5187C20.7347 12.1603 20.8179 11.8724 21.01 11.7681ZM40.2653 42.0461C40.2458 42.549 39.9906 46.9419 37.1935 46.9419C37.1814 46.9419 37.1694 46.9414 37.1574 46.9414C35.7525 46.9356 34.9497 47.4746 34.163 48.0068C33.2037 48.6559 32.2042 49.3354 29.6794 49.2769C29.6731 49.2769 29.6674 49.2786 29.6617 49.2786C29.6559 49.2786 29.6508 49.2769 29.645 49.2769C27.1151 49.3417 26.1208 48.6565 25.1609 48.0068C24.3862 47.4827 23.5858 46.9408 22.2325 46.9408C22.1987 46.9408 22.1648 46.9419 22.1304 46.9419C19.3339 46.9414 19.0787 42.549 19.0592 42.0461C18.9841 40.1395 19.5827 38.8843 22.9562 37.718C24.3427 37.2386 25.2171 36.6726 25.9889 36.1726C27.0555 35.4817 27.8285 34.9828 29.6622 34.9426C31.4966 34.9828 32.269 35.4817 33.3355 36.1726C34.1074 36.6726 34.9818 37.2386 36.3678 37.718C39.7417 38.8843 40.341 40.1395 40.2653 42.0461ZM54.3868 18.5584C53.5484 20.8854 50.6217 24.4623 48.6624 25.073C47.5069 25.4331 46.4375 25.4721 45.578 25.5031C44.4948 25.5426 43.5595 25.5765 43.1146 26.3655L42.9489 26.6597L43.0274 26.9882C43.2229 27.8042 43.356 28.65 43.4236 29.5015C43.7247 33.2958 41.1546 36.6973 40.2257 37.7931C39.3163 37.0241 38.1471 36.5127 36.9303 36.0918C35.7416 35.6812 34.9939 35.1967 34.2714 34.7288C33.1119 33.9776 32.0167 33.2683 29.6794 33.2213C29.6737 33.2213 29.668 33.223 29.6617 33.223C29.6559 33.223 29.6502 33.2213 29.6445 33.2213C27.3072 33.2683 26.2126 33.9776 25.0531 34.7288C24.3301 35.1967 23.5829 35.6812 22.3936 36.0918C21.1768 36.5127 20.0071 37.0247 19.0976 37.7937C18.1687 36.7013 15.5987 33.3107 15.9008 29.5021C15.9685 28.6529 16.1021 27.8065 16.2971 26.9882L16.3756 26.6602L16.2099 26.3661C15.7649 25.5765 14.8297 25.5426 13.7471 25.5031C12.887 25.4721 11.8176 25.4331 10.6627 25.073C8.70334 24.4623 5.77605 20.8854 4.93772 18.5584C4.65044 17.7608 4.71064 17.3973 4.75824 17.3245C5.49565 16.1914 13.2803 16.001 14.8779 16.8067C15.273 17.0062 15.6549 17.2293 16.0591 17.4655C16.7564 17.8732 17.4772 18.2952 18.2891 18.5969C20.3064 19.3457 22.0719 18.7872 23.8335 18.2299C26.0256 17.536 27.7166 17.2281 29.6628 17.1668C31.6084 17.2276 33.3006 17.536 35.5461 18.2471C37.2531 18.7878 39.0187 19.3463 41.0371 18.5969C41.8485 18.2952 42.5693 17.8738 43.2665 17.4661C43.6708 17.2293 44.0527 17.0062 44.4483 16.8067C46.0464 16.0004 53.8306 16.192 54.5674 17.3239C54.6144 17.3967 54.6746 17.7608 54.3868 18.5584Z" fill="#FDFFFF" stroke="#FDFFFF" stroke-width="6" mask="url(#path-4-inside-1)"/>
<path d="M38.5042 32.4072C38.5038 32.4068 38.5033 32.4062 38.5029 32.4057L38.5077 32.4048L38.5077 32.4048L38.5192 32.4028L38.527 32.4014L38.5281 32.4016L38.5508 32.4055L38.5897 32.4121L38.5903 32.4122L38.5915 32.4124C38.5914 32.4125 38.5912 32.4126 38.5911 32.4127C38.5911 32.4128 38.591 32.4128 38.591 32.4129C38.5746 32.4284 38.5603 32.4376 38.5508 32.4428C38.5507 32.4428 38.5505 32.4429 38.5504 32.443C38.5409 32.438 38.5265 32.4289 38.51 32.4133C38.5098 32.4131 38.5096 32.4129 38.5094 32.4127C38.5088 32.4122 38.5082 32.4116 38.5076 32.4111C38.5068 32.4102 38.5058 32.4091 38.5047 32.4078C38.5045 32.4076 38.5044 32.4074 38.5042 32.4072ZM38.6064 32.3242C38.6068 32.325 38.6072 32.3257 38.6076 32.3263L38.5923 32.3291L38.5911 32.3293L38.5815 32.3311L38.5753 32.3322L38.5752 32.3322L38.596 32.3114L38.596 32.3114C38.5961 32.3116 38.5969 32.3123 38.5984 32.3141C38.5989 32.3146 38.5994 32.3153 38.6 32.316C38.6006 32.3167 38.6014 32.3177 38.6023 32.3189C38.6028 32.3195 38.6033 32.3201 38.6038 32.3208C38.6044 32.3216 38.6051 32.3225 38.6058 32.3234C38.606 32.3237 38.6062 32.3239 38.6064 32.3242ZM38.5948 32.3103L38.5725 32.3327L38.5606 32.3348L38.556 32.3357L38.552 32.3364L38.5508 32.3366L38.5468 32.3374L38.5408 32.3384L38.5363 32.3393L38.5261 32.3291L38.5066 32.3099C38.5079 32.3087 38.5092 32.3076 38.5106 32.3065C38.5121 32.3055 38.5137 32.3045 38.5154 32.3036C38.5165 32.303 38.5177 32.3025 38.5189 32.302C38.5246 32.2996 38.5352 32.2964 38.5508 32.2964C38.5657 32.2964 38.5761 32.2994 38.582 32.3019C38.5853 32.3033 38.5881 32.3048 38.5904 32.3065C38.5913 32.3072 38.5921 32.3078 38.5929 32.3085C38.5935 32.3091 38.5942 32.3097 38.5948 32.3103ZM38.4874 32.3415C38.4876 32.3405 38.4879 32.3396 38.4881 32.3388C38.4897 32.3355 38.4912 32.3326 38.4926 32.3299C38.4935 32.3281 38.4946 32.3261 38.4959 32.3239C38.4964 32.3229 38.497 32.3219 38.4976 32.3209C38.4983 32.32 38.4989 32.3192 38.4994 32.3185C38.5005 32.3172 38.5013 32.316 38.5021 32.3152L38.5094 32.3225L38.5208 32.3339L38.5277 32.3408L38.504 32.3451L38.4958 32.3466L38.495 32.3467L38.4896 32.3477L38.4857 32.3484C38.4859 32.3475 38.4862 32.3465 38.4864 32.3456C38.4866 32.3447 38.4868 32.3438 38.487 32.343C38.4871 32.3426 38.4872 32.3422 38.4873 32.3419C38.4873 32.3417 38.4873 32.3416 38.4874 32.3415ZM38.5335 32.3664L38.5401 32.3651L38.5379 32.3673L38.5335 32.3664ZM38.543 32.3683L38.5397 32.3677L38.542 32.3654L38.5428 32.3646L38.5492 32.3633L38.55 32.3631L38.5508 32.364L38.5516 32.3648L38.5508 32.3651L38.5461 32.367L38.5451 32.3674L38.543 32.3683ZM38.6167 32.3662L38.6148 32.3666L38.6082 32.3678L38.6065 32.3682L38.606 32.3682L38.5738 32.3743L38.5714 32.3738L38.5712 32.3738L38.568 32.3707L38.5875 32.3629L38.59 32.3619L38.5901 32.3618L38.5901 32.3618L38.5941 32.3602L38.5961 32.3594L38.5992 32.3582L38.6164 32.3513C38.6164 32.3516 38.6165 32.3518 38.6165 32.3521C38.6166 32.3551 38.6167 32.3588 38.6167 32.3629C38.6167 32.3636 38.6167 32.3644 38.6167 32.3651C38.6167 32.3655 38.6167 32.3659 38.6167 32.3662ZM38.5607 32.361L38.5609 32.361L38.5606 32.3611L38.559 32.3617L38.5587 32.3614L38.5607 32.361ZM38.5045 32.408L38.5061 32.4096C38.5056 32.4091 38.505 32.4085 38.5045 32.408Z" fill="#FDFFFF" stroke="#FDFFFF" stroke-width="3"/>
</svg>
