<svg xmlns="http://www.w3.org/2000/svg" viewBox="0 0 70 70" height="70" width="70">
<g class="nc-icon-wrapper js-transition-icon" data-effect="scale" data-event="click">
<g fill="none" class="js-transition-icon__state"><path d="M13.017 11v50" stroke="#FDFFFF" stroke-width="1.5" stroke-linecap="round" stroke-linejoin="round"></path>
<path d="M10 14.017L13.017 11l3.018 3.017" stroke="#FDFFFF" stroke-width="1.5" stroke-linecap="round" stroke-linejoin="round"></path>
<path d="M60 57.983H10" stroke="#FDFFFF" stroke-width="1.5" stroke-linecap="round" stroke-linejoin="round"></path>
<path d="M56.983 54.966L60 57.983 56.983 61" stroke="#FDFFFF" stroke-width="1.5" stroke-linecap="round" stroke-linejoin="round"></path>
<mask id="path-5-outside-1" maskUnits="userSpaceOnUse" x="20.207" y="17.759" width="30" height="36" fill="#000">
<path fill="#fff" d="M20.207 17.759h30v36h-30z"></path>
<path d="M47.963 21.884h-1.68l-.467-2.263a1.077 1.077 0 0 0-1.055-.862H25.759a1.078 1.078 0 0 0-1.055.862l-.467 2.263h-1.68a1.348 1.348 0 0 0-1.35 1.347v2.228a1.347 1.347 0 0 0 1.346 1.346h.66l.374 2.63a1.187 1.187 0 0 0-.582 1.193l2.502 17.555a1.193 1.193 0 0 0 .892.982l.356 2.499a1.956 1.956 0 0 0 1.928 1.672h13.155a1.955 1.955 0 0 0 1.927-1.672l.355-2.5a1.191 1.191 0 0 0 .893-.981l2.499-17.558a1.185 1.185 0 0 0-.583-1.193l.375-2.63h.66a1.347 1.347 0 0 0 1.346-1.343v-2.228a1.349 1.349 0 0 0-1.347-1.347zm-1.456 8.598L44.008 48.04a.17.17 0 0 1-.168.145h-4.852a.508.508 0 0 0 0 1.014h4.102l-.33 2.323a.936.936 0 0 1-.923.8H28.682a.936.936 0 0 1-.923-.8l-.33-2.323h9.201a.507.507 0 0 0 0-1.014h-9.95a.17.17 0 0 1-.169-.145L24.01 30.482a.165.165 0 0 1 .094-.175.17.17 0 0 1 .065-.017h22.18a.165.165 0 0 1 .12.057.165.165 0 0 1 .04.135zm-22.266-3.68h22.038l-.351 2.473H24.59l-.35-2.473zm24.055-1.343a.331.331 0 0 1-.333.332H22.556a.333.333 0 0 1-.333-.332v-2.228a.334.334 0 0 1 .333-.333h4.536a.506.506 0 0 0 .49-.707.508.508 0 0 0-.49-.307h-1.82l.424-2.059a.064.064 0 0 1 .063-.05H44.76a.064.064 0 0 1 .062.05l.425 2.059H29.452a.51.51 0 0 0-.531.507.507.507 0 0 0 .53.507h18.512a.333.333 0 0 1 .333.333v2.228z"></path></mask>
<path d="M47.963 21.884h-1.68l-.467-2.263a1.077 1.077 0 0 0-1.055-.862H25.759a1.078 1.078 0 0 0-1.055.862l-.467 2.263h-1.68a1.348 1.348 0 0 0-1.35 1.347v2.228a1.347 1.347 0 0 0 1.346 1.346h.66l.374 2.63a1.187 1.187 0 0 0-.582 1.193l2.502 17.555a1.193 1.193 0 0 0 .892.982l.356 2.499a1.956 1.956 0 0 0 1.928 1.672h13.155a1.955 1.955 0 0 0 1.927-1.672l.355-2.5a1.191 1.191 0 0 0 .893-.981l2.499-17.558a1.185 1.185 0 0 0-.583-1.193l.375-2.63h.66a1.347 1.347 0 0 0 1.346-1.343v-2.228a1.349 1.349 0 0 0-1.347-1.347zm-1.456 8.598L44.008 48.04a.17.17 0 0 1-.168.145h-4.852a.508.508 0 0 0 0 1.014h4.102l-.33 2.323a.936.936 0 0 1-.923.8H28.682a.936.936 0 0 1-.923-.8l-.33-2.323h9.201a.507.507 0 0 0 0-1.014h-9.95a.17.17 0 0 1-.169-.145L24.01 30.482a.165.165 0 0 1 .094-.175.17.17 0 0 1 .065-.017h22.18a.165.165 0 0 1 .12.057.165.165 0 0 1 .04.135zm-22.266-3.68h22.038l-.351 2.473H24.59l-.35-2.473zm24.055-1.343a.331.331 0 0 1-.333.332H22.556a.333.333 0 0 1-.333-.332v-2.228a.334.334 0 0 1 .333-.333h4.536a.506.506 0 0 0 .49-.707.508.508 0 0 0-.49-.307h-1.82l.424-2.059a.064.064 0 0 1 .063-.05H44.76a.064.064 0 0 1 .062.05l.425 2.059H29.452a.51.51 0 0 0-.531.507.507.507 0 0 0 .53.507h18.512a.333.333 0 0 1 .333.333v2.228z" fill="#FDFFFF"></path>
<path d="M47.963 21.884h-1.68l-.467-2.263a1.077 1.077 0 0 0-1.055-.862H25.759a1.078 1.078 0 0 0-1.055.862l-.467 2.263h-1.68a1.348 1.348 0 0 0-1.35 1.347v2.228a1.347 1.347 0 0 0 1.346 1.346h.66l.374 2.63a1.187 1.187 0 0 0-.582 1.193l2.502 17.555a1.193 1.193 0 0 0 .892.982l.356 2.499a1.956 1.956 0 0 0 1.928 1.672h13.155a1.955 1.955 0 0 0 1.927-1.672l.355-2.5a1.191 1.191 0 0 0 .893-.981l2.499-17.558a1.185 1.185 0 0 0-.583-1.193l.375-2.63h.66a1.347 1.347 0 0 0 1.346-1.343v-2.228a1.349 1.349 0 0 0-1.347-1.347zm-1.456 8.598L44.008 48.04a.17.17 0 0 1-.168.145h-4.852a.508.508 0 0 0 0 1.014h4.102l-.33 2.323a.936.936 0 0 1-.923.8H28.682a.936.936 0 0 1-.923-.8l-.33-2.323h9.201a.507.507 0 0 0 0-1.014h-9.95a.17.17 0 0 1-.169-.145L24.01 30.482a.165.165 0 0 1 .094-.175.17.17 0 0 1 .065-.017h22.18a.165.165 0 0 1 .12.057.165.165 0 0 1 .04.135zm-22.266-3.68h22.038l-.351 2.473H24.59l-.35-2.473zm24.055-1.343a.331.331 0 0 1-.333.332H22.556a.333.333 0 0 1-.333-.332v-2.228a.334.334 0 0 1 .333-.333h4.536a.506.506 0 0 0 .49-.707.508.508 0 0 0-.49-.307h-1.82l.424-2.059a.064.064 0 0 1 .063-.05H44.76a.064.064 0 0 1 .062.05l.425 2.059H29.452a.51.51 0 0 0-.531.507.507.507 0 0 0 .53.507h18.512a.333.333 0 0 1 .333.333v2.228z" stroke="#FDFFFF" stroke-width=".2" stroke-miterlimit="10" mask="url(#path-5-outside-1)"></path>
<path d="M39.106 35.027h.001-.001zm0 0l-.01-.01c-1.71-1.693-4.813-1.332-6.922.779m6.932-.77l-6.932.77m2.603 7.937a5.064 5.064 0 0 1-.607.037c-1.072 0-2.024-.37-2.726-1.069-.832-.836-1.2-2.02-1.036-3.34.159-1.274.798-2.528 1.8-3.53 2.083-2.083 5.12-2.44 6.814-.816l-4.245 8.718zm0 0c1.273-.159 2.526-.799 3.53-1.801l-3.53 1.8zm-2.603-7.937c-1.01 1.009-1.656 2.272-1.816 3.558-.166 1.334.206 2.534 1.05 3.383.713.71 1.678 1.083 2.762 1.083.205 0 .41-.013.613-.038 1.285-.16 2.548-.806 3.559-1.815 2.11-2.11 2.472-5.214.776-6.925l-6.945.754zm4.157-.746c.463-.006.92.096 1.334.298-.855.52-2.125 1.508-2.52 2.958-.17.627-.723 1.294-1.37 1.89-.63.58-1.341 1.087-1.858 1.416-.392-.563-.556-1.304-.454-2.12v-.006c.13-1.038.662-2.07 1.495-2.906 1.003-1.003 2.257-1.53 3.373-1.53zm-1.68 7.622c-.702.088-1.342-.019-1.866-.298.52-.347 1.25-.878 1.91-1.514.687-.663 1.306-1.447 1.528-2.263.175-.643.61-1.184 1.085-1.608a6.794 6.794 0 0 1 1.268-.879c.933 1.294.569 3.418-.932 4.984v-.002l-.085.086c-.838.837-1.872 1.367-2.909 1.494z" fill="#FDFFFF" stroke="#FDFFFF" stroke-width=".1" stroke-miterlimit="10"></path></g>
<g fill="none" class="js-transition-icon__state" aria-hidden="true" style="display: none;"><path d="M23 23.131l23.39 23.39" stroke="#FDFFFF" stroke-width="2.5" stroke-linecap="round"></path>
<path d="M23.39 46.5L46.757 23.13" stroke="#FDFFFF" stroke-width="2.5" stroke-linecap="round"></path>
</g>
</g>
</svg>