<svg xmlns="http://www.w3.org/2000/svg" viewBox="0 0 70 70" height="70" width="70">
<g class="nc-icon-wrapper js-transition-icon" data-effect="scale" data-event="click"><g fill="none" class="js-transition-icon__state" style="">
<path d="M59.851 25.622c.062-4.57-5.685-8.351-12.835-8.448-7.15-.096-12.997 3.53-13.059 8.1-.061 4.569 5.685 8.351 12.836 8.447 7.15.097 12.997-3.53 13.058-8.099z" stroke="#FDFFFF" stroke-width="1.5" stroke-miterlimit="10"></path>
<path d="M34.124 26.388a10.275 10.275 0 0 1 3.96-2.014c5.09-1.342 8.233 2.417 13.387 2.484 2.137.067 4.966-.537 8.297-2.954" stroke="#FDFFFF" stroke-width="1.5" stroke-miterlimit="10"></path>
<path d="M50.065 53.896c6.592-2.774 10.498-8.437 8.725-12.65-1.772-4.211-8.553-5.377-15.144-2.603-6.591 2.774-10.497 8.437-8.725 12.65 1.773 4.211 8.553 5.377 15.144 2.603z" stroke="#FDFFFF" stroke-width="1.5" stroke-miterlimit="10"></path>
<path d="M35.603 52.508c.68-1.237 1.546-2.474 2.782-3.45 4.08-3.255 8.345-1.237 13.043-3.32 1.979-.846 4.266-2.538 6.367-6.053" stroke="#FDFFFF" stroke-width="1.5" stroke-miterlimit="10"></path>
<path d="M32.827 43.338c2.681-3.7.16-10.102-5.63-14.299-5.792-4.196-12.66-4.598-15.342-.897-2.681 3.7-.16 10.102 5.63 14.298 5.792 4.197 12.66 4.599 15.342.898z" stroke="#FDFFFF" stroke-width="1.5" stroke-miterlimit="10"></path>
<path d="M10.945 28.848a11.153 11.153 0 0 1 4.41.69c4.92 1.947 5.495 6.594 9.777 9.608 1.789 1.256 4.409 2.386 8.499 2.512" stroke="#FDFFFF" stroke-width="1.5" stroke-miterlimit="10"></path>
</g>
<g fill="none" class="js-transition-icon__state" style="display: none;" aria-hidden="true">
<path d="M23 23.131l23.39 23.39" stroke="#FDFFFF" stroke-width="2.5" stroke-linecap="round"></path><path d="M23.39 46.5L46.757 23.13" stroke="#FDFFFF" stroke-width="2.5" stroke-linecap="round"></path>
</g>
</g>
<script>
!function(){"use strict";
f(!window.requestAnimationFrame){
    var a=null;
    window.requestAnimationFrame=function(t,i){
        var e=(new Date).getTime();a||(a=e);
        var s=Math.max(0,16-(e-a)),n=window.setTimeout(function(){t(e+s)},s);
        return a=e+s,n}}function r(t,i,e,s){return 1&gt;(t/=s/2)?e/2*t*t*t*t+i:-e/2*((t-=2)*t*t*t-2)+i}function e(t){return t?[1,0]:[0,1]}function t(t){this.element=t,this.svg=function t(i){var e=i.parentNode;if("svg"!==e.tagName)e=t(e);return e;}(this.element),this.getSize(),this.states=this.element.querySelectorAll(".js-transition-icon__state"),this.time={start:null,total:200},this.status={interacted:!1,animating:!1},this.animation={effect:this.element.getAttribute("data-effect"),event:this.element.getAttribute("data-event")},this.init()}t.prototype.getSize=function(){var t=this.svg.getAttribute("viewBox");this.size=t?{width:t.split(" ")[2],height:t.split(" ")[3]}:this.svg.getBoundingClientRect()},t.prototype.init=function(){var t=this;this.svg.addEventListener(t.animation.event,function(){t.status.animating||(t.status.animating=!0,window.requestAnimationFrame(t.triggerAnimation.bind(t)))})},t.prototype.triggerAnimation=function(t){var i=this.getProgress(t);this.animateIcon(i),this.checkProgress(i)},t.prototype.getProgress=function(t){return this.time.start||(this.time.start=t),t-this.time.start},t.prototype.checkProgress=function(t){if(this.time.total&gt;t)window.requestAnimationFrame(this.triggerAnimation.bind(this));else{this.status={interacted:!this.status.interacted,animating:!1},this.time.start=null;var i=e(this.status.interacted);this.states[i[0]].removeAttribute("aria-hidden"),this.states[i[1]].setAttribute("aria-hidden","true")}},t.prototype.animateIcon=function(t){if(t&gt;this.time.total){t=this.time.total;}if(0&gt;t){t=0;};var i=e(this.status.interacted);this.states[i[0]].style.display=t&gt;this.time.total/2?"none":"block",this.states[i[1]].style.display=t&gt;this.time.total/2?"block":"none","scale"==this.animation.effect?this.scaleIcon(t,i[0],i[1]):this.rotateIcon(t,i[0],i[1])},t.prototype.scaleIcon=function(t,i,e){var s=r(Math.min(t,this.time.total/2),1,-.2,this.time.total/2).toFixed(2),n=r(Math.max(t-this.time.total/2,0),.2,-.2,this.time.total/2).toFixed(2);this.states[i].setAttribute("transform","translate("+this.size.width*(1-s)/2+" "+this.size.height*(1-s)/2+") scale("+s+")"),this.states[e].setAttribute("transform","translate("+this.size.width*n/2+" "+this.size.height*n/2+") scale("+(1-n)+")")},t.prototype.rotateIcon=function(t,i,e){var s=r(t,0,180,this.time.total).toFixed(2);this.states[i].setAttribute("transform","rotate(-"+s+" "+this.size.width/2+" "+this.size.height/2+")"),this.states[e].setAttribute("transform","rotate("+(180-s)+" "+this.size.width/2+" "+this.size.height/2+")")};var i=document.querySelectorAll(".js-transition-icon");if(i)for(var s=0;i.length&gt;s;s++)new t(i[s])}();</script>
</svg>