<svg xmlns="http://www.w3.org/2000/svg" viewBox="0 0 70 70" height="70" width="70">
    <g class="nc-icon-wrapper js-transition-icon" data-effect="scale" data-event="click">
        <g fill="none" class="js-transition-icon__state">
            <g clip-path="url(#clip0)">
                <path d="M42.177 54.942c1.201 0 2.36.021 3.517 0 2.36-.042 4.719-.127 7.078-.19.3 0 .45-.107.558-.362.407-.89.815-1.76 1.244-2.651.257-.552.622-.743 1.03-.53.407.19.492.572.257 1.102-.494 1.082-1.008 2.143-1.523 3.225-.193.403-.472.594-.922.594l-12.226.318c-.45.021-.729-.19-.986-.509l-3.925-4.9c-.065-.085-.129-.149-.215-.234-.042.064-.085.085-.085.106.193.976-.408 1.38-1.201 1.782C31.368 54.327 28 56.024 24.61 57.7c-.472.233-.836.233-1.308 0-3.539-1.76-7.078-3.522-10.638-5.261-.515-.255-.73-.573-.73-1.146.022-1.846 0-3.713 0-5.558v-.319c.044-.424.258-.7.708-.7.45 0 .687.276.687.722v3.543c0 .636-.022 1.273 0 1.909 0 .148.107.382.236.446 3.131 1.57 6.284 3.118 9.437 4.667.021.021.064 0 .15 0 0-.17.021-.36.021-.552V44.738c0-.276 0-.488-.3-.658a1247.529 1247.529 0 0 1-9.244-4.561c-.086-.043-.171-.064-.322-.127 0 .87.022 1.697 0 2.503 0 .233-.064.53-.214.657-.172.149-.515.234-.708.149-.193-.085-.429-.382-.429-.594-.043-1.315-.064-2.61 0-3.925.022-.254.365-.594.643-.742 3.303-1.655 6.606-3.289 9.91-4.9.514-.255.707-.531.686-1.125-.022-3.925 0-7.85-.022-11.775 0-.636.215-.997.794-1.273 3.667-1.675 7.228-3.436 10.767-5.218.407-.212.75-.212 1.158 0 .729.403 1.501.742 2.252 1.124.536.276.708.658.493 1.06-.214.383-.6.446-1.115.192-.622-.297-1.244-.637-1.866-.913-.172-.084-.45-.106-.622-.02-3.024 1.484-6.048 2.97-9.072 4.476-.086.042-.172.106-.322.19 1.501.743 2.981 1.464 4.44 2.207 1.608.806 3.217 1.612 4.847 2.376.193.085.493.127.686.042 3.067-1.506 6.134-3.012 9.201-4.54.043-.02.064-.063.15-.127a320.04 320.04 0 0 1-3.839-1.91c-.15-.084-.322-.148-.472-.233-.343-.212-.493-.53-.3-.912s.515-.488.9-.34c.365.15.709.34 1.052.51 1.458.721 2.895 1.442 4.354 2.143.45.212.643.53.643 1.04-.021 4.263 0 8.527 0 12.77v.488c1.18 0 2.316.043 3.453-.02.772-.043 1.287.19 1.759.805 2.359 3.013 4.74 5.983 7.142 8.932.365.467.429.849.171 1.4-.815 1.655-1.587 3.33-2.359 4.985-.021.064-.064.128-.086.191-.236.425-.6.573-.965.404-.364-.17-.493-.552-.3-.998.6-1.294 1.222-2.588 1.844-3.882.086-.17.15-.34.258-.573-.193-.02-.322-.02-.45-.02l-10.081.254c-.279 0-.493.042-.643.34-1.587 3.393-3.196 6.788-4.783 10.182-.065.064-.065.128-.086.17zm-7.614-17.863c.021-.19.021-.276.021-.36 0-3.692 0-7.383.022-11.075 0-.382-.215-.466-.472-.615-3.024-1.485-6.048-2.991-9.05-4.476a6.064 6.064 0 0 0-.344-.128c-.021.106-.021.191-.021.255 0 3.712 0 7.425-.022 11.138 0 .34.15.466.408.594 1.844.89 3.667 1.824 5.512 2.715 1.287.658 2.595 1.294 3.946 1.952zm4.504-1.91c-.107.192-.172.319-.257.467-1.545 3.246-3.067 6.492-4.612 9.738-.171.36-.171.594.086.933 2.06 2.546 4.118 5.113 6.156 7.68.107.128.214.255.343.382.064-.085.107-.106.128-.17 1.61-3.415 3.218-6.81 4.826-10.225.065-.149 0-.446-.128-.573-1.094-1.421-2.231-2.8-3.346-4.2a236.389 236.389 0 0 0-3.196-4.031zm-4.461 4.244a7.343 7.343 0 0 1-.3.106c-3.089 1.527-6.156 3.055-9.244 4.561-.344.17-.344.382-.344.679v11.329c.3-.149.494-.234.687-.319 2.595-1.273 5.147-2.63 7.785-3.797 1.159-.51 1.63-1.146 1.459-2.376-.065-.446-.107-.849-.43-1.21-.514-.572-.943-1.187-1.436-1.782-.322-.381-.365-.742-.15-1.166.557-1.146 1.05-2.334 1.651-3.437.43-.849.3-1.676.322-2.588zm11.26-18.988c-.129.064-.236.085-.322.128a3654.119 3654.119 0 0 1-9.158 4.518c-.3.149-.386.34-.386.658v10.862c0 .127.022.276.022.403.042.043.085.064.128.106.236-.233.558-.445.708-.721.472-.87.88-1.782 1.287-2.673.193-.403.472-.573.922-.594 1.351-.021 2.724-.106 4.075-.085.858 0 1.609-.17 2.338-.594.322-.17.407-.36.407-.7-.021-3.628 0-7.234 0-10.862 0-.127 0-.276-.021-.446zm-5.49 14.045c.107.17.17.254.214.34 2.08 2.608 4.16 5.218 6.263 7.806.128.149.407.255.621.255 3.304-.064 6.606-.149 9.91-.234.128 0 .278-.042.493-.063-.193-.234-.322-.425-.45-.594-1.78-2.228-3.604-4.434-5.341-6.704-.644-.849-1.287-1.273-2.338-1.04-.215.043-.472.022-.686.022-2.874.063-5.727.148-8.687.212zm-26.081 3.755c3.217 1.59 6.327 3.14 9.458 4.667.172.085.45.042.622-.043 1.373-.657 2.724-1.336 4.075-1.994 1.716-.848 3.454-1.718 5.212-2.588-.107-.085-.171-.127-.236-.17a1792.83 1792.83 0 0 0-9.094-4.497c-.171-.085-.493-.064-.686.042-1.63.785-3.26 1.591-4.89 2.397-1.458.722-2.917 1.422-4.461 2.186z" fill="#FDFFFF"></path>
                <path d="M41.233 30.566a.77.77 0 0 1-.729.764.728.728 0 0 1-.772-.764c0-.403.343-.742.75-.721a.724.724 0 0 1 .751.721z" fill="#FDFFFF"></path>
                <path d="M43.42 27.384a.756.756 0 0 1-.75-.743c0-.424.343-.764.772-.742a.77.77 0 0 1 .73.763c0 .382-.344.722-.751.722z" fill="#FDFFFF"></path>
                <path d="M44.172 29.526a.737.737 0 0 1-.73.743.739.739 0 0 1-.772-.7.752.752 0 1 1 1.502-.043z" fill="#FDFFFF"></path>
            </g>
            <defs>
                <clipPath id="clip0">
                    <path fill="#fff" transform="translate(12 13)" d="M0 0h48v44.87H0z"></path>
                </clipPath>
            </defs>
        </g>
        <g fill="none" class="js-transition-icon__state" aria-hidden="true" style="display: none;">
            <path d="M23 23.131l23.39 23.39" stroke="#FDFFFF" stroke-width="2.5" stroke-linecap="round"></path>
            <path d="M23.39 46.5L46.757 23.13" stroke="#FDFFFF" stroke-width="2.5" stroke-linecap="round"></path>
        </g>
    </g>
</svg>