<svg xmlns="http://www.w3.org/2000/svg" viewBox="0 0 70 70" height="70" width="70"><g class="nc-icon-wrapper js-transition-icon" data-effect="scale" data-event="click"><g fill="none" class="js-transition-icon__state"><path d="M13.017 11v50" stroke="#FDFFFF" stroke-width="1.5" stroke-linecap="round" stroke-linejoin="round"></path><path d="M10 14.017L13.017 11l3.018 3.017" stroke="#FDFFFF" stroke-width="1.5" stroke-linecap="round" stroke-linejoin="round"></path><path d="M60 57.983H10" stroke="#FDFFFF" stroke-width="1.5" stroke-linecap="round" stroke-linejoin="round"></path><path d="M56.983 54.966L60 57.983 56.983 61" stroke="#FDFFFF" stroke-width="1.5" stroke-linecap="round" stroke-linejoin="round"></path><mask id="path-5-outside-1" maskUnits="userSpaceOnUse" x="20.207" y="17.759" width="30" height="36" fill="#000"><path fill="#fff" d="M20.207 17.759h30v36h-30z"></path><path d="M47.963 21.884h-1.68l-.467-2.263a1.077 1.077 0 0 0-1.055-.862H25.759a1.078 1.078 0 0 0-1.055.862l-.467 2.263h-1.68a1.348 1.348 0 0 0-1.35 1.347v2.228a1.347 1.347 0 0 0 1.346 1.346h.66l.374 2.63a1.187 1.187 0 0 0-.582 1.193l2.502 17.555a1.193 1.193 0 0 0 .892.982l.356 2.499a1.956 1.956 0 0 0 1.928 1.672h13.155a1.955 1.955 0 0 0 1.927-1.672l.355-2.5a1.191 1.191 0 0 0 .893-.981l2.499-17.558a1.185 1.185 0 0 0-.583-1.193l.375-2.63h.66a1.347 1.347 0 0 0 1.346-1.343v-2.228a1.349 1.349 0 0 0-1.347-1.347zm-1.456 8.598L44.008 48.04a.17.17 0 0 1-.168.145h-4.852a.508.508 0 0 0 0 1.014h4.102l-.33 2.323a.936.936 0 0 1-.923.8H28.682a.936.936 0 0 1-.923-.8l-.33-2.323h9.201a.507.507 0 0 0 0-1.014h-9.95a.17.17 0 0 1-.169-.145L24.01 30.482a.165.165 0 0 1 .094-.175.17.17 0 0 1 .065-.017h22.18a.165.165 0 0 1 .12.057.165.165 0 0 1 .04.135zm-22.266-3.68h22.038l-.351 2.473H24.59l-.35-2.473zm24.055-1.343a.331.331 0 0 1-.333.332H22.556a.333.333 0 0 1-.333-.332v-2.228a.334.334 0 0 1 .333-.333h4.536a.506.506 0 0 0 .49-.707.508.508 0 0 0-.49-.307h-1.82l.424-2.059a.064.064 0 0 1 .063-.05H44.76a.064.064 0 0 1 .062.05l.425 2.059H29.452a.51.51 0 0 0-.531.507.507.507 0 0 0 .53.507h18.512a.333.333 0 0 1 .333.333v2.228z"></path></mask><path d="M47.963 21.884h-1.68l-.467-2.263a1.077 1.077 0 0 0-1.055-.862H25.759a1.078 1.078 0 0 0-1.055.862l-.467 2.263h-1.68a1.348 1.348 0 0 0-1.35 1.347v2.228a1.347 1.347 0 0 0 1.346 1.346h.66l.374 2.63a1.187 1.187 0 0 0-.582 1.193l2.502 17.555a1.193 1.193 0 0 0 .892.982l.356 2.499a1.956 1.956 0 0 0 1.928 1.672h13.155a1.955 1.955 0 0 0 1.927-1.672l.355-2.5a1.191 1.191 0 0 0 .893-.981l2.499-17.558a1.185 1.185 0 0 0-.583-1.193l.375-2.63h.66a1.347 1.347 0 0 0 1.346-1.343v-2.228a1.349 1.349 0 0 0-1.347-1.347zm-1.456 8.598L44.008 48.04a.17.17 0 0 1-.168.145h-4.852a.508.508 0 0 0 0 1.014h4.102l-.33 2.323a.936.936 0 0 1-.923.8H28.682a.936.936 0 0 1-.923-.8l-.33-2.323h9.201a.507.507 0 0 0 0-1.014h-9.95a.17.17 0 0 1-.169-.145L24.01 30.482a.165.165 0 0 1 .094-.175.17.17 0 0 1 .065-.017h22.18a.165.165 0 0 1 .12.057.165.165 0 0 1 .04.135zm-22.266-3.68h22.038l-.351 2.473H24.59l-.35-2.473zm24.055-1.343a.331.331 0 0 1-.333.332H22.556a.333.333 0 0 1-.333-.332v-2.228a.334.334 0 0 1 .333-.333h4.536a.506.506 0 0 0 .49-.707.508.508 0 0 0-.49-.307h-1.82l.424-2.059a.064.064 0 0 1 .063-.05H44.76a.064.064 0 0 1 .062.05l.425 2.059H29.452a.51.51 0 0 0-.531.507.507.507 0 0 0 .53.507h18.512a.333.333 0 0 1 .333.333v2.228z" fill="#FDFFFF"></path><path d="M47.963 21.884h-1.68l-.467-2.263a1.077 1.077 0 0 0-1.055-.862H25.759a1.078 1.078 0 0 0-1.055.862l-.467 2.263h-1.68a1.348 1.348 0 0 0-1.35 1.347v2.228a1.347 1.347 0 0 0 1.346 1.346h.66l.374 2.63a1.187 1.187 0 0 0-.582 1.193l2.502 17.555a1.193 1.193 0 0 0 .892.982l.356 2.499a1.956 1.956 0 0 0 1.928 1.672h13.155a1.955 1.955 0 0 0 1.927-1.672l.355-2.5a1.191 1.191 0 0 0 .893-.981l2.499-17.558a1.185 1.185 0 0 0-.583-1.193l.375-2.63h.66a1.347 1.347 0 0 0 1.346-1.343v-2.228a1.349 1.349 0 0 0-1.347-1.347zm-1.456 8.598L44.008 48.04a.17.17 0 0 1-.168.145h-4.852a.508.508 0 0 0 0 1.014h4.102l-.33 2.323a.936.936 0 0 1-.923.8H28.682a.936.936 0 0 1-.923-.8l-.33-2.323h9.201a.507.507 0 0 0 0-1.014h-9.95a.17.17 0 0 1-.169-.145L24.01 30.482a.165.165 0 0 1 .094-.175.17.17 0 0 1 .065-.017h22.18a.165.165 0 0 1 .12.057.165.165 0 0 1 .04.135zm-22.266-3.68h22.038l-.351 2.473H24.59l-.35-2.473zm24.055-1.343a.331.331 0 0 1-.333.332H22.556a.333.333 0 0 1-.333-.332v-2.228a.334.334 0 0 1 .333-.333h4.536a.506.506 0 0 0 .49-.707.508.508 0 0 0-.49-.307h-1.82l.424-2.059a.064.064 0 0 1 .063-.05H44.76a.064.064 0 0 1 .062.05l.425 2.059H29.452a.51.51 0 0 0-.531.507.507.507 0 0 0 .53.507h18.512a.333.333 0 0 1 .333.333v2.228z" stroke="#FDFFFF" stroke-width=".2" stroke-miterlimit="10" mask="url(#path-5-outside-1)"></path></g><g fill="none" class="js-transition-icon__state" aria-hidden="true" style="display: none;"><path d="M23 23.131l23.39 23.39" stroke="#FDFFFF" stroke-width="2.5" stroke-linecap="round"></path><path d="M23.39 46.5L46.757 23.13" stroke="#FDFFFF" stroke-width="2.5" stroke-linecap="round"></path></g></g><script>!function(){"use strict";if(!window.requestAnimationFrame){var a=null;window.requestAnimationFrame=function(t,i){var e=(new Date).getTime();a||(a=e);var s=Math.max(0,16-(e-a)),n=window.setTimeout(function(){t(e+s)},s);return a=e+s,n}}function r(t,i,e,s){return 1>(t/=s/2)?e/2*t*t*t*t+i:-e/2*((t-=2)*t*t*t-2)+i}function e(t){return t?[1,0]:[0,1]}function t(t){this.element=t,this.svg=function t(i){var e=i.parentNode;if("svg"!==e.tagName)e=t(e);return e;}(this.element),this.getSize(),this.states=this.element.querySelectorAll(".js-transition-icon__state"),this.time={start:null,total:200},this.status={interacted:!1,animating:!1},this.animation={effect:this.element.getAttribute("data-effect"),event:this.element.getAttribute("data-event")},this.init()}t.prototype.getSize=function(){var t=this.svg.getAttribute("viewBox");this.size=t?{width:t.split(" ")[2],height:t.split(" ")[3]}:this.svg.getBoundingClientRect()},t.prototype.init=function(){var t=this;this.svg.addEventListener(t.animation.event,function(){t.status.animating||(t.status.animating=!0,window.requestAnimationFrame(t.triggerAnimation.bind(t)))})},t.prototype.triggerAnimation=function(t){var i=this.getProgress(t);this.animateIcon(i),this.checkProgress(i)},t.prototype.getProgress=function(t){return this.time.start||(this.time.start=t),t-this.time.start},t.prototype.checkProgress=function(t){if(this.time.total>t)window.requestAnimationFrame(this.triggerAnimation.bind(this));else{this.status={interacted:!this.status.interacted,animating:!1},this.time.start=null;var i=e(this.status.interacted);this.states[i[0]].removeAttribute("aria-hidden"),this.states[i[1]].setAttribute("aria-hidden","true")}},t.prototype.animateIcon=function(t){if(t>this.time.total){t=this.time.total;}if(0>t){t=0;};var i=e(this.status.interacted);this.states[i[0]].style.display=t>this.time.total/2?"none":"block",this.states[i[1]].style.display=t>this.time.total/2?"block":"none","scale"==this.animation.effect?this.scaleIcon(t,i[0],i[1]):this.rotateIcon(t,i[0],i[1])},t.prototype.scaleIcon=function(t,i,e){var s=r(Math.min(t,this.time.total/2),1,-.2,this.time.total/2).toFixed(2),n=r(Math.max(t-this.time.total/2,0),.2,-.2,this.time.total/2).toFixed(2);this.states[i].setAttribute("transform","translate("+this.size.width*(1-s)/2+" "+this.size.height*(1-s)/2+") scale("+s+")"),this.states[e].setAttribute("transform","translate("+this.size.width*n/2+" "+this.size.height*n/2+") scale("+(1-n)+")")},t.prototype.rotateIcon=function(t,i,e){var s=r(t,0,180,this.time.total).toFixed(2);this.states[i].setAttribute("transform","rotate(-"+s+" "+this.size.width/2+" "+this.size.height/2+")"),this.states[e].setAttribute("transform","rotate("+(180-s)+" "+this.size.width/2+" "+this.size.height/2+")")};var i=document.querySelectorAll(".js-transition-icon");if(i)for(var s=0;i.length>s;s++)new t(i[s])}();</script></svg>