<svg xmlns="http://www.w3.org/2000/svg" viewBox="0 0 70 70" height="70" width="70">
<g class="nc-icon-wrapper js-transition-icon" data-effect="scale" data-event="click">
<g fill="none" class="js-transition-icon__state">
<path d="M53.995 25.035a.794.794 0 0 0-.093-.296l-6.074-11.156v-2.679A2.912 2.912 0 0 0 44.915 8h-19.33a2.912 2.912 0 0 0-2.913 2.904v2.665L16.11 24.718a.801.801 0 0 0-.109.4v33.978A2.912 2.912 0 0 0 18.913 62h32.174A2.912 2.912 0 0 0 54 59.096V25.119a.832.832 0 0 0-.005-.084zM52.41 49.444H41.156V35.422H52.41v14.022zM48.373 25.91h4.037v7.926H41.156V25.91h4.037c.439 0 .795-.355.795-.792a.794.794 0 0 0-.795-.793h-3.444l5.257-8.93 4.863 8.93h-3.496a.794.794 0 0 0 0 1.585zm-30.783 0h21.976v7.926H17.59V25.91zm6.333-11.334h4.251a.794.794 0 0 0 0-1.585h-3.912v-2.088c0-.727.594-1.319 1.323-1.319h19.33c.73 0 1.323.592 1.323 1.32v2.087H31.355a.794.794 0 1 0 0 1.585h14.29l-5.74 9.75H18.184l5.74-9.75zM17.59 59.096v-8.067h14.866a.794.794 0 1 0 0-1.585H17.59V35.422h21.976v14.022h-3.93a.794.794 0 0 0 0 1.585h3.93v9.386H18.913c-.73 0-1.323-.592-1.323-1.32zm33.497 1.319h-9.931v-9.386H52.41v8.067c0 .727-.594 1.319-1.323 1.319z" fill="#FDFFFF"></path>
</g>
<g fill="none" class="js-transition-icon__state" aria-hidden="true" style="display: none;">
<path d="M23 23.131l23.39 23.39" stroke="#FDFFFF" stroke-width="2.5" stroke-linecap="round"></path>
<path d="M23.39 46.5L46.757 23.13" stroke="#FDFFFF" stroke-width="2.5" stroke-linecap="round"></path>
</g>
</g>
</svg>