<svg width="66" height="66" viewBox="0 0 66 66" fill="none" xmlns="http://www.w3.org/2000/svg">
<mask id="path-1-outside-1" maskUnits="userSpaceOnUse" x="12" y="7" width="42" height="51" fill="black">
<rect fill="white" x="12" y="7" width="42" height="51"/>
<path d="M51.0827 12.448H48.6916L48.0259 9.22704C47.9552 8.88085 47.7672 8.56968 47.4936 8.34611C47.22 8.12254 46.8776 8.00028 46.5243 8H19.4788C19.1255 8.00028 18.7831 8.12254 18.5095 8.34611C18.2359 8.56968 18.0478 8.88085 17.9772 9.22704L17.313 12.448H14.9203C14.6683 12.4478 14.4188 12.4973 14.1859 12.5935C13.953 12.6897 13.7414 12.8309 13.5631 13.0089C13.3848 13.187 13.2433 13.3984 13.1466 13.6311C13.05 13.8638 13.0002 14.1133 13 14.3653V17.5372C13.0004 18.0451 13.2024 18.5322 13.5615 18.8913C13.9207 19.2505 14.4078 19.4525 14.9157 19.4529H15.8559L16.3882 23.1969C16.225 23.2909 16.0783 23.4112 15.9541 23.5527C15.7962 23.7352 15.6794 23.9495 15.6114 24.181C15.5434 24.4125 15.5258 24.6559 15.5599 24.8948L19.1199 49.8804C19.1695 50.2129 19.3166 50.5232 19.5427 50.7719C19.7688 51.0206 20.0636 51.1967 20.3899 51.2777L20.896 54.8346C20.9926 55.4942 21.3227 56.0972 21.8262 56.5341C22.3298 56.9709 22.9734 57.2126 23.64 57.2151H42.3646C43.031 57.2122 43.6742 56.9704 44.1774 56.5336C44.6807 56.0968 45.0105 55.4939 45.1071 54.8346L45.6132 51.2777C45.9396 51.1971 46.2347 51.0211 46.4608 50.7723C46.687 50.5235 46.834 50.213 46.8832 49.8804L50.4401 24.8902C50.474 24.6512 50.4562 24.4077 50.3879 24.1762C50.3196 23.9447 50.2025 23.7305 50.0444 23.5481C49.9208 23.4058 49.7741 23.2855 49.6103 23.1923L50.1441 19.4483H51.0843C51.5914 19.4479 52.0778 19.2466 52.4368 18.8884C52.7959 18.5302 52.9984 18.0443 53 17.5372V14.3653C52.9992 13.857 52.7969 13.3698 52.4376 13.0105C52.0782 12.6511 51.591 12.4488 51.0827 12.448V12.448ZM49.0106 24.6862L45.4537 49.6764C45.4452 49.7339 45.4164 49.7864 45.3725 49.8244C45.3286 49.8624 45.2725 49.8834 45.2144 49.8835H38.3077C38.1221 49.8921 37.9469 49.9718 37.8185 50.1062C37.6902 50.2406 37.6186 50.4193 37.6186 50.6052C37.6186 50.791 37.6902 50.9697 37.8185 51.1041C37.9469 51.2385 38.1221 51.3182 38.3077 51.3268H44.1469L43.676 54.6322C43.6301 54.9479 43.4722 55.2367 43.2313 55.4458C42.9903 55.655 42.6822 55.7707 42.3631 55.7718H23.64C23.3206 55.771 23.0122 55.6556 22.7709 55.4464C22.5296 55.2371 22.3715 54.9482 22.3255 54.6322L21.8546 51.3268H34.9518C35.1374 51.3182 35.3126 51.2385 35.4409 51.1041C35.5693 50.9697 35.6409 50.791 35.6409 50.6052C35.6409 50.4193 35.5693 50.2406 35.4409 50.1062C35.3126 49.9718 35.1374 49.8921 34.9518 49.8835H20.7886C20.7306 49.8834 20.6745 49.8624 20.6305 49.8244C20.5866 49.7864 20.5578 49.7339 20.5494 49.6764L16.9879 24.6862C16.9825 24.6521 16.9848 24.6171 16.9947 24.584C17.0045 24.5508 17.0215 24.5202 17.0446 24.4945C17.0661 24.4702 17.0922 24.4505 17.1215 24.4365C17.1507 24.4225 17.1825 24.4146 17.2149 24.4132H17.244H48.7544H48.7836C48.816 24.4143 48.8479 24.4221 48.8772 24.4361C48.9065 24.4501 48.9326 24.47 48.9538 24.4945C48.9769 24.5202 48.994 24.5508 49.0038 24.584C49.0136 24.6171 49.0159 24.6521 49.0106 24.6862V24.6862ZM17.3176 19.4483H48.6854L48.1854 22.9684H17.8161L17.3176 19.4483ZM51.5567 17.5372C51.5567 17.5993 51.5444 17.6609 51.5206 17.7183C51.4967 17.7757 51.4618 17.8279 51.4178 17.8718C51.3738 17.9156 51.3215 17.9504 51.264 17.9741C51.2065 17.9977 51.1449 18.0098 51.0827 18.0096H14.9203C14.7949 18.0096 14.6746 17.9599 14.5857 17.8713C14.4969 17.7828 14.4468 17.6626 14.4464 17.5372V14.3653C14.4468 14.2397 14.4968 14.1194 14.5856 14.0306C14.6744 13.9418 14.7947 13.8917 14.9203 13.8913H21.3761C21.4737 13.8958 21.5711 13.8805 21.6626 13.8463C21.7541 13.812 21.8377 13.7596 21.9083 13.6921C21.9789 13.6247 22.0352 13.5436 22.0736 13.4538C22.112 13.364 22.1318 13.2673 22.1318 13.1697C22.1318 13.072 22.112 12.9753 22.0736 12.8855C22.0352 12.7957 21.9789 12.7147 21.9083 12.6472C21.8377 12.5798 21.7541 12.5273 21.6626 12.4931C21.5711 12.4589 21.4737 12.4435 21.3761 12.448H18.7855L19.3898 9.51846C19.3941 9.49803 19.4052 9.4797 19.4214 9.46656C19.4377 9.45342 19.4579 9.44629 19.4788 9.44637H46.5243C46.5452 9.44629 46.5654 9.45342 46.5816 9.46656C46.5978 9.4797 46.609 9.49803 46.6133 9.51846L47.2176 12.448H24.7351C24.6375 12.4435 24.5401 12.4589 24.4486 12.4931C24.3571 12.5273 24.2735 12.5798 24.2029 12.6472C24.1323 12.7147 24.076 12.7957 24.0376 12.8855C23.9992 12.9753 23.9794 13.072 23.9794 13.1697C23.9794 13.2673 23.9992 13.364 24.0376 13.4538C24.076 13.5436 24.1323 13.6247 24.2029 13.6921C24.2735 13.7596 24.3571 13.812 24.4486 13.8463C24.5401 13.8805 24.6375 13.8958 24.7351 13.8913H51.0827C51.2084 13.8913 51.329 13.9413 51.4179 14.0301C51.5068 14.119 51.5567 14.2396 51.5567 14.3653V17.5372Z"/>
</mask>
<path d="M51.0827 12.448H48.6916L48.0259 9.22704C47.9552 8.88085 47.7672 8.56968 47.4936 8.34611C47.22 8.12254 46.8776 8.00028 46.5243 8H19.4788C19.1255 8.00028 18.7831 8.12254 18.5095 8.34611C18.2359 8.56968 18.0478 8.88085 17.9772 9.22704L17.313 12.448H14.9203C14.6683 12.4478 14.4188 12.4973 14.1859 12.5935C13.953 12.6897 13.7414 12.8309 13.5631 13.0089C13.3848 13.187 13.2433 13.3984 13.1466 13.6311C13.05 13.8638 13.0002 14.1133 13 14.3653V17.5372C13.0004 18.0451 13.2024 18.5322 13.5615 18.8913C13.9207 19.2505 14.4078 19.4525 14.9157 19.4529H15.8559L16.3882 23.1969C16.225 23.2909 16.0783 23.4112 15.9541 23.5527C15.7962 23.7352 15.6794 23.9495 15.6114 24.181C15.5434 24.4125 15.5258 24.6559 15.5599 24.8948L19.1199 49.8804C19.1695 50.2129 19.3166 50.5232 19.5427 50.7719C19.7688 51.0206 20.0636 51.1967 20.3899 51.2777L20.896 54.8346C20.9926 55.4942 21.3227 56.0972 21.8262 56.5341C22.3298 56.9709 22.9734 57.2126 23.64 57.2151H42.3646C43.031 57.2122 43.6742 56.9704 44.1774 56.5336C44.6807 56.0968 45.0105 55.4939 45.1071 54.8346L45.6132 51.2777C45.9396 51.1971 46.2347 51.0211 46.4608 50.7723C46.687 50.5235 46.834 50.213 46.8832 49.8804L50.4401 24.8902C50.474 24.6512 50.4562 24.4077 50.3879 24.1762C50.3196 23.9447 50.2025 23.7305 50.0444 23.5481C49.9208 23.4058 49.7741 23.2855 49.6103 23.1923L50.1441 19.4483H51.0843C51.5914 19.4479 52.0778 19.2466 52.4368 18.8884C52.7959 18.5302 52.9984 18.0443 53 17.5372V14.3653C52.9992 13.857 52.7969 13.3698 52.4376 13.0105C52.0782 12.6511 51.591 12.4488 51.0827 12.448V12.448ZM49.0106 24.6862L45.4537 49.6764C45.4452 49.7339 45.4164 49.7864 45.3725 49.8244C45.3286 49.8624 45.2725 49.8834 45.2144 49.8835H38.3077C38.1221 49.8921 37.9469 49.9718 37.8185 50.1062C37.6902 50.2406 37.6186 50.4193 37.6186 50.6052C37.6186 50.791 37.6902 50.9697 37.8185 51.1041C37.9469 51.2385 38.1221 51.3182 38.3077 51.3268H44.1469L43.676 54.6322C43.6301 54.9479 43.4722 55.2367 43.2313 55.4458C42.9903 55.655 42.6822 55.7707 42.3631 55.7718H23.64C23.3206 55.771 23.0122 55.6556 22.7709 55.4464C22.5296 55.2371 22.3715 54.9482 22.3255 54.6322L21.8546 51.3268H34.9518C35.1374 51.3182 35.3126 51.2385 35.4409 51.1041C35.5693 50.9697 35.6409 50.791 35.6409 50.6052C35.6409 50.4193 35.5693 50.2406 35.4409 50.1062C35.3126 49.9718 35.1374 49.8921 34.9518 49.8835H20.7886C20.7306 49.8834 20.6745 49.8624 20.6305 49.8244C20.5866 49.7864 20.5578 49.7339 20.5494 49.6764L16.9879 24.6862C16.9825 24.6521 16.9848 24.6171 16.9947 24.584C17.0045 24.5508 17.0215 24.5202 17.0446 24.4945C17.0661 24.4702 17.0922 24.4505 17.1215 24.4365C17.1507 24.4225 17.1825 24.4146 17.2149 24.4132H17.244H48.7544H48.7836C48.816 24.4143 48.8479 24.4221 48.8772 24.4361C48.9065 24.4501 48.9326 24.47 48.9538 24.4945C48.9769 24.5202 48.994 24.5508 49.0038 24.584C49.0136 24.6171 49.0159 24.6521 49.0106 24.6862V24.6862ZM17.3176 19.4483H48.6854L48.1854 22.9684H17.8161L17.3176 19.4483ZM51.5567 17.5372C51.5567 17.5993 51.5444 17.6609 51.5206 17.7183C51.4967 17.7757 51.4618 17.8279 51.4178 17.8718C51.3738 17.9156 51.3215 17.9504 51.264 17.9741C51.2065 17.9977 51.1449 18.0098 51.0827 18.0096H14.9203C14.7949 18.0096 14.6746 17.9599 14.5857 17.8713C14.4969 17.7828 14.4468 17.6626 14.4464 17.5372V14.3653C14.4468 14.2397 14.4968 14.1194 14.5856 14.0306C14.6744 13.9418 14.7947 13.8917 14.9203 13.8913H21.3761C21.4737 13.8958 21.5711 13.8805 21.6626 13.8463C21.7541 13.812 21.8377 13.7596 21.9083 13.6921C21.9789 13.6247 22.0352 13.5436 22.0736 13.4538C22.112 13.364 22.1318 13.2673 22.1318 13.1697C22.1318 13.072 22.112 12.9753 22.0736 12.8855C22.0352 12.7957 21.9789 12.7147 21.9083 12.6472C21.8377 12.5798 21.7541 12.5273 21.6626 12.4931C21.5711 12.4589 21.4737 12.4435 21.3761 12.448H18.7855L19.3898 9.51846C19.3941 9.49803 19.4052 9.4797 19.4214 9.46656C19.4377 9.45342 19.4579 9.44629 19.4788 9.44637H46.5243C46.5452 9.44629 46.5654 9.45342 46.5816 9.46656C46.5978 9.4797 46.609 9.49803 46.6133 9.51846L47.2176 12.448H24.7351C24.6375 12.4435 24.5401 12.4589 24.4486 12.4931C24.3571 12.5273 24.2735 12.5798 24.2029 12.6472C24.1323 12.7147 24.076 12.7957 24.0376 12.8855C23.9992 12.9753 23.9794 13.072 23.9794 13.1697C23.9794 13.2673 23.9992 13.364 24.0376 13.4538C24.076 13.5436 24.1323 13.6247 24.2029 13.6921C24.2735 13.7596 24.3571 13.812 24.4486 13.8463C24.5401 13.8805 24.6375 13.8958 24.7351 13.8913H51.0827C51.2084 13.8913 51.329 13.9413 51.4179 14.0301C51.5068 14.119 51.5567 14.2396 51.5567 14.3653V17.5372Z" fill="#FDFFFF"/>
<path d="M51.0827 12.448H48.6916L48.0259 9.22704C47.9552 8.88085 47.7672 8.56968 47.4936 8.34611C47.22 8.12254 46.8776 8.00028 46.5243 8H19.4788C19.1255 8.00028 18.7831 8.12254 18.5095 8.34611C18.2359 8.56968 18.0478 8.88085 17.9772 9.22704L17.313 12.448H14.9203C14.6683 12.4478 14.4188 12.4973 14.1859 12.5935C13.953 12.6897 13.7414 12.8309 13.5631 13.0089C13.3848 13.187 13.2433 13.3984 13.1466 13.6311C13.05 13.8638 13.0002 14.1133 13 14.3653V17.5372C13.0004 18.0451 13.2024 18.5322 13.5615 18.8913C13.9207 19.2505 14.4078 19.4525 14.9157 19.4529H15.8559L16.3882 23.1969C16.225 23.2909 16.0783 23.4112 15.9541 23.5527C15.7962 23.7352 15.6794 23.9495 15.6114 24.181C15.5434 24.4125 15.5258 24.6559 15.5599 24.8948L19.1199 49.8804C19.1695 50.2129 19.3166 50.5232 19.5427 50.7719C19.7688 51.0206 20.0636 51.1967 20.3899 51.2777L20.896 54.8346C20.9926 55.4942 21.3227 56.0972 21.8262 56.5341C22.3298 56.9709 22.9734 57.2126 23.64 57.2151H42.3646C43.031 57.2122 43.6742 56.9704 44.1774 56.5336C44.6807 56.0968 45.0105 55.4939 45.1071 54.8346L45.6132 51.2777C45.9396 51.1971 46.2347 51.0211 46.4608 50.7723C46.687 50.5235 46.834 50.213 46.8832 49.8804L50.4401 24.8902C50.474 24.6512 50.4562 24.4077 50.3879 24.1762C50.3196 23.9447 50.2025 23.7305 50.0444 23.5481C49.9208 23.4058 49.7741 23.2855 49.6103 23.1923L50.1441 19.4483H51.0843C51.5914 19.4479 52.0778 19.2466 52.4368 18.8884C52.7959 18.5302 52.9984 18.0443 53 17.5372V14.3653C52.9992 13.857 52.7969 13.3698 52.4376 13.0105C52.0782 12.6511 51.591 12.4488 51.0827 12.448V12.448ZM49.0106 24.6862L45.4537 49.6764C45.4452 49.7339 45.4164 49.7864 45.3725 49.8244C45.3286 49.8624 45.2725 49.8834 45.2144 49.8835H38.3077C38.1221 49.8921 37.9469 49.9718 37.8185 50.1062C37.6902 50.2406 37.6186 50.4193 37.6186 50.6052C37.6186 50.791 37.6902 50.9697 37.8185 51.1041C37.9469 51.2385 38.1221 51.3182 38.3077 51.3268H44.1469L43.676 54.6322C43.6301 54.9479 43.4722 55.2367 43.2313 55.4458C42.9903 55.655 42.6822 55.7707 42.3631 55.7718H23.64C23.3206 55.771 23.0122 55.6556 22.7709 55.4464C22.5296 55.2371 22.3715 54.9482 22.3255 54.6322L21.8546 51.3268H34.9518C35.1374 51.3182 35.3126 51.2385 35.4409 51.1041C35.5693 50.9697 35.6409 50.791 35.6409 50.6052C35.6409 50.4193 35.5693 50.2406 35.4409 50.1062C35.3126 49.9718 35.1374 49.8921 34.9518 49.8835H20.7886C20.7306 49.8834 20.6745 49.8624 20.6305 49.8244C20.5866 49.7864 20.5578 49.7339 20.5494 49.6764L16.9879 24.6862C16.9825 24.6521 16.9848 24.6171 16.9947 24.584C17.0045 24.5508 17.0215 24.5202 17.0446 24.4945C17.0661 24.4702 17.0922 24.4505 17.1215 24.4365C17.1507 24.4225 17.1825 24.4146 17.2149 24.4132H17.244H48.7544H48.7836C48.816 24.4143 48.8479 24.4221 48.8772 24.4361C48.9065 24.4501 48.9326 24.47 48.9538 24.4945C48.9769 24.5202 48.994 24.5508 49.0038 24.584C49.0136 24.6171 49.0159 24.6521 49.0106 24.6862V24.6862ZM17.3176 19.4483H48.6854L48.1854 22.9684H17.8161L17.3176 19.4483ZM51.5567 17.5372C51.5567 17.5993 51.5444 17.6609 51.5206 17.7183C51.4967 17.7757 51.4618 17.8279 51.4178 17.8718C51.3738 17.9156 51.3215 17.9504 51.264 17.9741C51.2065 17.9977 51.1449 18.0098 51.0827 18.0096H14.9203C14.7949 18.0096 14.6746 17.9599 14.5857 17.8713C14.4969 17.7828 14.4468 17.6626 14.4464 17.5372V14.3653C14.4468 14.2397 14.4968 14.1194 14.5856 14.0306C14.6744 13.9418 14.7947 13.8917 14.9203 13.8913H21.3761C21.4737 13.8958 21.5711 13.8805 21.6626 13.8463C21.7541 13.812 21.8377 13.7596 21.9083 13.6921C21.9789 13.6247 22.0352 13.5436 22.0736 13.4538C22.112 13.364 22.1318 13.2673 22.1318 13.1697C22.1318 13.072 22.112 12.9753 22.0736 12.8855C22.0352 12.7957 21.9789 12.7147 21.9083 12.6472C21.8377 12.5798 21.7541 12.5273 21.6626 12.4931C21.5711 12.4589 21.4737 12.4435 21.3761 12.448H18.7855L19.3898 9.51846C19.3941 9.49803 19.4052 9.4797 19.4214 9.46656C19.4377 9.45342 19.4579 9.44629 19.4788 9.44637H46.5243C46.5452 9.44629 46.5654 9.45342 46.5816 9.46656C46.5978 9.4797 46.609 9.49803 46.6133 9.51846L47.2176 12.448H24.7351C24.6375 12.4435 24.5401 12.4589 24.4486 12.4931C24.3571 12.5273 24.2735 12.5798 24.2029 12.6472C24.1323 12.7147 24.076 12.7957 24.0376 12.8855C23.9992 12.9753 23.9794 13.072 23.9794 13.1697C23.9794 13.2673 23.9992 13.364 24.0376 13.4538C24.076 13.5436 24.1323 13.6247 24.2029 13.6921C24.2735 13.7596 24.3571 13.812 24.4486 13.8463C24.5401 13.8805 24.6375 13.8958 24.7351 13.8913H51.0827C51.2084 13.8913 51.329 13.9413 51.4179 14.0301C51.5068 14.119 51.5567 14.2396 51.5567 14.3653V17.5372Z" stroke="#FDFFFF" stroke-width="0.2" stroke-miterlimit="10" mask="url(#path-1-outside-1)"/>
</svg>
