<svg id="Ebene_1" data-name="Ebene 1" xmlns="http://www.w3.org/2000/svg" xmlns:xlink="http://www.w3.org/1999/xlink" viewBox="0 0 40.2 49.42"><defs><style>.cls-1{fill:#fff;}.cls-2,.cls-4{fill:#364751;}.cls-3{mask:url(#mask);}.cls-4{stroke:#fdffff;stroke-miterlimit:10;stroke-width:0.2px;}</style><mask id="mask" x="-0.9" y="-0.9" width="42" height="51" maskUnits="userSpaceOnUse"><g transform="translate(-12.9 -7.9)"><g id="path-1-outside-1"><rect class="cls-1" x="12" y="7" width="42" height="51"/><path d="M51.08,12.45H48.69L48,9.23A1.56,1.56,0,0,0,46.52,8h-27a1.5,1.5,0,0,0-1,.35,1.52,1.52,0,0,0-.53.88l-.67,3.22H14.92a2,2,0,0,0-.73.14,1.93,1.93,0,0,0-.63.42,1.81,1.81,0,0,0-.41.62,1.85,1.85,0,0,0-.15.74v3.17a1.9,1.9,0,0,0,.56,1.35,1.92,1.92,0,0,0,1.36.56h.94l.53,3.75a1.83,1.83,0,0,0-.44.35,1.93,1.93,0,0,0-.34.63,1.71,1.71,0,0,0,0,.71l3.56,25a1.75,1.75,0,0,0,.42.89,1.7,1.7,0,0,0,.85.51l.51,3.55a2.7,2.7,0,0,0,.93,1.7,2.79,2.79,0,0,0,1.81.69H42.36a2.84,2.84,0,0,0,1.82-.69,2.8,2.8,0,0,0,.93-1.7l.5-3.55a1.7,1.7,0,0,0,.85-.51,1.68,1.68,0,0,0,.42-.89l3.56-25a1.7,1.7,0,0,0,0-.71,1.63,1.63,0,0,0-.35-.63,1.87,1.87,0,0,0-.43-.36l.53-3.74h.94A1.91,1.91,0,0,0,53,17.54V14.37a1.91,1.91,0,0,0-1.92-1.92ZM49,24.69l-3.56,25a.17.17,0,0,1-.08.14.23.23,0,0,1-.16.06h-6.9a.74.74,0,0,0-.69.73.7.7,0,0,0,.2.49.71.71,0,0,0,.49.23h5.84l-.47,3.3a1.37,1.37,0,0,1-.45.82,1.32,1.32,0,0,1-.87.32H23.64a1.31,1.31,0,0,1-1.31-1.14l-.48-3.3H35a.71.71,0,0,0,.49-.23.71.71,0,0,0,0-1,.71.71,0,0,0-.49-.23H20.79a.23.23,0,0,1-.16-.06.25.25,0,0,1-.08-.14L17,24.69a.21.21,0,0,1,0-.11.41.41,0,0,1,.05-.09l.08,0a.16.16,0,0,1,.09,0H48.78a.17.17,0,0,1,.1,0,.18.18,0,0,1,.07,0,.2.2,0,0,1,0,.09.21.21,0,0,1,0,.11ZM17.32,19.45H48.69L48.19,23H17.82Zm34.24-1.91a.58.58,0,0,1,0,.18.4.4,0,0,1-.1.15.39.39,0,0,1-.16.1.37.37,0,0,1-.18,0H14.92a.44.44,0,0,1-.33-.14.47.47,0,0,1-.14-.33V14.37a.48.48,0,0,1,.14-.34.44.44,0,0,1,.33-.14h6.46a.68.68,0,0,0,.28,0,.82.82,0,0,0,.25-.16.63.63,0,0,0,.16-.24.68.68,0,0,0,0-.56.56.56,0,0,0-.16-.24.82.82,0,0,0-.25-.16.68.68,0,0,0-.28,0H18.79l.6-2.93a.09.09,0,0,1,0,0,.07.07,0,0,1,.06,0h27s0,0,.06,0a.05.05,0,0,1,0,0l.61,2.93H24.74a.7.7,0,0,0-.29,0,.82.82,0,0,0-.25.16.71.71,0,0,0-.16.8.78.78,0,0,0,.16.24.82.82,0,0,0,.25.16.7.7,0,0,0,.29,0H51.08a.48.48,0,0,1,.48.48Z"/></g></g></mask></defs><path class="cls-2" d="M51.08,12.45H48.69L48,9.23A1.56,1.56,0,0,0,46.52,8h-27a1.5,1.5,0,0,0-1,.35,1.52,1.52,0,0,0-.53.88l-.67,3.22H14.92a2,2,0,0,0-.73.14,1.93,1.93,0,0,0-.63.42,1.81,1.81,0,0,0-.41.62,1.85,1.85,0,0,0-.15.74v3.17a1.9,1.9,0,0,0,.56,1.35,1.92,1.92,0,0,0,1.36.56h.94l.53,3.75a1.83,1.83,0,0,0-.44.35,1.93,1.93,0,0,0-.34.63,1.71,1.71,0,0,0,0,.71l3.56,25a1.75,1.75,0,0,0,.42.89,1.7,1.7,0,0,0,.85.51l.51,3.55a2.7,2.7,0,0,0,.93,1.7,2.79,2.79,0,0,0,1.81.69H42.36a2.84,2.84,0,0,0,1.82-.69,2.8,2.8,0,0,0,.93-1.7l.5-3.55a1.7,1.7,0,0,0,.85-.51,1.68,1.68,0,0,0,.42-.89l3.56-25a1.7,1.7,0,0,0,0-.71,1.63,1.63,0,0,0-.35-.63,1.87,1.87,0,0,0-.43-.36l.53-3.74h.94A1.91,1.91,0,0,0,53,17.54V14.37a1.91,1.91,0,0,0-1.92-1.92ZM49,24.69l-3.56,25a.17.17,0,0,1-.08.14.23.23,0,0,1-.16.06h-6.9a.74.74,0,0,0-.69.73.7.7,0,0,0,.2.49.71.71,0,0,0,.49.23h5.84l-.47,3.3a1.37,1.37,0,0,1-.45.82,1.32,1.32,0,0,1-.87.32H23.64a1.31,1.31,0,0,1-1.31-1.14l-.48-3.3H35a.71.71,0,0,0,.49-.23.71.71,0,0,0,0-1,.71.71,0,0,0-.49-.23H20.79a.23.23,0,0,1-.16-.06.25.25,0,0,1-.08-.14L17,24.69a.21.21,0,0,1,0-.11.41.41,0,0,1,.05-.09l.08,0a.16.16,0,0,1,.09,0H48.78a.17.17,0,0,1,.1,0,.18.18,0,0,1,.07,0,.2.2,0,0,1,0,.09.21.21,0,0,1,0,.11ZM17.32,19.45H48.69L48.19,23H17.82Zm34.24-1.91a.58.58,0,0,1,0,.18.4.4,0,0,1-.1.15.39.39,0,0,1-.16.1.37.37,0,0,1-.18,0H14.92a.44.44,0,0,1-.33-.14.47.47,0,0,1-.14-.33V14.37a.48.48,0,0,1,.14-.34.44.44,0,0,1,.33-.14h6.46a.68.68,0,0,0,.28,0,.82.82,0,0,0,.25-.16.63.63,0,0,0,.16-.24.68.68,0,0,0,0-.56.56.56,0,0,0-.16-.24.82.82,0,0,0-.25-.16.68.68,0,0,0-.28,0H18.79l.6-2.93a.09.09,0,0,1,0,0,.07.07,0,0,1,.06,0h27s0,0,.06,0a.05.05,0,0,1,0,0l.61,2.93H24.74a.7.7,0,0,0-.29,0,.82.82,0,0,0-.25.16.71.71,0,0,0-.16.8.78.78,0,0,0,.16.24.82.82,0,0,0,.25.16.7.7,0,0,0,.29,0H51.08a.48.48,0,0,1,.48.48Z" transform="translate(-12.9 -7.9)"/><g class="cls-3"><path class="cls-4" d="M51.08,12.45H48.69L48,9.23A1.56,1.56,0,0,0,46.52,8h-27a1.5,1.5,0,0,0-1,.35,1.52,1.52,0,0,0-.53.88l-.67,3.22H14.92a2,2,0,0,0-.73.14,1.93,1.93,0,0,0-.63.42,1.81,1.81,0,0,0-.41.62,1.85,1.85,0,0,0-.15.74v3.17a1.9,1.9,0,0,0,.56,1.35,1.92,1.92,0,0,0,1.36.56h.94l.53,3.75a1.83,1.83,0,0,0-.44.35,1.93,1.93,0,0,0-.34.63,1.71,1.71,0,0,0,0,.71l3.56,25a1.75,1.75,0,0,0,.42.89,1.7,1.7,0,0,0,.85.51l.51,3.55a2.7,2.7,0,0,0,.93,1.7,2.79,2.79,0,0,0,1.81.69H42.36a2.84,2.84,0,0,0,1.82-.69,2.8,2.8,0,0,0,.93-1.7l.5-3.55a1.7,1.7,0,0,0,.85-.51,1.68,1.68,0,0,0,.42-.89l3.56-25a1.7,1.7,0,0,0,0-.71,1.63,1.63,0,0,0-.35-.63,1.87,1.87,0,0,0-.43-.36l.53-3.74h.94A1.91,1.91,0,0,0,53,17.54V14.37a1.91,1.91,0,0,0-1.92-1.92ZM49,24.69l-3.56,25a.17.17,0,0,1-.08.14.23.23,0,0,1-.16.06h-6.9a.74.74,0,0,0-.69.73.7.7,0,0,0,.2.49.71.71,0,0,0,.49.23h5.84l-.47,3.3a1.37,1.37,0,0,1-.45.82,1.32,1.32,0,0,1-.87.32H23.64a1.31,1.31,0,0,1-1.31-1.14l-.48-3.3H35a.71.71,0,0,0,.49-.23.71.71,0,0,0,0-1,.71.71,0,0,0-.49-.23H20.79a.23.23,0,0,1-.16-.06.25.25,0,0,1-.08-.14L17,24.69a.21.21,0,0,1,0-.11.41.41,0,0,1,.05-.09l.08,0a.16.16,0,0,1,.09,0H48.78a.17.17,0,0,1,.1,0,.18.18,0,0,1,.07,0,.2.2,0,0,1,0,.09.21.21,0,0,1,0,.11ZM17.32,19.45H48.69L48.19,23H17.82Zm34.24-1.91a.58.58,0,0,1,0,.18.4.4,0,0,1-.1.15.39.39,0,0,1-.16.1.37.37,0,0,1-.18,0H14.92a.44.44,0,0,1-.33-.14.47.47,0,0,1-.14-.33V14.37a.48.48,0,0,1,.14-.34.44.44,0,0,1,.33-.14h6.46a.68.68,0,0,0,.28,0,.82.82,0,0,0,.25-.16.63.63,0,0,0,.16-.24.68.68,0,0,0,0-.56.56.56,0,0,0-.16-.24.82.82,0,0,0-.25-.16.68.68,0,0,0-.28,0H18.79l.6-2.93a.09.09,0,0,1,0,0,.07.07,0,0,1,.06,0h27s0,0,.06,0a.05.05,0,0,1,0,0l.61,2.93H24.74a.7.7,0,0,0-.29,0,.82.82,0,0,0-.25.16.71.71,0,0,0-.16.8.78.78,0,0,0,.16.24.82.82,0,0,0,.25.16.7.7,0,0,0,.29,0H51.08a.48.48,0,0,1,.48.48Z" transform="translate(-12.9 -7.9)"/></g></svg>