<svg width="66" height="66" viewBox="0 0 66 66" fill="none" xmlns="http://www.w3.org/2000/svg">
<mask id="path-1-outside-1" maskUnits="userSpaceOnUse" x="12" y="11" width="42" height="45" fill="black">
<rect fill="white" x="12" y="11" width="42" height="45"/>
<path d="M51.0827 16.448H48.6916L48.0259 13.227C47.9552 12.8809 47.7672 12.5697 47.4936 12.3461C47.22 12.1225 46.8776 12.0003 46.5243 12H19.4788C19.1255 12.0003 18.7831 12.1225 18.5095 12.3461C18.2359 12.5697 18.0478 12.8809 17.9772 13.227L17.313 16.448H14.9203C14.6683 16.4478 14.4188 16.4973 14.1859 16.5935C13.953 16.6897 13.7414 16.8309 13.5631 17.0089C13.3848 17.187 13.2433 17.3984 13.1466 17.6311C13.05 17.8638 13.0002 18.1133 13 18.3653V21.5372C13.0004 22.0451 13.2024 22.5322 13.5615 22.8913C13.9207 23.2505 14.4078 23.4525 14.9157 23.4529H15.8559L16.3882 27.1969C16.225 27.2909 16.0783 27.4112 15.9541 27.5527C15.7962 27.7352 15.6794 27.9495 15.6114 28.181C15.5434 28.4125 15.5258 28.6559 15.5599 28.8948L19.1691 47.6502C19.2187 47.9827 19.3658 48.2929 19.5919 48.5417C19.818 48.7904 20.1128 48.9665 20.4391 49.0475L20.9452 52.6044C21.0418 53.264 21.3719 53.867 21.8754 54.3038C22.379 54.7407 23.0226 54.9823 23.6892 54.9848H42.4138C43.0802 54.982 43.7234 54.7402 44.2266 54.3033C44.7299 53.8665 45.0597 53.2637 45.1563 52.6044L45.6624 49.0475C45.9888 48.9668 46.2839 48.7909 46.51 48.5421C46.7362 48.2933 46.8832 47.9828 46.9324 47.6502L50.4401 28.8902C50.474 28.6512 50.4562 28.4077 50.3879 28.1762C50.3196 27.9447 50.2025 27.7305 50.0444 27.5481C49.9208 27.4058 49.7741 27.2855 49.6103 27.1923L50.1441 23.4483H51.0843C51.5914 23.4479 52.0778 23.2466 52.4368 22.8884C52.7959 22.5302 52.9984 22.0443 53 21.5372V18.3653C52.9992 17.857 52.7969 17.3698 52.4376 17.0105C52.0782 16.6511 51.591 16.4488 51.0827 16.448ZM49.0106 28.6862L45.5029 47.4462C45.4945 47.5037 45.4656 47.5562 45.4217 47.5942C45.3778 47.6322 45.3217 47.6532 45.2636 47.6533H38.3569C38.1713 47.6618 37.9961 47.7416 37.8677 47.876C37.7394 48.0104 37.6678 48.1891 37.6678 48.3749C37.6678 48.5608 37.7394 48.7395 37.8677 48.8739C37.9961 49.0083 38.1713 49.088 38.3569 49.0966H44.1961L43.7252 52.4019C43.6793 52.7177 43.5214 53.0065 43.2805 53.2156C43.0395 53.4248 42.7314 53.5404 42.4123 53.5415H23.6892C23.3698 53.5408 23.0614 53.4253 22.8201 53.2161C22.5788 53.0069 22.4207 52.718 22.3747 52.4019L21.9038 49.0966H35.001C35.1866 49.088 35.3618 49.0083 35.4902 48.8739C35.6185 48.7395 35.6901 48.5608 35.6901 48.3749C35.6901 48.1891 35.6185 48.0104 35.4902 47.876C35.3618 47.7416 35.1866 47.6618 35.001 47.6533H20.8379C20.7798 47.6532 20.7237 47.6322 20.6798 47.5942C20.6358 47.5562 20.607 47.5037 20.5986 47.4462L16.9879 28.6862C16.9825 28.6521 16.9848 28.6171 16.9947 28.584C17.0045 28.5508 17.0215 28.5202 17.0446 28.4945C17.0661 28.4702 17.0922 28.4505 17.1215 28.4365C17.1507 28.4225 17.1825 28.4146 17.2149 28.4132H17.244H48.7544H48.7836C48.816 28.4143 48.8479 28.4221 48.8772 28.4361C48.9065 28.4501 48.9326 28.47 48.9538 28.4945C48.9769 28.5202 48.994 28.5508 49.0038 28.584C49.0136 28.6171 49.0159 28.6521 49.0106 28.6862ZM17.3176 23.4483H48.6854L48.1854 26.9684H17.8161L17.3176 23.4483ZM51.5567 21.5372C51.5567 21.5993 51.5444 21.6609 51.5206 21.7183C51.4967 21.7757 51.4618 21.8279 51.4178 21.8718C51.3738 21.9156 51.3215 21.9504 51.264 21.9741C51.2065 21.9977 51.1449 22.0098 51.0827 22.0096H14.9203C14.7949 22.0096 14.6746 21.9599 14.5857 21.8713C14.4969 21.7828 14.4468 21.6626 14.4464 21.5372V18.3653C14.4468 18.2397 14.4968 18.1194 14.5856 18.0306C14.6744 17.9418 14.7947 17.8917 14.9203 17.8913H21.3761C21.4737 17.8958 21.5711 17.8805 21.6626 17.8463C21.7541 17.812 21.8377 17.7596 21.9083 17.6921C21.9789 17.6247 22.0352 17.5436 22.0736 17.4538C22.112 17.364 22.1318 17.2673 22.1318 17.1697C22.1318 17.072 22.112 16.9753 22.0736 16.8855C22.0352 16.7957 21.9789 16.7147 21.9083 16.6472C21.8377 16.5798 21.7541 16.5273 21.6626 16.4931C21.5711 16.4589 21.4737 16.4435 21.3761 16.448H18.7855L19.3898 13.5185C19.3941 13.498 19.4052 13.4797 19.4214 13.4666C19.4377 13.4534 19.4579 13.4463 19.4788 13.4464H46.5243C46.5452 13.4463 46.5654 13.4534 46.5816 13.4666C46.5978 13.4797 46.609 13.498 46.6132 13.5185L47.2176 16.448H24.7351C24.6375 16.4435 24.5401 16.4589 24.4486 16.4931C24.3571 16.5273 24.2735 16.5798 24.2029 16.6472C24.1323 16.7147 24.076 16.7957 24.0376 16.8855C23.9992 16.9753 23.9794 17.072 23.9794 17.1697C23.9794 17.2673 23.9992 17.364 24.0376 17.4538C24.076 17.5436 24.1323 17.6247 24.2029 17.6921C24.2735 17.7596 24.3571 17.812 24.4486 17.8463C24.5401 17.8805 24.6375 17.8958 24.7351 17.8913H51.0827C51.2084 17.8913 51.329 17.9413 51.4179 18.0301C51.5068 18.119 51.5567 18.2396 51.5567 18.3653V21.5372Z"/>
</mask>
<path d="M51.0827 16.448H48.6916L48.0259 13.227C47.9552 12.8809 47.7672 12.5697 47.4936 12.3461C47.22 12.1225 46.8776 12.0003 46.5243 12H19.4788C19.1255 12.0003 18.7831 12.1225 18.5095 12.3461C18.2359 12.5697 18.0478 12.8809 17.9772 13.227L17.313 16.448H14.9203C14.6683 16.4478 14.4188 16.4973 14.1859 16.5935C13.953 16.6897 13.7414 16.8309 13.5631 17.0089C13.3848 17.187 13.2433 17.3984 13.1466 17.6311C13.05 17.8638 13.0002 18.1133 13 18.3653V21.5372C13.0004 22.0451 13.2024 22.5322 13.5615 22.8913C13.9207 23.2505 14.4078 23.4525 14.9157 23.4529H15.8559L16.3882 27.1969C16.225 27.2909 16.0783 27.4112 15.9541 27.5527C15.7962 27.7352 15.6794 27.9495 15.6114 28.181C15.5434 28.4125 15.5258 28.6559 15.5599 28.8948L19.1691 47.6502C19.2187 47.9827 19.3658 48.2929 19.5919 48.5417C19.818 48.7904 20.1128 48.9665 20.4391 49.0475L20.9452 52.6044C21.0418 53.264 21.3719 53.867 21.8754 54.3038C22.379 54.7407 23.0226 54.9823 23.6892 54.9848H42.4138C43.0802 54.982 43.7234 54.7402 44.2266 54.3033C44.7299 53.8665 45.0597 53.2637 45.1563 52.6044L45.6624 49.0475C45.9888 48.9668 46.2839 48.7909 46.51 48.5421C46.7362 48.2933 46.8832 47.9828 46.9324 47.6502L50.4401 28.8902C50.474 28.6512 50.4562 28.4077 50.3879 28.1762C50.3196 27.9447 50.2025 27.7305 50.0444 27.5481C49.9208 27.4058 49.7741 27.2855 49.6103 27.1923L50.1441 23.4483H51.0843C51.5914 23.4479 52.0778 23.2466 52.4368 22.8884C52.7959 22.5302 52.9984 22.0443 53 21.5372V18.3653C52.9992 17.857 52.7969 17.3698 52.4376 17.0105C52.0782 16.6511 51.591 16.4488 51.0827 16.448ZM49.0106 28.6862L45.5029 47.4462C45.4945 47.5037 45.4656 47.5562 45.4217 47.5942C45.3778 47.6322 45.3217 47.6532 45.2636 47.6533H38.3569C38.1713 47.6618 37.9961 47.7416 37.8677 47.876C37.7394 48.0104 37.6678 48.1891 37.6678 48.3749C37.6678 48.5608 37.7394 48.7395 37.8677 48.8739C37.9961 49.0083 38.1713 49.088 38.3569 49.0966H44.1961L43.7252 52.4019C43.6793 52.7177 43.5214 53.0065 43.2805 53.2156C43.0395 53.4248 42.7314 53.5404 42.4123 53.5415H23.6892C23.3698 53.5408 23.0614 53.4253 22.8201 53.2161C22.5788 53.0069 22.4207 52.718 22.3747 52.4019L21.9038 49.0966H35.001C35.1866 49.088 35.3618 49.0083 35.4902 48.8739C35.6185 48.7395 35.6901 48.5608 35.6901 48.3749C35.6901 48.1891 35.6185 48.0104 35.4902 47.876C35.3618 47.7416 35.1866 47.6618 35.001 47.6533H20.8379C20.7798 47.6532 20.7237 47.6322 20.6798 47.5942C20.6358 47.5562 20.607 47.5037 20.5986 47.4462L16.9879 28.6862C16.9825 28.6521 16.9848 28.6171 16.9947 28.584C17.0045 28.5508 17.0215 28.5202 17.0446 28.4945C17.0661 28.4702 17.0922 28.4505 17.1215 28.4365C17.1507 28.4225 17.1825 28.4146 17.2149 28.4132H17.244H48.7544H48.7836C48.816 28.4143 48.8479 28.4221 48.8772 28.4361C48.9065 28.4501 48.9326 28.47 48.9538 28.4945C48.9769 28.5202 48.994 28.5508 49.0038 28.584C49.0136 28.6171 49.0159 28.6521 49.0106 28.6862ZM17.3176 23.4483H48.6854L48.1854 26.9684H17.8161L17.3176 23.4483ZM51.5567 21.5372C51.5567 21.5993 51.5444 21.6609 51.5206 21.7183C51.4967 21.7757 51.4618 21.8279 51.4178 21.8718C51.3738 21.9156 51.3215 21.9504 51.264 21.9741C51.2065 21.9977 51.1449 22.0098 51.0827 22.0096H14.9203C14.7949 22.0096 14.6746 21.9599 14.5857 21.8713C14.4969 21.7828 14.4468 21.6626 14.4464 21.5372V18.3653C14.4468 18.2397 14.4968 18.1194 14.5856 18.0306C14.6744 17.9418 14.7947 17.8917 14.9203 17.8913H21.3761C21.4737 17.8958 21.5711 17.8805 21.6626 17.8463C21.7541 17.812 21.8377 17.7596 21.9083 17.6921C21.9789 17.6247 22.0352 17.5436 22.0736 17.4538C22.112 17.364 22.1318 17.2673 22.1318 17.1697C22.1318 17.072 22.112 16.9753 22.0736 16.8855C22.0352 16.7957 21.9789 16.7147 21.9083 16.6472C21.8377 16.5798 21.7541 16.5273 21.6626 16.4931C21.5711 16.4589 21.4737 16.4435 21.3761 16.448H18.7855L19.3898 13.5185C19.3941 13.498 19.4052 13.4797 19.4214 13.4666C19.4377 13.4534 19.4579 13.4463 19.4788 13.4464H46.5243C46.5452 13.4463 46.5654 13.4534 46.5816 13.4666C46.5978 13.4797 46.609 13.498 46.6132 13.5185L47.2176 16.448H24.7351C24.6375 16.4435 24.5401 16.4589 24.4486 16.4931C24.3571 16.5273 24.2735 16.5798 24.2029 16.6472C24.1323 16.7147 24.076 16.7957 24.0376 16.8855C23.9992 16.9753 23.9794 17.072 23.9794 17.1697C23.9794 17.2673 23.9992 17.364 24.0376 17.4538C24.076 17.5436 24.1323 17.6247 24.2029 17.6921C24.2735 17.7596 24.3571 17.812 24.4486 17.8463C24.5401 17.8805 24.6375 17.8958 24.7351 17.8913H51.0827C51.2084 17.8913 51.329 17.9413 51.4179 18.0301C51.5068 18.119 51.5567 18.2396 51.5567 18.3653V21.5372Z" fill="#FDFFFF"/>
<path d="M51.0827 16.448H48.6916L48.0259 13.227C47.9552 12.8809 47.7672 12.5697 47.4936 12.3461C47.22 12.1225 46.8776 12.0003 46.5243 12H19.4788C19.1255 12.0003 18.7831 12.1225 18.5095 12.3461C18.2359 12.5697 18.0478 12.8809 17.9772 13.227L17.313 16.448H14.9203C14.6683 16.4478 14.4188 16.4973 14.1859 16.5935C13.953 16.6897 13.7414 16.8309 13.5631 17.0089C13.3848 17.187 13.2433 17.3984 13.1466 17.6311C13.05 17.8638 13.0002 18.1133 13 18.3653V21.5372C13.0004 22.0451 13.2024 22.5322 13.5615 22.8913C13.9207 23.2505 14.4078 23.4525 14.9157 23.4529H15.8559L16.3882 27.1969C16.225 27.2909 16.0783 27.4112 15.9541 27.5527C15.7962 27.7352 15.6794 27.9495 15.6114 28.181C15.5434 28.4125 15.5258 28.6559 15.5599 28.8948L19.1691 47.6502C19.2187 47.9827 19.3658 48.2929 19.5919 48.5417C19.818 48.7904 20.1128 48.9665 20.4391 49.0475L20.9452 52.6044C21.0418 53.264 21.3719 53.867 21.8754 54.3038C22.379 54.7407 23.0226 54.9823 23.6892 54.9848H42.4138C43.0802 54.982 43.7234 54.7402 44.2266 54.3033C44.7299 53.8665 45.0597 53.2637 45.1563 52.6044L45.6624 49.0475C45.9888 48.9668 46.2839 48.7909 46.51 48.5421C46.7362 48.2933 46.8832 47.9828 46.9324 47.6502L50.4401 28.8902C50.474 28.6512 50.4562 28.4077 50.3879 28.1762C50.3196 27.9447 50.2025 27.7305 50.0444 27.5481C49.9208 27.4058 49.7741 27.2855 49.6103 27.1923L50.1441 23.4483H51.0843C51.5914 23.4479 52.0778 23.2466 52.4368 22.8884C52.7959 22.5302 52.9984 22.0443 53 21.5372V18.3653C52.9992 17.857 52.7969 17.3698 52.4376 17.0105C52.0782 16.6511 51.591 16.4488 51.0827 16.448ZM49.0106 28.6862L45.5029 47.4462C45.4945 47.5037 45.4656 47.5562 45.4217 47.5942C45.3778 47.6322 45.3217 47.6532 45.2636 47.6533H38.3569C38.1713 47.6618 37.9961 47.7416 37.8677 47.876C37.7394 48.0104 37.6678 48.1891 37.6678 48.3749C37.6678 48.5608 37.7394 48.7395 37.8677 48.8739C37.9961 49.0083 38.1713 49.088 38.3569 49.0966H44.1961L43.7252 52.4019C43.6793 52.7177 43.5214 53.0065 43.2805 53.2156C43.0395 53.4248 42.7314 53.5404 42.4123 53.5415H23.6892C23.3698 53.5408 23.0614 53.4253 22.8201 53.2161C22.5788 53.0069 22.4207 52.718 22.3747 52.4019L21.9038 49.0966H35.001C35.1866 49.088 35.3618 49.0083 35.4902 48.8739C35.6185 48.7395 35.6901 48.5608 35.6901 48.3749C35.6901 48.1891 35.6185 48.0104 35.4902 47.876C35.3618 47.7416 35.1866 47.6618 35.001 47.6533H20.8379C20.7798 47.6532 20.7237 47.6322 20.6798 47.5942C20.6358 47.5562 20.607 47.5037 20.5986 47.4462L16.9879 28.6862C16.9825 28.6521 16.9848 28.6171 16.9947 28.584C17.0045 28.5508 17.0215 28.5202 17.0446 28.4945C17.0661 28.4702 17.0922 28.4505 17.1215 28.4365C17.1507 28.4225 17.1825 28.4146 17.2149 28.4132H17.244H48.7544H48.7836C48.816 28.4143 48.8479 28.4221 48.8772 28.4361C48.9065 28.4501 48.9326 28.47 48.9538 28.4945C48.9769 28.5202 48.994 28.5508 49.0038 28.584C49.0136 28.6171 49.0159 28.6521 49.0106 28.6862ZM17.3176 23.4483H48.6854L48.1854 26.9684H17.8161L17.3176 23.4483ZM51.5567 21.5372C51.5567 21.5993 51.5444 21.6609 51.5206 21.7183C51.4967 21.7757 51.4618 21.8279 51.4178 21.8718C51.3738 21.9156 51.3215 21.9504 51.264 21.9741C51.2065 21.9977 51.1449 22.0098 51.0827 22.0096H14.9203C14.7949 22.0096 14.6746 21.9599 14.5857 21.8713C14.4969 21.7828 14.4468 21.6626 14.4464 21.5372V18.3653C14.4468 18.2397 14.4968 18.1194 14.5856 18.0306C14.6744 17.9418 14.7947 17.8917 14.9203 17.8913H21.3761C21.4737 17.8958 21.5711 17.8805 21.6626 17.8463C21.7541 17.812 21.8377 17.7596 21.9083 17.6921C21.9789 17.6247 22.0352 17.5436 22.0736 17.4538C22.112 17.364 22.1318 17.2673 22.1318 17.1697C22.1318 17.072 22.112 16.9753 22.0736 16.8855C22.0352 16.7957 21.9789 16.7147 21.9083 16.6472C21.8377 16.5798 21.7541 16.5273 21.6626 16.4931C21.5711 16.4589 21.4737 16.4435 21.3761 16.448H18.7855L19.3898 13.5185C19.3941 13.498 19.4052 13.4797 19.4214 13.4666C19.4377 13.4534 19.4579 13.4463 19.4788 13.4464H46.5243C46.5452 13.4463 46.5654 13.4534 46.5816 13.4666C46.5978 13.4797 46.609 13.498 46.6132 13.5185L47.2176 16.448H24.7351C24.6375 16.4435 24.5401 16.4589 24.4486 16.4931C24.3571 16.5273 24.2735 16.5798 24.2029 16.6472C24.1323 16.7147 24.076 16.7957 24.0376 16.8855C23.9992 16.9753 23.9794 17.072 23.9794 17.1697C23.9794 17.2673 23.9992 17.364 24.0376 17.4538C24.076 17.5436 24.1323 17.6247 24.2029 17.6921C24.2735 17.7596 24.3571 17.812 24.4486 17.8463C24.5401 17.8805 24.6375 17.8958 24.7351 17.8913H51.0827C51.2084 17.8913 51.329 17.9413 51.4179 18.0301C51.5068 18.119 51.5567 18.2396 51.5567 18.3653V21.5372Z" stroke="#FDFFFF" stroke-width="0.2" stroke-miterlimit="10" mask="url(#path-1-outside-1)"/>
</svg>
