<svg id="Ebene_1" data-name="Ebene 1" xmlns="http://www.w3.org/2000/svg" xmlns:xlink="http://www.w3.org/1999/xlink" viewBox="0 0 40.2 35.56"><defs><style>.cls-1{fill:#fff;}.cls-2,.cls-4{fill:#364751;}.cls-3{mask:url(#mask);}.cls-4{stroke:#fdffff;stroke-miterlimit:10;stroke-width:0.2px;}</style><mask id="mask" x="-0.9" y="-0.9" width="42" height="37" maskUnits="userSpaceOnUse"><g transform="translate(-12.9 -14.9)"><g id="path-1-outside-1"><rect class="cls-1" x="12" y="14" width="42" height="37"/><path d="M51.08,19.45H48.69L48,16.23A1.56,1.56,0,0,0,46.52,15h-27a1.5,1.5,0,0,0-1,.35,1.52,1.52,0,0,0-.53.88l-.67,3.22H14.92a2,2,0,0,0-.73.14,1.93,1.93,0,0,0-.63.42,1.81,1.81,0,0,0-.41.62,1.85,1.85,0,0,0-.15.74v3.17a1.9,1.9,0,0,0,.56,1.35,1.92,1.92,0,0,0,1.36.56h.94l.53,3.75a1.83,1.83,0,0,0-.44.35,1.93,1.93,0,0,0-.34.63,1.71,1.71,0,0,0,0,.71L18.08,43a1.6,1.6,0,0,0,.42.9,1.71,1.71,0,0,0,.85.5l.5,3.56a2.78,2.78,0,0,0,2.75,2.38H43.39A2.78,2.78,0,0,0,46.13,48l.5-3.56a1.64,1.64,0,0,0,.85-.5,1.67,1.67,0,0,0,.42-.9l2.54-11.13a1.7,1.7,0,0,0,0-.71,1.63,1.63,0,0,0-.35-.63,1.87,1.87,0,0,0-.43-.36l.53-3.74h.94A1.91,1.91,0,0,0,53,24.54V21.37a1.91,1.91,0,0,0-1.92-1.92ZM49,31.69,46.47,42.82a.19.19,0,0,1-.08.15.22.22,0,0,1-.15.06H40.13a.74.74,0,0,0-.49.22.7.7,0,0,0-.2.5.72.72,0,0,0,.69.72h5l-.47,3.31a1.35,1.35,0,0,1-1.32,1.14H22.6a1.35,1.35,0,0,1-1.32-1.14l-.47-3.31H35a.72.72,0,0,0,.69-.72.7.7,0,0,0-.2-.5A.74.74,0,0,0,35,43H19.74a.22.22,0,0,1-.15-.06.24.24,0,0,1-.09-.15L17,31.69a.21.21,0,0,1,0-.11.41.41,0,0,1,.05-.09l.08,0a.16.16,0,0,1,.09,0H48.78a.17.17,0,0,1,.1,0,.18.18,0,0,1,.07,0,.2.2,0,0,1,0,.09A.21.21,0,0,1,49,31.69ZM17.32,26.45H48.69L48.19,30H17.82Zm34.24-1.91a.58.58,0,0,1,0,.18.4.4,0,0,1-.1.15.39.39,0,0,1-.16.1.37.37,0,0,1-.18,0H14.92a.44.44,0,0,1-.33-.14.47.47,0,0,1-.14-.33V21.37a.48.48,0,0,1,.14-.34.44.44,0,0,1,.33-.14h6.46a.68.68,0,0,0,.28,0,.82.82,0,0,0,.25-.16.63.63,0,0,0,.16-.24.68.68,0,0,0,0-.56.56.56,0,0,0-.16-.24.82.82,0,0,0-.25-.16.68.68,0,0,0-.28,0H18.79l.6-2.93a.09.09,0,0,1,0-.05.07.07,0,0,1,.06,0h27s0,0,.06,0a.05.05,0,0,1,0,.05l.61,2.93H24.74a.7.7,0,0,0-.29,0,.82.82,0,0,0-.25.16.71.71,0,0,0-.16.8.78.78,0,0,0,.16.24.82.82,0,0,0,.25.16.7.7,0,0,0,.29,0H51.08a.48.48,0,0,1,.48.48Z"/></g></g></mask></defs><path class="cls-2" d="M51.08,19.45H48.69L48,16.23A1.56,1.56,0,0,0,46.52,15h-27a1.5,1.5,0,0,0-1,.35,1.52,1.52,0,0,0-.53.88l-.67,3.22H14.92a2,2,0,0,0-.73.14,1.93,1.93,0,0,0-.63.42,1.81,1.81,0,0,0-.41.62,1.85,1.85,0,0,0-.15.74v3.17a1.9,1.9,0,0,0,.56,1.35,1.92,1.92,0,0,0,1.36.56h.94l.53,3.75a1.83,1.83,0,0,0-.44.35,1.93,1.93,0,0,0-.34.63,1.71,1.71,0,0,0,0,.71L18.08,43a1.6,1.6,0,0,0,.42.9,1.71,1.71,0,0,0,.85.5l.5,3.56a2.78,2.78,0,0,0,2.75,2.38H43.39A2.78,2.78,0,0,0,46.13,48l.5-3.56a1.64,1.64,0,0,0,.85-.5,1.67,1.67,0,0,0,.42-.9l2.54-11.13a1.7,1.7,0,0,0,0-.71,1.63,1.63,0,0,0-.35-.63,1.87,1.87,0,0,0-.43-.36l.53-3.74h.94A1.91,1.91,0,0,0,53,24.54V21.37a1.91,1.91,0,0,0-1.92-1.92ZM49,31.69,46.47,42.82a.19.19,0,0,1-.08.15.22.22,0,0,1-.15.06H40.13a.74.74,0,0,0-.49.22.7.7,0,0,0-.2.5.72.72,0,0,0,.69.72h5l-.47,3.31a1.35,1.35,0,0,1-1.32,1.14H22.6a1.35,1.35,0,0,1-1.32-1.14l-.47-3.31H35a.72.72,0,0,0,.69-.72.7.7,0,0,0-.2-.5A.74.74,0,0,0,35,43H19.74a.22.22,0,0,1-.15-.06.24.24,0,0,1-.09-.15L17,31.69a.21.21,0,0,1,0-.11.41.41,0,0,1,.05-.09l.08,0a.16.16,0,0,1,.09,0H48.78a.17.17,0,0,1,.1,0,.18.18,0,0,1,.07,0,.2.2,0,0,1,0,.09A.21.21,0,0,1,49,31.69ZM17.32,26.45H48.69L48.19,30H17.82Zm34.24-1.91a.58.58,0,0,1,0,.18.4.4,0,0,1-.1.15.39.39,0,0,1-.16.1.37.37,0,0,1-.18,0H14.92a.44.44,0,0,1-.33-.14.47.47,0,0,1-.14-.33V21.37a.48.48,0,0,1,.14-.34.44.44,0,0,1,.33-.14h6.46a.68.68,0,0,0,.28,0,.82.82,0,0,0,.25-.16.63.63,0,0,0,.16-.24.68.68,0,0,0,0-.56.56.56,0,0,0-.16-.24.82.82,0,0,0-.25-.16.68.68,0,0,0-.28,0H18.79l.6-2.93a.09.09,0,0,1,0-.05.07.07,0,0,1,.06,0h27s0,0,.06,0a.05.05,0,0,1,0,.05l.61,2.93H24.74a.7.7,0,0,0-.29,0,.82.82,0,0,0-.25.16.71.71,0,0,0-.16.8.78.78,0,0,0,.16.24.82.82,0,0,0,.25.16.7.7,0,0,0,.29,0H51.08a.48.48,0,0,1,.48.48Z" transform="translate(-12.9 -14.9)"/><g class="cls-3"><path class="cls-4" d="M51.08,19.45H48.69L48,16.23A1.56,1.56,0,0,0,46.52,15h-27a1.5,1.5,0,0,0-1,.35,1.52,1.52,0,0,0-.53.88l-.67,3.22H14.92a2,2,0,0,0-.73.14,1.93,1.93,0,0,0-.63.42,1.81,1.81,0,0,0-.41.62,1.85,1.85,0,0,0-.15.74v3.17a1.9,1.9,0,0,0,.56,1.35,1.92,1.92,0,0,0,1.36.56h.94l.53,3.75a1.83,1.83,0,0,0-.44.35,1.93,1.93,0,0,0-.34.63,1.71,1.71,0,0,0,0,.71L18.08,43a1.6,1.6,0,0,0,.42.9,1.71,1.71,0,0,0,.85.5l.5,3.56a2.78,2.78,0,0,0,2.75,2.38H43.39A2.78,2.78,0,0,0,46.13,48l.5-3.56a1.64,1.64,0,0,0,.85-.5,1.67,1.67,0,0,0,.42-.9l2.54-11.13a1.7,1.7,0,0,0,0-.71,1.63,1.63,0,0,0-.35-.63,1.87,1.87,0,0,0-.43-.36l.53-3.74h.94A1.91,1.91,0,0,0,53,24.54V21.37a1.91,1.91,0,0,0-1.92-1.92ZM49,31.69,46.47,42.82a.19.19,0,0,1-.08.15.22.22,0,0,1-.15.06H40.13a.74.74,0,0,0-.49.22.7.7,0,0,0-.2.5.72.72,0,0,0,.69.72h5l-.47,3.31a1.35,1.35,0,0,1-1.32,1.14H22.6a1.35,1.35,0,0,1-1.32-1.14l-.47-3.31H35a.72.72,0,0,0,.69-.72.7.7,0,0,0-.2-.5A.74.74,0,0,0,35,43H19.74a.22.22,0,0,1-.15-.06.24.24,0,0,1-.09-.15L17,31.69a.21.21,0,0,1,0-.11.41.41,0,0,1,.05-.09l.08,0a.16.16,0,0,1,.09,0H48.78a.17.17,0,0,1,.1,0,.18.18,0,0,1,.07,0,.2.2,0,0,1,0,.09A.21.21,0,0,1,49,31.69ZM17.32,26.45H48.69L48.19,30H17.82Zm34.24-1.91a.58.58,0,0,1,0,.18.4.4,0,0,1-.1.15.39.39,0,0,1-.16.1.37.37,0,0,1-.18,0H14.92a.44.44,0,0,1-.33-.14.47.47,0,0,1-.14-.33V21.37a.48.48,0,0,1,.14-.34.44.44,0,0,1,.33-.14h6.46a.68.68,0,0,0,.28,0,.82.82,0,0,0,.25-.16.63.63,0,0,0,.16-.24.68.68,0,0,0,0-.56.56.56,0,0,0-.16-.24.82.82,0,0,0-.25-.16.68.68,0,0,0-.28,0H18.79l.6-2.93a.09.09,0,0,1,0-.05.07.07,0,0,1,.06,0h27s0,0,.06,0a.05.05,0,0,1,0,.05l.61,2.93H24.74a.7.7,0,0,0-.29,0,.82.82,0,0,0-.25.16.71.71,0,0,0-.16.8.78.78,0,0,0,.16.24.82.82,0,0,0,.25.16.7.7,0,0,0,.29,0H51.08a.48.48,0,0,1,.48.48Z" transform="translate(-12.9 -14.9)"/></g></svg>