<svg width="66" height="66" viewBox="0 0 66 66" fill="none" xmlns="http://www.w3.org/2000/svg">
<mask id="path-1-outside-1" maskUnits="userSpaceOnUse" x="12" y="14" width="42" height="37" fill="black">
<rect fill="white" x="12" y="14" width="42" height="37"/>
<path d="M51.0827 19.448H48.6916L48.0259 16.227C47.9552 15.8809 47.7672 15.5697 47.4936 15.3461C47.22 15.1225 46.8776 15.0003 46.5243 15H19.4788C19.1255 15.0003 18.7831 15.1225 18.5095 15.3461C18.2359 15.5697 18.0478 15.8809 17.9772 16.227L17.313 19.448H14.9203C14.6683 19.4478 14.4188 19.4973 14.1859 19.5935C13.953 19.6897 13.7414 19.8309 13.5631 20.0089C13.3848 20.187 13.2433 20.3984 13.1466 20.6311C13.05 20.8638 13.0002 21.1133 13 21.3653V24.5372C13.0004 25.0451 13.2024 25.5322 13.5615 25.8913C13.9207 26.2505 14.4078 26.4525 14.9157 26.4529H15.8559L16.3882 30.1969C16.225 30.2909 16.0783 30.4112 15.9541 30.5527C15.7962 30.7352 15.6794 30.9495 15.6114 31.181C15.5434 31.4125 15.5258 31.6559 15.5599 31.8948L18.0753 43.0243C18.1249 43.3567 18.2721 43.667 18.4982 43.9158C18.7242 44.1645 19.0191 44.3405 19.3453 44.4216L19.8514 47.9785C19.948 48.6381 20.2781 49.2411 20.7817 49.6779C21.2852 50.1148 21.9288 50.3564 22.5954 50.3589H43.3855C44.0518 50.356 44.6951 50.1142 45.1983 49.6774C45.7015 49.2406 46.0314 48.6378 46.1279 47.9785L46.6341 44.4216C46.9605 44.3409 47.2555 44.165 47.4817 43.9162C47.7078 43.6674 47.8549 43.3569 47.9041 43.0243L50.4401 31.8902C50.474 31.6512 50.4562 31.4077 50.3879 31.1762C50.3196 30.9447 50.2025 30.7305 50.0444 30.5481C49.9208 30.4058 49.7741 30.2855 49.6103 30.1923L50.1441 26.4483H51.0843C51.5914 26.4479 52.0778 26.2466 52.4368 25.8884C52.7959 25.5302 52.9984 25.0443 53 24.5372V21.3653C52.9992 20.857 52.7969 20.3698 52.4376 20.0105C52.0782 19.6511 51.591 19.4488 51.0827 19.448ZM49.0106 31.6862L46.4746 42.8203C46.4661 42.8778 46.4373 42.9303 46.3934 42.9683C46.3495 43.0063 46.2934 43.0272 46.2353 43.0274H40.1282C39.9426 43.0359 39.7674 43.1157 39.639 43.2501C39.5107 43.3845 39.4391 43.5632 39.4391 43.749C39.4391 43.9348 39.5107 44.1135 39.639 44.2479C39.7674 44.3823 39.9426 44.4621 40.1282 44.4707H45.1678L44.6969 47.776C44.6509 48.0918 44.4931 48.3805 44.2521 48.5897C44.0111 48.7989 43.7031 48.9145 43.384 48.9156H22.5954C22.2761 48.9149 21.9676 48.7994 21.7263 48.5902C21.485 48.381 21.3269 48.092 21.281 47.776L20.8101 44.4707H34.9602C35.1459 44.4621 35.3211 44.3823 35.4494 44.2479C35.5777 44.1135 35.6494 43.9348 35.6494 43.749C35.6494 43.5632 35.5777 43.3845 35.4494 43.2501C35.3211 43.1157 35.1459 43.0359 34.9602 43.0274H19.7441C19.686 43.0272 19.6299 43.0063 19.586 42.9683C19.5421 42.9303 19.5133 42.8778 19.5048 42.8203L16.9879 31.6862C16.9825 31.6521 16.9848 31.6171 16.9947 31.584C17.0045 31.5508 17.0215 31.5202 17.0446 31.4945C17.0661 31.4702 17.0922 31.4505 17.1215 31.4365C17.1507 31.4225 17.1825 31.4146 17.2149 31.4132H17.244H48.7544H48.7836C48.816 31.4143 48.8479 31.4221 48.8772 31.4361C48.9065 31.4501 48.9326 31.47 48.9538 31.4945C48.9769 31.5202 48.994 31.5508 49.0038 31.584C49.0136 31.6171 49.0159 31.6521 49.0106 31.6862ZM17.3176 26.4483H48.6854L48.1854 29.9684H17.8161L17.3176 26.4483ZM51.5567 24.5372C51.5567 24.5993 51.5444 24.6609 51.5206 24.7183C51.4967 24.7757 51.4618 24.8279 51.4178 24.8718C51.3738 24.9156 51.3215 24.9504 51.264 24.9741C51.2065 24.9977 51.1449 25.0098 51.0827 25.0096H14.9203C14.7949 25.0096 14.6746 24.9599 14.5857 24.8713C14.4969 24.7828 14.4468 24.6626 14.4464 24.5372V21.3653C14.4468 21.2397 14.4968 21.1194 14.5856 21.0306C14.6744 20.9418 14.7947 20.8917 14.9203 20.8913H21.3761C21.4737 20.8958 21.5711 20.8805 21.6626 20.8463C21.7541 20.812 21.8377 20.7596 21.9083 20.6921C21.9789 20.6247 22.0352 20.5436 22.0736 20.4538C22.112 20.364 22.1318 20.2673 22.1318 20.1697C22.1318 20.072 22.112 19.9753 22.0736 19.8855C22.0352 19.7957 21.9789 19.7147 21.9083 19.6472C21.8377 19.5798 21.7541 19.5273 21.6626 19.4931C21.5711 19.4589 21.4737 19.4435 21.3761 19.448H18.7855L19.3898 16.5185C19.3941 16.498 19.4052 16.4797 19.4214 16.4666C19.4377 16.4534 19.4579 16.4463 19.4788 16.4464H46.5243C46.5452 16.4463 46.5654 16.4534 46.5816 16.4666C46.5978 16.4797 46.609 16.498 46.6132 16.5185L47.2176 19.448H24.7351C24.6375 19.4435 24.5401 19.4589 24.4486 19.4931C24.3571 19.5273 24.2735 19.5798 24.2029 19.6472C24.1323 19.7147 24.076 19.7957 24.0376 19.8855C23.9992 19.9753 23.9794 20.072 23.9794 20.1697C23.9794 20.2673 23.9992 20.364 24.0376 20.4538C24.076 20.5436 24.1323 20.6247 24.2029 20.6921C24.2735 20.7596 24.3571 20.812 24.4486 20.8463C24.5401 20.8805 24.6375 20.8958 24.7351 20.8913H51.0827C51.2084 20.8913 51.329 20.9413 51.4179 21.0301C51.5068 21.119 51.5567 21.2396 51.5567 21.3653V24.5372Z"/>
</mask>
<path d="M51.0827 19.448H48.6916L48.0259 16.227C47.9552 15.8809 47.7672 15.5697 47.4936 15.3461C47.22 15.1225 46.8776 15.0003 46.5243 15H19.4788C19.1255 15.0003 18.7831 15.1225 18.5095 15.3461C18.2359 15.5697 18.0478 15.8809 17.9772 16.227L17.313 19.448H14.9203C14.6683 19.4478 14.4188 19.4973 14.1859 19.5935C13.953 19.6897 13.7414 19.8309 13.5631 20.0089C13.3848 20.187 13.2433 20.3984 13.1466 20.6311C13.05 20.8638 13.0002 21.1133 13 21.3653V24.5372C13.0004 25.0451 13.2024 25.5322 13.5615 25.8913C13.9207 26.2505 14.4078 26.4525 14.9157 26.4529H15.8559L16.3882 30.1969C16.225 30.2909 16.0783 30.4112 15.9541 30.5527C15.7962 30.7352 15.6794 30.9495 15.6114 31.181C15.5434 31.4125 15.5258 31.6559 15.5599 31.8948L18.0753 43.0243C18.1249 43.3567 18.2721 43.667 18.4982 43.9158C18.7242 44.1645 19.0191 44.3405 19.3453 44.4216L19.8514 47.9785C19.948 48.6381 20.2781 49.2411 20.7817 49.6779C21.2852 50.1148 21.9288 50.3564 22.5954 50.3589H43.3855C44.0518 50.356 44.6951 50.1142 45.1983 49.6774C45.7015 49.2406 46.0314 48.6378 46.1279 47.9785L46.6341 44.4216C46.9605 44.3409 47.2555 44.165 47.4817 43.9162C47.7078 43.6674 47.8549 43.3569 47.9041 43.0243L50.4401 31.8902C50.474 31.6512 50.4562 31.4077 50.3879 31.1762C50.3196 30.9447 50.2025 30.7305 50.0444 30.5481C49.9208 30.4058 49.7741 30.2855 49.6103 30.1923L50.1441 26.4483H51.0843C51.5914 26.4479 52.0778 26.2466 52.4368 25.8884C52.7959 25.5302 52.9984 25.0443 53 24.5372V21.3653C52.9992 20.857 52.7969 20.3698 52.4376 20.0105C52.0782 19.6511 51.591 19.4488 51.0827 19.448ZM49.0106 31.6862L46.4746 42.8203C46.4661 42.8778 46.4373 42.9303 46.3934 42.9683C46.3495 43.0063 46.2934 43.0272 46.2353 43.0274H40.1282C39.9426 43.0359 39.7674 43.1157 39.639 43.2501C39.5107 43.3845 39.4391 43.5632 39.4391 43.749C39.4391 43.9348 39.5107 44.1135 39.639 44.2479C39.7674 44.3823 39.9426 44.4621 40.1282 44.4707H45.1678L44.6969 47.776C44.6509 48.0918 44.4931 48.3805 44.2521 48.5897C44.0111 48.7989 43.7031 48.9145 43.384 48.9156H22.5954C22.2761 48.9149 21.9676 48.7994 21.7263 48.5902C21.485 48.381 21.3269 48.092 21.281 47.776L20.8101 44.4707H34.9602C35.1459 44.4621 35.3211 44.3823 35.4494 44.2479C35.5777 44.1135 35.6494 43.9348 35.6494 43.749C35.6494 43.5632 35.5777 43.3845 35.4494 43.2501C35.3211 43.1157 35.1459 43.0359 34.9602 43.0274H19.7441C19.686 43.0272 19.6299 43.0063 19.586 42.9683C19.5421 42.9303 19.5133 42.8778 19.5048 42.8203L16.9879 31.6862C16.9825 31.6521 16.9848 31.6171 16.9947 31.584C17.0045 31.5508 17.0215 31.5202 17.0446 31.4945C17.0661 31.4702 17.0922 31.4505 17.1215 31.4365C17.1507 31.4225 17.1825 31.4146 17.2149 31.4132H17.244H48.7544H48.7836C48.816 31.4143 48.8479 31.4221 48.8772 31.4361C48.9065 31.4501 48.9326 31.47 48.9538 31.4945C48.9769 31.5202 48.994 31.5508 49.0038 31.584C49.0136 31.6171 49.0159 31.6521 49.0106 31.6862ZM17.3176 26.4483H48.6854L48.1854 29.9684H17.8161L17.3176 26.4483ZM51.5567 24.5372C51.5567 24.5993 51.5444 24.6609 51.5206 24.7183C51.4967 24.7757 51.4618 24.8279 51.4178 24.8718C51.3738 24.9156 51.3215 24.9504 51.264 24.9741C51.2065 24.9977 51.1449 25.0098 51.0827 25.0096H14.9203C14.7949 25.0096 14.6746 24.9599 14.5857 24.8713C14.4969 24.7828 14.4468 24.6626 14.4464 24.5372V21.3653C14.4468 21.2397 14.4968 21.1194 14.5856 21.0306C14.6744 20.9418 14.7947 20.8917 14.9203 20.8913H21.3761C21.4737 20.8958 21.5711 20.8805 21.6626 20.8463C21.7541 20.812 21.8377 20.7596 21.9083 20.6921C21.9789 20.6247 22.0352 20.5436 22.0736 20.4538C22.112 20.364 22.1318 20.2673 22.1318 20.1697C22.1318 20.072 22.112 19.9753 22.0736 19.8855C22.0352 19.7957 21.9789 19.7147 21.9083 19.6472C21.8377 19.5798 21.7541 19.5273 21.6626 19.4931C21.5711 19.4589 21.4737 19.4435 21.3761 19.448H18.7855L19.3898 16.5185C19.3941 16.498 19.4052 16.4797 19.4214 16.4666C19.4377 16.4534 19.4579 16.4463 19.4788 16.4464H46.5243C46.5452 16.4463 46.5654 16.4534 46.5816 16.4666C46.5978 16.4797 46.609 16.498 46.6132 16.5185L47.2176 19.448H24.7351C24.6375 19.4435 24.5401 19.4589 24.4486 19.4931C24.3571 19.5273 24.2735 19.5798 24.2029 19.6472C24.1323 19.7147 24.076 19.7957 24.0376 19.8855C23.9992 19.9753 23.9794 20.072 23.9794 20.1697C23.9794 20.2673 23.9992 20.364 24.0376 20.4538C24.076 20.5436 24.1323 20.6247 24.2029 20.6921C24.2735 20.7596 24.3571 20.812 24.4486 20.8463C24.5401 20.8805 24.6375 20.8958 24.7351 20.8913H51.0827C51.2084 20.8913 51.329 20.9413 51.4179 21.0301C51.5068 21.119 51.5567 21.2396 51.5567 21.3653V24.5372Z" fill="#FDFFFF"/>
<path d="M51.0827 19.448H48.6916L48.0259 16.227C47.9552 15.8809 47.7672 15.5697 47.4936 15.3461C47.22 15.1225 46.8776 15.0003 46.5243 15H19.4788C19.1255 15.0003 18.7831 15.1225 18.5095 15.3461C18.2359 15.5697 18.0478 15.8809 17.9772 16.227L17.313 19.448H14.9203C14.6683 19.4478 14.4188 19.4973 14.1859 19.5935C13.953 19.6897 13.7414 19.8309 13.5631 20.0089C13.3848 20.187 13.2433 20.3984 13.1466 20.6311C13.05 20.8638 13.0002 21.1133 13 21.3653V24.5372C13.0004 25.0451 13.2024 25.5322 13.5615 25.8913C13.9207 26.2505 14.4078 26.4525 14.9157 26.4529H15.8559L16.3882 30.1969C16.225 30.2909 16.0783 30.4112 15.9541 30.5527C15.7962 30.7352 15.6794 30.9495 15.6114 31.181C15.5434 31.4125 15.5258 31.6559 15.5599 31.8948L18.0753 43.0243C18.1249 43.3567 18.2721 43.667 18.4982 43.9158C18.7242 44.1645 19.0191 44.3405 19.3453 44.4216L19.8514 47.9785C19.948 48.6381 20.2781 49.2411 20.7817 49.6779C21.2852 50.1148 21.9288 50.3564 22.5954 50.3589H43.3855C44.0518 50.356 44.6951 50.1142 45.1983 49.6774C45.7015 49.2406 46.0314 48.6378 46.1279 47.9785L46.6341 44.4216C46.9605 44.3409 47.2555 44.165 47.4817 43.9162C47.7078 43.6674 47.8549 43.3569 47.9041 43.0243L50.4401 31.8902C50.474 31.6512 50.4562 31.4077 50.3879 31.1762C50.3196 30.9447 50.2025 30.7305 50.0444 30.5481C49.9208 30.4058 49.7741 30.2855 49.6103 30.1923L50.1441 26.4483H51.0843C51.5914 26.4479 52.0778 26.2466 52.4368 25.8884C52.7959 25.5302 52.9984 25.0443 53 24.5372V21.3653C52.9992 20.857 52.7969 20.3698 52.4376 20.0105C52.0782 19.6511 51.591 19.4488 51.0827 19.448ZM49.0106 31.6862L46.4746 42.8203C46.4661 42.8778 46.4373 42.9303 46.3934 42.9683C46.3495 43.0063 46.2934 43.0272 46.2353 43.0274H40.1282C39.9426 43.0359 39.7674 43.1157 39.639 43.2501C39.5107 43.3845 39.4391 43.5632 39.4391 43.749C39.4391 43.9348 39.5107 44.1135 39.639 44.2479C39.7674 44.3823 39.9426 44.4621 40.1282 44.4707H45.1678L44.6969 47.776C44.6509 48.0918 44.4931 48.3805 44.2521 48.5897C44.0111 48.7989 43.7031 48.9145 43.384 48.9156H22.5954C22.2761 48.9149 21.9676 48.7994 21.7263 48.5902C21.485 48.381 21.3269 48.092 21.281 47.776L20.8101 44.4707H34.9602C35.1459 44.4621 35.3211 44.3823 35.4494 44.2479C35.5777 44.1135 35.6494 43.9348 35.6494 43.749C35.6494 43.5632 35.5777 43.3845 35.4494 43.2501C35.3211 43.1157 35.1459 43.0359 34.9602 43.0274H19.7441C19.686 43.0272 19.6299 43.0063 19.586 42.9683C19.5421 42.9303 19.5133 42.8778 19.5048 42.8203L16.9879 31.6862C16.9825 31.6521 16.9848 31.6171 16.9947 31.584C17.0045 31.5508 17.0215 31.5202 17.0446 31.4945C17.0661 31.4702 17.0922 31.4505 17.1215 31.4365C17.1507 31.4225 17.1825 31.4146 17.2149 31.4132H17.244H48.7544H48.7836C48.816 31.4143 48.8479 31.4221 48.8772 31.4361C48.9065 31.4501 48.9326 31.47 48.9538 31.4945C48.9769 31.5202 48.994 31.5508 49.0038 31.584C49.0136 31.6171 49.0159 31.6521 49.0106 31.6862ZM17.3176 26.4483H48.6854L48.1854 29.9684H17.8161L17.3176 26.4483ZM51.5567 24.5372C51.5567 24.5993 51.5444 24.6609 51.5206 24.7183C51.4967 24.7757 51.4618 24.8279 51.4178 24.8718C51.3738 24.9156 51.3215 24.9504 51.264 24.9741C51.2065 24.9977 51.1449 25.0098 51.0827 25.0096H14.9203C14.7949 25.0096 14.6746 24.9599 14.5857 24.8713C14.4969 24.7828 14.4468 24.6626 14.4464 24.5372V21.3653C14.4468 21.2397 14.4968 21.1194 14.5856 21.0306C14.6744 20.9418 14.7947 20.8917 14.9203 20.8913H21.3761C21.4737 20.8958 21.5711 20.8805 21.6626 20.8463C21.7541 20.812 21.8377 20.7596 21.9083 20.6921C21.9789 20.6247 22.0352 20.5436 22.0736 20.4538C22.112 20.364 22.1318 20.2673 22.1318 20.1697C22.1318 20.072 22.112 19.9753 22.0736 19.8855C22.0352 19.7957 21.9789 19.7147 21.9083 19.6472C21.8377 19.5798 21.7541 19.5273 21.6626 19.4931C21.5711 19.4589 21.4737 19.4435 21.3761 19.448H18.7855L19.3898 16.5185C19.3941 16.498 19.4052 16.4797 19.4214 16.4666C19.4377 16.4534 19.4579 16.4463 19.4788 16.4464H46.5243C46.5452 16.4463 46.5654 16.4534 46.5816 16.4666C46.5978 16.4797 46.609 16.498 46.6132 16.5185L47.2176 19.448H24.7351C24.6375 19.4435 24.5401 19.4589 24.4486 19.4931C24.3571 19.5273 24.2735 19.5798 24.2029 19.6472C24.1323 19.7147 24.076 19.7957 24.0376 19.8855C23.9992 19.9753 23.9794 20.072 23.9794 20.1697C23.9794 20.2673 23.9992 20.364 24.0376 20.4538C24.076 20.5436 24.1323 20.6247 24.2029 20.6921C24.2735 20.7596 24.3571 20.812 24.4486 20.8463C24.5401 20.8805 24.6375 20.8958 24.7351 20.8913H51.0827C51.2084 20.8913 51.329 20.9413 51.4179 21.0301C51.5068 21.119 51.5567 21.2396 51.5567 21.3653V24.5372Z" stroke="#FDFFFF" stroke-width="0.2" stroke-miterlimit="10" mask="url(#path-1-outside-1)"/>
</svg>
