<svg width="60" height="60" viewBox="0 0 60 60" fill="none" xmlns="http://www.w3.org/2000/svg">
<path d="M32.6761 10.0098C30.1955 11.6527 27.944 15.5659 27.3778 18.1339C27.0288 19.8266 27.1703 21.4963 27.4347 23.2186C26.3945 22.1236 25.6905 20.723 25.5455 18.5742C25.5234 18.238 25.298 17.9232 24.9868 17.794C24.6756 17.6649 24.2935 17.7275 24.0398 17.9493C19.0646 22.286 16 28.844 16 35.1917C16 42.1868 19.9742 46.7329 25.7585 49.8919C26.0915 50.0758 26.5401 50.0204 26.8184 49.761C27.0966 49.5015 27.1831 49.0579 27.0227 48.713C26.7121 48.0315 26.4545 47.3352 26.4545 46.5541C26.4545 44.02 28.0568 41.3705 30.0909 40.177C32.1264 41.3697 33.7273 44.0179 33.7273 46.5541C33.7273 47.3301 33.4679 48.032 33.1591 48.713C32.9987 49.0579 33.0852 49.5015 33.3635 49.761C33.6417 50.0204 34.0903 50.0758 34.4233 49.8919C40.2278 46.7265 44.1818 42.0075 44.1818 35.0071C44.1886 34.5268 43.7531 34.0852 43.2727 34.0852C42.7924 34.0852 42.3569 34.5268 42.3636 35.0071C42.3636 40.518 39.7246 44.1727 35.4744 47.0086C35.4885 46.8505 35.5455 46.72 35.5455 46.5541C35.5455 43.0908 33.4652 39.6896 30.4744 38.2738C30.2351 38.1624 29.9467 38.1624 29.7074 38.2738C26.7191 39.6906 24.6364 43.0918 24.6364 46.5541C24.6364 46.7252 24.6926 46.8601 24.7074 47.0228C20.4533 44.2202 17.8182 40.6964 17.8182 35.1917C17.8182 29.9497 20.1974 24.4197 24.0682 20.4632C24.724 23.1634 26.3096 25.0097 28.2443 26.2296C28.5458 26.4231 28.964 26.4146 29.2573 26.209C29.5507 26.0034 29.7013 25.6132 29.6222 25.2638C29.0682 22.6392 28.7421 20.5524 29.1676 18.489C29.5071 16.8427 30.3621 15.1441 32.0511 13.1345C32.4668 16.43 34.1876 19.0732 36.0994 21.5569C38.4394 24.5967 40.9614 27.5386 41.9375 31.5842C42.0148 32.0791 42.5626 32.4454 43.0496 32.3276C43.5366 32.2097 43.8564 31.6337 43.6989 31.1581C42.603 26.6161 39.8276 23.4285 37.5341 20.449C35.2406 17.4695 33.4479 14.7744 33.7273 10.9756C33.7684 10.43 33.2164 9.92281 32.6761 10.0098Z" fill="#FDFFFF"/>
</svg>
