<svg id="Ebene_1" data-name="Ebene 1" xmlns="http://www.w3.org/2000/svg" viewBox="0 0 28.18 40"><defs><style>.cls-1{fill:#364751;}</style></defs><path class="cls-1" d="M32.68,10c-2.48,1.64-4.74,5.56-5.3,8.12a14.28,14.28,0,0,0,.05,5.09,7,7,0,0,1-1.88-4.65,1,1,0,0,0-.56-.78A.94.94,0,0,0,24,18a23.49,23.49,0,0,0-8,17.24c0,7,4,11.54,9.76,14.7A.91.91,0,0,0,27,48.71a5.14,5.14,0,0,1-.57-2.16,7.85,7.85,0,0,1,3.64-6.37,7.82,7.82,0,0,1,3.64,6.37,5.18,5.18,0,0,1-.57,2.16,1,1,0,0,0,.2,1,.92.92,0,0,0,1.06.13C40.23,46.73,44.18,42,44.18,35a.91.91,0,1,0-1.82,0c0,5.51-2.64,9.16-6.89,12a3.4,3.4,0,0,0,.08-.46,9.36,9.36,0,0,0-5.08-8.28.92.92,0,0,0-.76,0,9.37,9.37,0,0,0-5.07,8.28,3.31,3.31,0,0,0,.07.47c-4.26-2.8-6.89-6.32-6.89-11.83a21.76,21.76,0,0,1,6.25-14.73,9.21,9.21,0,0,0,4.17,5.77,1,1,0,0,0,1,0,.94.94,0,0,0,.36-.95,16.41,16.41,0,0,1-.45-6.77,12.14,12.14,0,0,1,2.88-5.36c.42,3.3,2.14,5.94,4.05,8.43,2.34,3,4.86,6,5.84,10a.91.91,0,1,0,1.76-.42c-1.1-4.54-3.87-7.73-6.17-10.71s-4.08-5.68-3.8-9.47A1,1,0,0,0,32.68,10Z" transform="translate(-16 -10)"/></svg>