<svg width="60" height="60" viewBox="0 0 60 60" fill="none" xmlns="http://www.w3.org/2000/svg">
<path d="M32.3849 10.2304C32.3853 10.2258 32.3856 10.2213 32.386 10.2167L32.386 10.2164C32.4524 9.3641 32.057 8.37127 31.4577 7.24892C31.4504 7.2592 31.4442 7.26796 31.4392 7.27513C31.4135 7.31187 31.3789 7.36207 31.2958 7.509L32.3849 10.2304ZM32.3849 10.2304L32.0513 10.2058L32.3849 10.2304ZM30.4148 4.51524L30.4107 4.51229L30.4112 4.52289L30.412 4.54078M30.4148 4.51524L30.412 4.54078M30.4148 4.51524C30.4134 4.51426 30.4121 4.51325 30.4107 4.51226L30.4148 4.51524ZM30.412 4.54078L30.4549 4.62156M30.412 4.54078V4.54078M30.4549 4.62156L30.412 4.54078M30.4549 4.62156L30.412 4.54078M30.4549 4.62156L30.412 4.54078M30.4549 4.62156L30.5173 4.73909L30.4549 4.62156ZM30.4549 4.62156L30.526 4.6271L30.5273 4.6272L30.5744 4.63087L30.4549 4.62156ZM30.4714 14.4164L30.4713 14.4163L30.4732 14.4191L30.4716 14.4168L30.4714 14.4165L30.4714 14.4164ZM30.4071 4.53157L30.3992 4.51666L30.4071 4.53157Z" stroke="#FDFFFF" stroke-width="3"/>
<path d="M22.7046 15.8233C22.7192 15.8244 22.734 15.8255 22.749 15.8266C23.0075 15.8464 23.3305 15.8812 23.6932 15.9415L23.6202 16.5228L22.7973 16.5602C22.7475 16.2826 22.7197 16.0322 22.7046 15.8233Z" stroke="#FDFFFF" stroke-width="3"/>
<path d="M36.0223 17.9009C35.7352 18.5659 35.2543 19.2767 34.4508 19.9497L32.0628 22.7419C32.1508 22.7116 32.24 22.6802 32.33 22.6478C32.8376 22.4648 33.3702 22.2484 33.8555 22.0218C34.393 21.7708 34.9922 21.4528 35.4139 21.0997L35.4139 21.0996C35.4912 21.0349 35.5662 20.9698 35.6389 20.9043L34.9522 20.0847C35.7538 19.4132 36.2163 18.6062 36.4792 17.8294C36.3317 17.8495 36.1787 17.8733 36.0223 17.9009ZM36.5689 17.5391L36.4166 16.3248L34.9228 16.1887C34.9107 16.3211 34.8918 16.4647 34.861 16.6169C33.7607 16.8974 32.6131 17.3651 31.8732 18.118L36.5689 17.5391Z" stroke="#FDFFFF" stroke-width="3"/>
<path d="M38.3441 24.6309H38.3436H38.3441ZM38.3441 24.6309C38.344 24.6309 38.3439 24.6309 38.3439 24.6309M39.5827 25.9721C39.583 25.9713 39.5832 25.9705 39.5835 25.9696L38.5279 25.3898C38.5105 25.4545 38.4925 25.5198 38.474 25.5853C38.4681 25.6065 38.4621 25.6276 38.4561 25.6486L38.1406 25.5596L38.4558 25.6497C38.4032 25.8348 38.3502 26.0142 38.2962 26.1876C38.4281 26.1545 38.5618 26.1215 38.6972 26.0887L38.601 25.6913L39.5827 25.9721Z" stroke="#FDFFFF" stroke-width="3"/>
<path d="M40.7003 35.1139L41.0169 35.2022L40.7003 35.1139ZM39.8792 33.5541C39.8276 33.7915 39.7688 34.0452 39.7023 34.3084L39.5111 33.4845L38.1503 33.2272C38.539 33.1271 38.9503 33.0326 39.3856 32.9441C39.5937 32.9018 39.8073 32.8609 40.0266 32.8215C39.9864 33.0383 39.9374 33.2858 39.8792 33.5541ZM37.9644 33.6198C37.9483 33.7179 37.9356 33.7949 37.9166 33.8858C35.5861 34.5248 33.7897 35.2833 32.9586 36.2321C32.268 37.0206 31.9216 37.9476 31.6791 38.9387C31.631 38.9458 31.5829 38.9527 31.5346 38.9594C31.542 38.9257 31.5494 38.8924 31.5566 38.8594C31.816 37.6793 31.9879 36.897 32.6625 36.1268L32.6625 36.1268C32.6878 36.0979 32.7135 36.0691 32.7397 36.0404C32.7397 36.0404 32.7397 36.0404 32.7397 36.0404C33.7164 34.9669 35.3098 33.9759 38.0271 33.2593C37.9978 33.4173 37.9796 33.5279 37.9644 33.6198ZM37.3947 38.3564C36.1701 39.2471 34.6014 39.8734 32.936 40.2339C32.9144 40.3433 32.8926 40.4556 32.8703 40.571C34.5866 40.1979 36.2133 39.5189 37.5493 38.5689C37.5792 38.5477 37.6088 38.5264 37.6384 38.5048C38.5433 37.8467 39.0569 36.5935 39.5077 35.0265C39.3824 35.0566 39.2586 35.0868 39.1365 35.1173C38.7044 36.504 38.0005 37.9159 37.3947 38.3564ZM31.3578 40.4935L32.3245 40.6788C32.0162 40.7336 31.7058 40.7786 31.3944 40.8136C31.2971 40.8245 31.1998 40.8345 31.1023 40.8434L31.1908 40.4614L31.3001 39.989L31.3578 40.4935ZM20.637 33.175C20.8662 33.2077 21.0965 33.2447 21.3273 33.2868L21.2819 33.5282L20.7758 33.6056C20.7343 33.4805 20.6958 33.3613 20.6604 33.2492C20.6524 33.2241 20.6447 33.1994 20.637 33.175Z" stroke="#FDFFFF" stroke-width="3"/>
<path d="M27.6747 57.1444L27.6597 57.1009L27.6747 57.1444ZM27.6747 57.1444L27.7008 57.2202L27.6747 57.1444ZM27.6596 57.1006L27.6443 57.093L27.7554 57.1479L27.6596 57.1006Z" stroke="#FDFFFF" stroke-width="3"/>
<path d="M21.2565 3.93596V3.93596Z" stroke="#FDFFFF" stroke-width="3"/>
<mask id="path-8-inside-1" fill="white">
<path d="M14.9429 9.40455C14.7003 9.40367 14.4671 9.49274 14.2943 9.6524C14.1214 9.81206 14.023 10.0293 14.0204 10.2568C13.8988 14.5201 14.2705 18.8893 16.5166 23.2571C16.5691 23.359 16.6426 23.4502 16.7328 23.5255C16.8229 23.6008 16.9278 23.6587 17.0418 23.696C17.1558 23.7332 17.2766 23.7489 17.3971 23.7424C17.5176 23.7358 17.6356 23.7072 17.7443 23.6579C17.853 23.6086 17.9502 23.5397 18.0304 23.4552C18.1107 23.3706 18.1726 23.2722 18.2123 23.1653C18.252 23.0584 18.2689 22.9452 18.2619 22.8322C18.2549 22.7192 18.2242 22.6085 18.1716 22.5066C16.0979 18.4739 15.7341 14.4451 15.8518 10.3077C15.8578 10.1919 15.8387 10.0762 15.7959 9.96743C15.753 9.85868 15.687 9.75908 15.6021 9.67476C15.5172 9.59043 15.4153 9.52303 15.302 9.4766C15.1887 9.43016 15.0665 9.40568 14.9429 9.40455Z"/>
</mask>
<path d="M14.0204 10.2568L17.0192 10.3423L17.0199 10.317L17.0202 10.2917L14.0204 10.2568ZM16.5166 23.2571L13.8486 24.629L13.8501 24.632L16.5166 23.2571ZM18.0304 23.4552L20.2056 25.5213L18.0304 23.4552ZM18.1716 22.5066L15.5037 23.8785L15.5055 23.882L18.1716 22.5066ZM15.8518 10.3077L12.8558 10.1536L12.854 10.188L12.853 10.2224L15.8518 10.3077ZM14.9538 6.40457C13.9795 6.40103 13.0076 6.75674 12.2584 7.44889L16.3301 11.8559C15.9265 12.2287 15.4211 12.4063 14.932 12.4045L14.9538 6.40457ZM12.2584 7.44889C11.5028 8.14704 11.0332 9.13915 11.0206 10.2219L17.0202 10.2917C17.0129 10.9196 16.7401 11.4771 16.3301 11.8559L12.2584 7.44889ZM11.0216 10.1713C10.8935 14.6661 11.2716 19.6176 13.8486 24.629L19.1845 21.8852C17.2693 18.1609 16.9042 14.3741 17.0192 10.3423L11.0216 10.1713ZM13.8501 24.632C14.091 25.0992 14.4207 25.5032 14.8095 25.828L18.656 21.2231C18.8645 21.3973 19.0472 21.6188 19.183 21.8822L13.8501 24.632ZM14.8095 25.828C15.1975 26.152 15.6404 26.3943 16.1109 26.5479L17.9728 20.8441C18.2152 20.9232 18.4483 21.0496 18.656 21.2231L14.8095 25.828ZM16.1109 26.5479C16.5808 26.7012 17.0724 26.7644 17.5594 26.738L17.2348 20.7468C17.4808 20.7334 17.7309 20.7651 17.9728 20.8441L16.1109 26.5479ZM17.5594 26.738C18.0464 26.7116 18.5301 26.5956 18.9832 26.3901L16.5054 20.9257C16.7411 20.8188 16.9888 20.7601 17.2348 20.7468L17.5594 26.738ZM18.9832 26.3901C19.4369 26.1844 19.8537 25.8917 20.2056 25.5213L15.8553 21.389C16.0466 21.1877 16.2691 21.0328 16.5054 20.9257L18.9832 26.3901ZM20.2056 25.5213C20.5568 25.1516 20.8398 24.7078 21.0248 24.2092L15.3998 22.1214C15.5055 21.8366 15.6647 21.5897 15.8553 21.389L20.2056 25.5213ZM21.0248 24.2092C21.2087 23.7138 21.2892 23.1823 21.2562 22.6474L15.2676 23.0169C15.2486 22.7081 15.2953 22.403 15.3998 22.1214L21.0248 24.2092ZM21.2562 22.6474C21.2232 22.1119 21.0778 21.5965 20.8378 21.1312L15.5055 23.882C15.3706 23.6205 15.2867 23.3264 15.2676 23.0169L21.2562 22.6474ZM20.8395 21.1347C19.0964 17.7448 18.7395 14.2978 18.8506 10.393L12.853 10.2224C12.7287 14.5924 13.0994 19.203 15.5037 23.8785L20.8395 21.1347ZM18.8479 10.4618C18.876 9.91422 18.7855 9.37098 18.5867 8.867L13.005 11.0679C12.892 10.7814 12.8395 10.4696 12.8558 10.1536L18.8479 10.4618ZM18.5867 8.867C18.3877 8.36214 18.0874 7.91508 17.7166 7.54666L13.4876 11.8029C13.2865 11.6031 13.1183 11.3552 13.005 11.0679L18.5867 8.867ZM17.7166 7.54666C17.3463 7.17871 16.9106 6.89371 16.4396 6.70069L14.1643 12.2525C13.9199 12.1524 13.6882 12.0022 13.4876 11.8029L17.7166 7.54666ZM16.4396 6.70069C15.9698 6.50812 15.4705 6.40925 14.9703 6.40467L14.9154 12.4044C14.6626 12.4021 14.4075 12.3522 14.1643 12.2525L16.4396 6.70069Z" fill="#FDFFFF" mask="url(#path-8-inside-1)"/>
<path d="M45.7454 10.2854L45.7153 10.3194L45.7454 10.2854ZM45.7454 10.2854L45.7494 10.281L45.7454 10.2854ZM45.7079 10.3166L45.7015 10.3351L45.7079 10.3166ZM45.7079 10.3166L45.7135 10.3003L45.7079 10.3166Z" stroke="#FDFFFF" stroke-width="3"/>
<mask id="path-11-inside-2" fill="white">
<path d="M39.1721 3.0062C39.0304 3.02246 38.8946 3.06949 38.7757 3.14345C38.6567 3.2174 38.5581 3.31631 38.487 3.43234C38.4159 3.54837 38.3744 3.67828 38.3661 3.81187C38.3579 3.94545 38.3831 4.079 38.4395 4.20193C40.4778 8.76712 40.5914 11.133 40.895 13.8695C40.9068 13.9827 40.9424 14.0926 40.9997 14.1928C41.057 14.2931 41.1346 14.3818 41.2286 14.4538C41.3226 14.5258 41.4308 14.5797 41.547 14.6123C41.6632 14.6449 41.7854 14.6556 41.9061 14.6439C42.0267 14.6322 42.1437 14.5983 42.2503 14.544C42.3569 14.4898 42.4513 14.4162 42.5276 14.3277C42.6038 14.2392 42.6604 14.1374 42.6946 14.0283C42.7287 13.9191 42.7396 13.8048 42.7264 13.6917C42.4284 11.0076 42.2402 8.28532 40.1217 3.54076C40.0468 3.36704 39.9136 3.22093 39.7423 3.12456C39.5709 3.0282 39.3707 2.98681 39.1721 3.0067V3.0062Z"/>
</mask>
<path d="M39.1721 3.0062H42.1721V-0.357794L38.83 0.0257692L39.1721 3.0062ZM38.4395 4.20193L41.1789 2.97886L41.1727 2.96508L41.1664 2.95136L38.4395 4.20193ZM40.895 13.8695L43.8787 13.5579L43.8777 13.5483L43.8767 13.5387L40.895 13.8695ZM42.7264 13.6917L39.7447 14.0227L39.7456 14.0307L39.7465 14.0387L42.7264 13.6917ZM40.1217 3.54076L37.3665 4.72778L37.3743 4.74589L37.3824 4.7639L40.1217 3.54076ZM39.1721 3.0067H36.1721V6.32205L39.4709 5.99178L39.1721 3.0067ZM38.83 0.0257692C38.2554 0.0917156 37.6941 0.283272 37.1915 0.595815L40.3598 5.69108C40.0951 5.85571 39.8054 5.95321 39.5141 5.98664L38.83 0.0257692ZM37.1915 0.595815C36.6858 0.910265 36.2498 1.34126 35.9289 1.86507L41.045 4.99961C40.8663 5.29136 40.6277 5.52453 40.3598 5.69108L37.1915 0.595815ZM35.9289 1.86507C35.6078 2.38924 35.4109 2.99239 35.3718 3.6275L41.3605 3.99624C41.3378 4.36417 41.224 4.70749 41.045 4.99961L35.9289 1.86507ZM35.3718 3.6275C35.3328 4.26136 35.4533 4.88721 35.7126 5.45249L41.1664 2.95136C41.3129 3.27079 41.3831 3.62954 41.3605 3.99624L35.3718 3.6275ZM35.7001 5.42499C37.5374 9.54002 37.615 11.5124 37.9133 14.2003L43.8767 13.5387C43.5677 10.7535 43.4181 7.99422 41.1789 2.97886L35.7001 5.42499ZM37.9112 14.181C37.967 14.7154 38.1344 15.2251 38.3946 15.6807L43.6047 12.705C43.7504 12.96 43.8466 13.2499 43.8787 13.5579L37.9112 14.181ZM38.3946 15.6807C38.6538 16.1345 38.9992 16.5251 39.4042 16.8353L43.053 12.0723C43.27 12.2386 43.4601 12.4517 43.6047 12.705L38.3946 15.6807ZM39.4042 16.8353C39.8062 17.1433 40.2596 17.3669 40.7361 17.5006L42.3579 11.724C42.6019 11.7925 42.8389 11.9083 43.053 12.0723L39.4042 16.8353ZM40.7361 17.5006C41.2132 17.6346 41.7088 17.6772 42.1959 17.6299L41.6162 11.658C41.862 11.6341 42.1132 11.6553 42.3579 11.724L40.7361 17.5006ZM42.1959 17.6299C42.684 17.5825 43.1648 17.4448 43.611 17.2177L40.8896 11.8704C41.1225 11.7518 41.3695 11.6819 41.6162 11.658L42.1959 17.6299ZM43.611 17.2177C44.0554 16.9916 44.4624 16.6782 44.8005 16.2857L40.2546 12.3697C40.4403 12.1542 40.6585 11.988 40.8896 11.8704L43.611 17.2177ZM44.8005 16.2857C45.14 15.8916 45.3996 15.4295 45.5577 14.924L39.8314 13.1325C39.9213 12.8454 40.0676 12.5868 40.2546 12.3697L44.8005 16.2857ZM45.5577 14.924C45.7168 14.4156 45.7683 13.8779 45.7063 13.3447L39.7465 14.0387C39.7108 13.7316 39.7407 13.4226 39.8314 13.1325L45.5577 14.924ZM45.7081 13.3607C45.4027 10.6104 45.177 7.50438 42.861 2.31763L37.3824 4.7639C39.3034 9.06626 39.4541 11.4048 39.7447 14.0227L45.7081 13.3607ZM42.8769 2.35374C42.531 1.55085 41.9328 0.914607 41.2128 0.509701L38.2717 5.73943C37.8945 5.52726 37.5627 5.18323 37.3665 4.72778L42.8769 2.35374ZM41.2128 0.509701C40.495 0.106011 39.6756 -0.0587149 38.8732 0.0216248L39.4709 5.99178C39.0659 6.03233 38.6468 5.95038 38.2717 5.73943L41.2128 0.509701ZM42.1721 3.0067V3.0062H36.1721V3.0067H42.1721Z" fill="#FDFFFF" mask="url(#path-11-inside-2)"/>
</svg>
