<svg width="93" height="93" viewBox="0 0 93 93" fill="none" xmlns="http://www.w3.org/2000/svg">
<path d="M7.37085 2V91" stroke="#FDFFFF" stroke-width="2.5" stroke-linecap="round" stroke-linejoin="round"/>
<path d="M2 7.37069L7.37069 2L12.7414 7.37069" stroke="#FDFFFF" stroke-width="2.5" stroke-linecap="round" stroke-linejoin="round"/>
<path d="M91 85.6292L2 85.6291" stroke="#FDFFFF" stroke-width="2.5" stroke-linecap="round" stroke-linejoin="round"/>
<path d="M85.6293 80.2586L91 85.6293L85.6293 91" stroke="#FDFFFF" stroke-width="2.5" stroke-linecap="round" stroke-linejoin="round"/>
<mask id="path-5-outside-1" maskUnits="userSpaceOnUse" x="21" y="14" width="52" height="63" fill="black">
<rect fill="white" x="21" y="14" width="52" height="63"/>
<path d="M69.6262 20.5627H66.6357L65.8033 16.5345C65.7149 16.1016 65.4797 15.7124 65.1376 15.4328C64.7954 15.1532 64.3672 15.0004 63.9254 15H30.1023C29.6605 15.0004 29.2323 15.1532 28.8901 15.4328C28.548 15.7124 28.3128 16.1016 28.2245 16.5345L27.3939 20.5627H24.4015C24.0864 20.5624 23.7743 20.6243 23.4831 20.7446C23.1919 20.865 22.9272 21.0415 22.7042 21.2642C22.4812 21.4868 22.3042 21.7512 22.1834 22.0422C22.0626 22.3333 22.0003 22.6453 22 22.9604V26.9272C22.0005 27.5624 22.2531 28.1715 22.7023 28.6207C23.1515 29.0699 23.7605 29.3224 24.3958 29.323H25.5716L26.2372 34.0052C26.0331 34.1228 25.8497 34.2731 25.6944 34.4502C25.497 34.6784 25.3508 34.9464 25.2658 35.2359C25.1807 35.5255 25.1588 35.8299 25.2014 36.1286L29.6535 67.3755C29.7155 67.7913 29.8996 68.1793 30.1823 68.4904C30.465 68.8015 30.8338 69.0216 31.2417 69.123L31.8747 73.5712C31.9955 74.3961 32.4083 75.1502 33.038 75.6966C33.6678 76.2429 34.4726 76.5451 35.3063 76.5482H58.7233C59.5566 76.5446 60.361 76.2422 60.9904 75.6959C61.6197 75.1497 62.0322 74.3958 62.153 73.5712L62.786 69.123C63.1942 69.0221 63.5632 68.8021 63.846 68.4909C64.1288 68.1798 64.3127 67.7915 64.3742 67.3755L68.8225 36.1229C68.8648 35.824 68.8426 35.5195 68.7572 35.2299C68.6718 34.9404 68.5253 34.6725 68.3276 34.4445C68.1731 34.2665 67.9895 34.116 67.7847 33.9994L68.4522 29.3172H69.6281C70.2623 29.3167 70.8705 29.0649 71.3196 28.617C71.7686 28.169 72.0218 27.5614 72.0239 26.9272V22.9604C72.0229 22.3248 71.7699 21.7155 71.3205 21.2661C70.871 20.8166 70.2618 20.5637 69.6262 20.5627ZM67.0347 35.8677L62.5865 67.1204C62.5759 67.1923 62.5399 67.258 62.485 67.3055C62.43 67.353 62.3599 67.3792 62.2873 67.3794H53.6498C53.4176 67.3901 53.1985 67.4898 53.038 67.6579C52.8775 67.826 52.7879 68.0495 52.7879 68.2819C52.7879 68.5143 52.8775 68.7378 53.038 68.9058C53.1985 69.0739 53.4176 69.1737 53.6498 69.1844H60.9522L60.3633 73.318C60.3059 73.7129 60.1085 74.074 59.8071 74.3356C59.5057 74.5972 59.1204 74.7419 58.7214 74.7432H35.3063C34.9069 74.7423 34.5212 74.5979 34.2194 74.3363C33.9176 74.0746 33.72 73.7132 33.6625 73.318L33.0736 69.1844H49.4528C49.685 69.1737 49.9041 69.0739 50.0646 68.9058C50.2251 68.7378 50.3146 68.5143 50.3146 68.2819C50.3146 68.0495 50.2251 67.826 50.0646 67.6579C49.9041 67.4898 49.685 67.3901 49.4528 67.3794H31.7405C31.6678 67.3792 31.5977 67.353 31.5427 67.3055C31.4878 67.258 31.4518 67.1923 31.4412 67.1204L26.9872 35.8677C26.9805 35.825 26.9834 35.7813 26.9957 35.7399C27.008 35.6984 27.0293 35.6602 27.0582 35.628C27.085 35.5976 27.1177 35.5729 27.1543 35.5554C27.1909 35.5379 27.2306 35.528 27.2711 35.5263H27.3076H66.7144H66.7508C66.7914 35.5277 66.8312 35.5375 66.8679 35.555C66.9045 35.5724 66.9371 35.5973 66.9637 35.628C66.9926 35.6602 67.014 35.6984 67.0262 35.7399C67.0385 35.7813 67.0414 35.825 67.0347 35.8677ZM27.3996 29.3172H66.6281L66.0027 33.7194H28.023L27.3996 29.3172ZM70.2189 26.9272C70.2189 27.0049 70.2035 27.0819 70.1737 27.1537C70.1439 27.2255 70.1002 27.2907 70.0452 27.3456C69.9901 27.4005 69.9247 27.444 69.8528 27.4735C69.7809 27.5031 69.7039 27.5182 69.6262 27.518H24.4015C24.2447 27.518 24.0942 27.4558 23.9831 27.345C23.872 27.2343 23.8093 27.084 23.8088 26.9272V22.9604C23.8093 22.8033 23.8719 22.6529 23.983 22.5418C24.094 22.4308 24.2445 22.3682 24.4015 22.3677H32.4751C32.5971 22.3733 32.719 22.3541 32.8334 22.3113C32.9478 22.2685 33.0523 22.2029 33.1407 22.1186C33.229 22.0342 33.2993 21.9328 33.3474 21.8205C33.3954 21.7082 33.4202 21.5873 33.4202 21.4652C33.4202 21.343 33.3954 21.2222 33.3474 21.1099C33.2993 20.9975 33.229 20.8962 33.1407 20.8118C33.0523 20.7274 32.9478 20.6619 32.8334 20.619C32.719 20.5762 32.5971 20.5571 32.4751 20.5627H29.2353L29.9911 16.899C29.9964 16.8734 30.0104 16.8505 30.0306 16.8341C30.0509 16.8176 30.0762 16.8087 30.1023 16.8088H63.9254C63.9515 16.8087 63.9768 16.8176 63.9971 16.8341C64.0173 16.8505 64.0313 16.8734 64.0366 16.899L64.7924 20.5627H36.6759C36.5539 20.5571 36.432 20.5762 36.3176 20.619C36.2032 20.6619 36.0987 20.7274 36.0103 20.8118C35.922 20.8962 35.8517 20.9975 35.8036 21.1099C35.7556 21.2222 35.7308 21.343 35.7308 21.4652C35.7308 21.5873 35.7556 21.7082 35.8036 21.8205C35.8517 21.9328 35.922 22.0342 36.0103 22.1186C36.0987 22.2029 36.2032 22.2685 36.3176 22.3113C36.432 22.3541 36.5539 22.3733 36.6759 22.3677H69.6262C69.7834 22.3677 69.9341 22.4301 70.0453 22.5413C70.1564 22.6524 70.2189 22.8032 70.2189 22.9604V26.9272Z"/>
</mask>
<path d="M69.6262 20.5627H66.6357L65.8033 16.5345C65.7149 16.1016 65.4797 15.7124 65.1376 15.4328C64.7954 15.1532 64.3672 15.0004 63.9254 15H30.1023C29.6605 15.0004 29.2323 15.1532 28.8901 15.4328C28.548 15.7124 28.3128 16.1016 28.2245 16.5345L27.3939 20.5627H24.4015C24.0864 20.5624 23.7743 20.6243 23.4831 20.7446C23.1919 20.865 22.9272 21.0415 22.7042 21.2642C22.4812 21.4868 22.3042 21.7512 22.1834 22.0422C22.0626 22.3333 22.0003 22.6453 22 22.9604V26.9272C22.0005 27.5624 22.2531 28.1715 22.7023 28.6207C23.1515 29.0699 23.7605 29.3224 24.3958 29.323H25.5716L26.2372 34.0052C26.0331 34.1228 25.8497 34.2731 25.6944 34.4502C25.497 34.6784 25.3508 34.9464 25.2658 35.2359C25.1807 35.5255 25.1588 35.8299 25.2014 36.1286L29.6535 67.3755C29.7155 67.7913 29.8996 68.1793 30.1823 68.4904C30.465 68.8015 30.8338 69.0216 31.2417 69.123L31.8747 73.5712C31.9955 74.3961 32.4083 75.1502 33.038 75.6966C33.6678 76.2429 34.4726 76.5451 35.3063 76.5482H58.7233C59.5566 76.5446 60.361 76.2422 60.9904 75.6959C61.6197 75.1497 62.0322 74.3958 62.153 73.5712L62.786 69.123C63.1942 69.0221 63.5632 68.8021 63.846 68.4909C64.1288 68.1798 64.3127 67.7915 64.3742 67.3755L68.8225 36.1229C68.8648 35.824 68.8426 35.5195 68.7572 35.2299C68.6718 34.9404 68.5253 34.6725 68.3276 34.4445C68.1731 34.2665 67.9895 34.116 67.7847 33.9994L68.4522 29.3172H69.6281C70.2623 29.3167 70.8705 29.0649 71.3196 28.617C71.7686 28.169 72.0218 27.5614 72.0239 26.9272V22.9604C72.0229 22.3248 71.7699 21.7155 71.3205 21.2661C70.871 20.8166 70.2618 20.5637 69.6262 20.5627ZM67.0347 35.8677L62.5865 67.1204C62.5759 67.1923 62.5399 67.258 62.485 67.3055C62.43 67.353 62.3599 67.3792 62.2873 67.3794H53.6498C53.4176 67.3901 53.1985 67.4898 53.038 67.6579C52.8775 67.826 52.7879 68.0495 52.7879 68.2819C52.7879 68.5143 52.8775 68.7378 53.038 68.9058C53.1985 69.0739 53.4176 69.1737 53.6498 69.1844H60.9522L60.3633 73.318C60.3059 73.7129 60.1085 74.074 59.8071 74.3356C59.5057 74.5972 59.1204 74.7419 58.7214 74.7432H35.3063C34.9069 74.7423 34.5212 74.5979 34.2194 74.3363C33.9176 74.0746 33.72 73.7132 33.6625 73.318L33.0736 69.1844H49.4528C49.685 69.1737 49.9041 69.0739 50.0646 68.9058C50.2251 68.7378 50.3146 68.5143 50.3146 68.2819C50.3146 68.0495 50.2251 67.826 50.0646 67.6579C49.9041 67.4898 49.685 67.3901 49.4528 67.3794H31.7405C31.6678 67.3792 31.5977 67.353 31.5427 67.3055C31.4878 67.258 31.4518 67.1923 31.4412 67.1204L26.9872 35.8677C26.9805 35.825 26.9834 35.7813 26.9957 35.7399C27.008 35.6984 27.0293 35.6602 27.0582 35.628C27.085 35.5976 27.1177 35.5729 27.1543 35.5554C27.1909 35.5379 27.2306 35.528 27.2711 35.5263H27.3076H66.7144H66.7508C66.7914 35.5277 66.8312 35.5375 66.8679 35.555C66.9045 35.5724 66.9371 35.5973 66.9637 35.628C66.9926 35.6602 67.014 35.6984 67.0262 35.7399C67.0385 35.7813 67.0414 35.825 67.0347 35.8677ZM27.3996 29.3172H66.6281L66.0027 33.7194H28.023L27.3996 29.3172ZM70.2189 26.9272C70.2189 27.0049 70.2035 27.0819 70.1737 27.1537C70.1439 27.2255 70.1002 27.2907 70.0452 27.3456C69.9901 27.4005 69.9247 27.444 69.8528 27.4735C69.7809 27.5031 69.7039 27.5182 69.6262 27.518H24.4015C24.2447 27.518 24.0942 27.4558 23.9831 27.345C23.872 27.2343 23.8093 27.084 23.8088 26.9272V22.9604C23.8093 22.8033 23.8719 22.6529 23.983 22.5418C24.094 22.4308 24.2445 22.3682 24.4015 22.3677H32.4751C32.5971 22.3733 32.719 22.3541 32.8334 22.3113C32.9478 22.2685 33.0523 22.2029 33.1407 22.1186C33.229 22.0342 33.2993 21.9328 33.3474 21.8205C33.3954 21.7082 33.4202 21.5873 33.4202 21.4652C33.4202 21.343 33.3954 21.2222 33.3474 21.1099C33.2993 20.9975 33.229 20.8962 33.1407 20.8118C33.0523 20.7274 32.9478 20.6619 32.8334 20.619C32.719 20.5762 32.5971 20.5571 32.4751 20.5627H29.2353L29.9911 16.899C29.9964 16.8734 30.0104 16.8505 30.0306 16.8341C30.0509 16.8176 30.0762 16.8087 30.1023 16.8088H63.9254C63.9515 16.8087 63.9768 16.8176 63.9971 16.8341C64.0173 16.8505 64.0313 16.8734 64.0366 16.899L64.7924 20.5627H36.6759C36.5539 20.5571 36.432 20.5762 36.3176 20.619C36.2032 20.6619 36.0987 20.7274 36.0103 20.8118C35.922 20.8962 35.8517 20.9975 35.8036 21.1099C35.7556 21.2222 35.7308 21.343 35.7308 21.4652C35.7308 21.5873 35.7556 21.7082 35.8036 21.8205C35.8517 21.9328 35.922 22.0342 36.0103 22.1186C36.0987 22.2029 36.2032 22.2685 36.3176 22.3113C36.432 22.3541 36.5539 22.3733 36.6759 22.3677H69.6262C69.7834 22.3677 69.9341 22.4301 70.0453 22.5413C70.1564 22.6524 70.2189 22.8032 70.2189 22.9604V26.9272Z" fill="#FDFFFF"/>
<path d="M69.6262 20.5627H66.6357L65.8033 16.5345C65.7149 16.1016 65.4797 15.7124 65.1376 15.4328C64.7954 15.1532 64.3672 15.0004 63.9254 15H30.1023C29.6605 15.0004 29.2323 15.1532 28.8901 15.4328C28.548 15.7124 28.3128 16.1016 28.2245 16.5345L27.3939 20.5627H24.4015C24.0864 20.5624 23.7743 20.6243 23.4831 20.7446C23.1919 20.865 22.9272 21.0415 22.7042 21.2642C22.4812 21.4868 22.3042 21.7512 22.1834 22.0422C22.0626 22.3333 22.0003 22.6453 22 22.9604V26.9272C22.0005 27.5624 22.2531 28.1715 22.7023 28.6207C23.1515 29.0699 23.7605 29.3224 24.3958 29.323H25.5716L26.2372 34.0052C26.0331 34.1228 25.8497 34.2731 25.6944 34.4502C25.497 34.6784 25.3508 34.9464 25.2658 35.2359C25.1807 35.5255 25.1588 35.8299 25.2014 36.1286L29.6535 67.3755C29.7155 67.7913 29.8996 68.1793 30.1823 68.4904C30.465 68.8015 30.8338 69.0216 31.2417 69.123L31.8747 73.5712C31.9955 74.3961 32.4083 75.1502 33.038 75.6966C33.6678 76.2429 34.4726 76.5451 35.3063 76.5482H58.7233C59.5566 76.5446 60.361 76.2422 60.9904 75.6959C61.6197 75.1497 62.0322 74.3958 62.153 73.5712L62.786 69.123C63.1942 69.0221 63.5632 68.8021 63.846 68.4909C64.1288 68.1798 64.3127 67.7915 64.3742 67.3755L68.8225 36.1229C68.8648 35.824 68.8426 35.5195 68.7572 35.2299C68.6718 34.9404 68.5253 34.6725 68.3276 34.4445C68.1731 34.2665 67.9895 34.116 67.7847 33.9994L68.4522 29.3172H69.6281C70.2623 29.3167 70.8705 29.0649 71.3196 28.617C71.7686 28.169 72.0218 27.5614 72.0239 26.9272V22.9604C72.0229 22.3248 71.7699 21.7155 71.3205 21.2661C70.871 20.8166 70.2618 20.5637 69.6262 20.5627ZM67.0347 35.8677L62.5865 67.1204C62.5759 67.1923 62.5399 67.258 62.485 67.3055C62.43 67.353 62.3599 67.3792 62.2873 67.3794H53.6498C53.4176 67.3901 53.1985 67.4898 53.038 67.6579C52.8775 67.826 52.7879 68.0495 52.7879 68.2819C52.7879 68.5143 52.8775 68.7378 53.038 68.9058C53.1985 69.0739 53.4176 69.1737 53.6498 69.1844H60.9522L60.3633 73.318C60.3059 73.7129 60.1085 74.074 59.8071 74.3356C59.5057 74.5972 59.1204 74.7419 58.7214 74.7432H35.3063C34.9069 74.7423 34.5212 74.5979 34.2194 74.3363C33.9176 74.0746 33.72 73.7132 33.6625 73.318L33.0736 69.1844H49.4528C49.685 69.1737 49.9041 69.0739 50.0646 68.9058C50.2251 68.7378 50.3146 68.5143 50.3146 68.2819C50.3146 68.0495 50.2251 67.826 50.0646 67.6579C49.9041 67.4898 49.685 67.3901 49.4528 67.3794H31.7405C31.6678 67.3792 31.5977 67.353 31.5427 67.3055C31.4878 67.258 31.4518 67.1923 31.4412 67.1204L26.9872 35.8677C26.9805 35.825 26.9834 35.7813 26.9957 35.7399C27.008 35.6984 27.0293 35.6602 27.0582 35.628C27.085 35.5976 27.1177 35.5729 27.1543 35.5554C27.1909 35.5379 27.2306 35.528 27.2711 35.5263H27.3076H66.7144H66.7508C66.7914 35.5277 66.8312 35.5375 66.8679 35.555C66.9045 35.5724 66.9371 35.5973 66.9637 35.628C66.9926 35.6602 67.014 35.6984 67.0262 35.7399C67.0385 35.7813 67.0414 35.825 67.0347 35.8677ZM27.3996 29.3172H66.6281L66.0027 33.7194H28.023L27.3996 29.3172ZM70.2189 26.9272C70.2189 27.0049 70.2035 27.0819 70.1737 27.1537C70.1439 27.2255 70.1002 27.2907 70.0452 27.3456C69.9901 27.4005 69.9247 27.444 69.8528 27.4735C69.7809 27.5031 69.7039 27.5182 69.6262 27.518H24.4015C24.2447 27.518 24.0942 27.4558 23.9831 27.345C23.872 27.2343 23.8093 27.084 23.8088 26.9272V22.9604C23.8093 22.8033 23.8719 22.6529 23.983 22.5418C24.094 22.4308 24.2445 22.3682 24.4015 22.3677H32.4751C32.5971 22.3733 32.719 22.3541 32.8334 22.3113C32.9478 22.2685 33.0523 22.2029 33.1407 22.1186C33.229 22.0342 33.2993 21.9328 33.3474 21.8205C33.3954 21.7082 33.4202 21.5873 33.4202 21.4652C33.4202 21.343 33.3954 21.2222 33.3474 21.1099C33.2993 20.9975 33.229 20.8962 33.1407 20.8118C33.0523 20.7274 32.9478 20.6619 32.8334 20.619C32.719 20.5762 32.5971 20.5571 32.4751 20.5627H29.2353L29.9911 16.899C29.9964 16.8734 30.0104 16.8505 30.0306 16.8341C30.0509 16.8176 30.0762 16.8087 30.1023 16.8088H63.9254C63.9515 16.8087 63.9768 16.8176 63.9971 16.8341C64.0173 16.8505 64.0313 16.8734 64.0366 16.899L64.7924 20.5627H36.6759C36.5539 20.5571 36.432 20.5762 36.3176 20.619C36.2032 20.6619 36.0987 20.7274 36.0103 20.8118C35.922 20.8962 35.8517 20.9975 35.8036 21.1099C35.7556 21.2222 35.7308 21.343 35.7308 21.4652C35.7308 21.5873 35.7556 21.7082 35.8036 21.8205C35.8517 21.9328 35.922 22.0342 36.0103 22.1186C36.0987 22.2029 36.2032 22.2685 36.3176 22.3113C36.432 22.3541 36.5539 22.3733 36.6759 22.3677H69.6262C69.7834 22.3677 69.9341 22.4301 70.0453 22.5413C70.1564 22.6524 70.2189 22.8032 70.2189 22.9604V26.9272Z" stroke="#FDFFFF" stroke-width="0.6" stroke-miterlimit="10" mask="url(#path-5-outside-1)"/>
</svg>
