<svg width="60" height="60" viewBox="0 0 60 60" fill="none" xmlns="http://www.w3.org/2000/svg">
<path d="M11.1127 46.8523C10.8472 47.0698 10.7142 47.4114 10.7623 47.7516C10.8104 48.0922 11.0322 48.3831 11.3472 48.519M11.1127 46.8523L46.0314 12.3509C46.6187 14.3346 47.6854 16.5467 49.2914 19.1142C51.1869 22.1405 50.3552 26.5514 47.315 29.6013C47.051 29.8662 46.7581 30.1236 46.394 30.4116C45.4528 31.2144 44.736 32.2742 44.3326 33.4693C45.2801 36.8328 44.1555 40.7239 41.416 43.4716C39.3522 45.5414 36.6064 46.7287 33.8817 46.7287C33.0431 46.7287 32.2256 46.617 31.4474 46.3969C30.2541 46.8016 29.1967 47.5227 28.3748 48.4934C28.1078 48.832 27.8522 49.1254 27.5921 49.3868M11.1127 46.8523C11.5759 46.4723 12.2859 44.9803 12.9125 43.6631C13.8561 41.6794 14.9257 39.4308 16.2952 38.057C18.1348 36.2111 20.5862 35.1528 23.0219 35.1528C23.4047 35.1528 23.7864 35.1789 24.1598 35.2311C25.2609 34.7979 26.233 34.092 26.9852 33.1779C27.4822 32.3185 28.0931 31.5225 28.8012 30.8132C29.5077 30.1044 30.2997 29.4926 31.1564 28.9944L11.1127 46.8523ZM11.3472 48.519C12.6539 49.0816 15.1618 50.3668 16.5097 51.0579C16.9635 51.2908 17.3026 51.4645 17.4532 51.5379C18.492 52.0439 19.6367 52.3008 20.8536 52.3008C23.2903 52.3008 25.7462 51.2396 27.5921 49.3868M11.3472 48.519L11.7373 47.6144L11.7375 47.6139L11.7376 47.6137L11.7432 47.6007C11.7493 47.6033 11.7519 47.6079 11.7525 47.6116C11.7525 47.6117 11.7525 47.6117 11.7525 47.6118C11.7529 47.6146 11.7524 47.6172 11.7517 47.6189C11.7511 47.6206 11.7496 47.6231 11.7469 47.6254L11.3472 48.519ZM27.5921 49.3868L26.9079 48.706M27.5921 49.3868L26.9084 48.7056C26.9097 48.7043 26.9109 48.703 26.9122 48.7017L26.9139 48.7C27.1442 48.4679 27.3704 48.2082 27.6174 47.8964C27.6222 47.8904 27.627 47.8844 27.6318 47.8783C27.6341 47.8756 27.6364 47.8729 27.6387 47.8701C28.5923 46.7504 29.7899 45.9377 31.1364 45.4798C31.2373 45.4455 31.339 45.4132 31.4414 45.3829C31.5307 45.4118 31.6206 45.4391 31.711 45.4647C32.4076 45.6618 33.1363 45.7597 33.8817 45.7598C33.8818 45.7598 33.882 45.7598 33.8821 45.7598C36.3789 45.7598 38.8649 44.6608 40.7323 42.7899C40.7339 42.7883 40.7355 42.7867 40.737 42.7851L26.9079 48.706M26.9079 48.706C25.2593 50.3578 23.0631 51.3319 20.8536 51.3319C19.7972 51.3319 18.7921 51.1123 17.8773 50.6674C17.8772 50.6674 17.8772 50.6673 17.8771 50.6673C17.8753 50.6664 17.8735 50.6656 17.8717 50.6647L17.8714 50.6645C17.7164 50.5889 17.3799 50.4165 16.9514 50.1968C16.9514 50.1967 16.9513 50.1967 16.9512 50.1967L26.9079 48.706ZM28.6471 34.2249C28.6211 34.2712 28.5912 34.315 28.5578 34.3563C27.5205 35.645 26.1476 36.6182 24.5872 37.171C24.4282 37.2276 24.258 37.2423 24.0916 37.2123C23.7437 37.1513 23.3831 37.1208 23.02 37.1208C21.1014 37.1208 19.1554 37.9689 17.6809 39.4485C16.551 40.5825 15.5589 42.6673 14.6834 44.507L14.6819 44.5102L28.6471 34.2249ZM28.6471 34.2249C29.0652 33.4905 29.5828 32.8107 30.1873 32.2048L28.6471 34.2249ZM45.0816 12.6653C45.1054 12.7452 45.13 12.8255 45.1552 12.906L45.0799 12.7096L44.7959 12.9555C44.892 12.8605 44.9873 12.7638 45.0816 12.6653ZM27.5942 47.8683L27.5894 47.8744C27.3428 48.1872 27.1145 48.4485 26.8892 48.6755C26.8886 48.676 26.8881 48.6766 26.8876 48.6771L27.5942 47.8683ZM12.0595 47.3077L11.8489 47.6467C11.8205 47.6342 11.7926 47.6221 11.7652 47.6102C11.8714 47.5206 11.9697 47.4163 12.0595 47.3077ZM35.2845 19.1261L35.4202 20.2445L36.2157 19.4775C35.7392 20.0331 35.3375 20.6329 35.015 21.2606C35.1848 20.587 35.2862 19.8631 35.2845 19.1261ZM34.4481 22.7868C34.5557 22.4182 34.6891 22.0542 34.8482 21.6976C34.7358 22.0731 34.6021 22.4375 34.4481 22.7868ZM27.7837 9.02025C27.8341 9.08975 27.8853 9.15921 27.9372 9.2286L27.8 9.06589L27.6007 9.40655C27.6635 9.27942 27.7246 9.15067 27.7837 9.02025ZM27.7628 8.99139L27.7628 8.99146L27.7628 8.99139ZM10.4333 42.1071C10.4333 42.107 10.4351 42.1055 10.4388 42.1033C10.4351 42.1061 10.4333 42.1073 10.4333 42.1071Z" stroke="#FDFFFF" stroke-width="2"/>
<path d="M37.6828 24.7395L38.6441 24.8084L37.6829 24.7383C37.6829 24.7382 37.6829 24.7381 37.6829 24.738L37.6828 24.7395Z" stroke="#FDFFFF" stroke-width="2"/>
<mask id="path-3-inside-1" fill="white">
<path d="M36.3415 31.1194C34.5515 31.1194 32.7188 31.9276 31.3155 33.3364C30.0201 34.6354 29.2409 36.2726 29.1202 37.9462C29.0103 39.4805 29.4799 40.8563 30.4426 41.8216C31.5491 42.9311 32.919 43.1639 33.8739 43.1639C35.6634 43.1639 37.4956 42.3557 38.9004 40.9469C40.1953 39.6479 40.9745 38.0112 41.0952 36.3381C41.2056 34.8057 40.7365 33.429 39.7733 32.4627C38.6669 31.3517 37.2964 31.1194 36.3415 31.1194ZM39.1374 36.1953C39.0511 37.3969 38.474 38.5901 37.5128 39.5544C36.4735 40.5964 35.1472 41.1945 33.8739 41.1945C33.29 41.1945 32.4612 41.0616 31.8302 40.4291C31.2762 39.8738 31.0093 39.0424 31.078 38.087C31.1644 36.8854 31.7419 35.6923 32.7031 34.728C33.7419 33.6859 35.0677 33.0878 36.3415 33.0878C36.9254 33.0878 37.7542 33.2207 38.3852 33.8543C38.9392 34.41 39.2066 35.2419 39.1374 36.1953Z"/>
</mask>
<path d="M31.3155 33.3364L32.7317 34.7487L32.7324 34.7479L31.3155 33.3364ZM29.1202 37.9462L27.1254 37.8023L27.1253 37.8033L29.1202 37.9462ZM30.4426 41.8216L31.8587 40.4093L31.8587 40.4093L30.4426 41.8216ZM38.9004 40.9469L40.3166 42.3591L40.3169 42.3589L38.9004 40.9469ZM41.0952 36.3381L43.09 36.482L43.0901 36.4818L41.0952 36.3381ZM39.7733 32.4627L38.3563 33.874L38.3569 33.8747L39.7733 32.4627ZM39.1374 36.1953L37.1427 36.0506L37.1426 36.052L39.1374 36.1953ZM37.5128 39.5544L38.9289 40.9667L38.9292 40.9663L37.5128 39.5544ZM31.8302 40.4291L33.2461 39.0165L33.246 39.0165L31.8302 40.4291ZM31.078 38.087L33.0729 38.2304L33.0729 38.2304L31.078 38.087ZM38.3852 33.8543L36.9682 35.2657L36.9688 35.2662L38.3852 33.8543ZM36.3415 29.1194C33.9586 29.1194 31.6317 30.1851 29.8986 31.9249L32.7324 34.7479C33.806 33.6702 35.1445 33.1194 36.3415 33.1194V29.1194ZM29.8993 31.9242C28.2988 33.5292 27.2839 35.6048 27.1254 37.8023L31.115 38.0901C31.1979 36.9405 31.7414 35.7417 32.7317 34.7487L29.8993 31.9242ZM27.1253 37.8033C26.9799 39.8328 27.5997 41.8033 29.0265 43.2339L31.8587 40.4093C31.36 39.9093 31.0407 39.1282 31.1151 38.0891L27.1253 37.8033ZM29.0264 43.2339C30.6494 44.8613 32.6282 45.1639 33.8739 45.1639V41.1639C33.2098 41.1639 32.4487 41.0009 31.8587 40.4093L29.0264 43.2339ZM33.8739 45.1639C36.2567 45.1639 38.5826 44.098 40.3166 42.3591L37.4842 39.5347C36.4086 40.6134 35.0701 41.1639 33.8739 41.1639V45.1639ZM40.3169 42.3589C41.9165 40.7542 42.9315 38.6792 43.09 36.482L39.1004 36.1942C39.0175 37.3431 38.4741 38.5416 37.484 39.5349L40.3169 42.3589ZM43.0901 36.4818C43.2362 34.4538 42.6168 32.4823 41.1898 31.0507L38.3569 33.8747C38.8563 34.3756 39.1751 35.1577 39.1004 36.1944L43.0901 36.4818ZM41.1904 31.0514C39.567 29.4213 37.5866 29.1194 36.3415 29.1194V33.1194C37.0062 33.1194 37.7668 33.2821 38.3563 33.874L41.1904 31.0514ZM37.1426 36.052C37.0951 36.7125 36.7658 37.4708 36.0963 38.1424L38.9292 40.9663C40.1822 39.7094 41.007 38.0813 41.1323 36.3387L37.1426 36.052ZM36.0967 38.142C35.369 38.8717 34.532 39.1945 33.8739 39.1945V43.1945C35.7624 43.1945 37.5781 42.3211 38.9289 40.9667L36.0967 38.142ZM33.8739 39.1945C33.725 39.1945 33.583 39.1765 33.4667 39.1401C33.3593 39.1066 33.2938 39.0643 33.2461 39.0165L30.4143 41.8416C31.5842 43.0143 33.0471 43.1945 33.8739 43.1945V39.1945ZM33.246 39.0165C33.1909 38.9612 33.0357 38.7474 33.0729 38.2304L29.0832 37.9436C28.9829 39.3375 29.3616 40.7865 30.4144 41.8417L33.246 39.0165ZM33.0729 38.2304C33.1203 37.5703 33.4497 36.8119 34.1196 36.1399L31.2867 33.316C30.0341 34.5726 29.2084 36.2006 29.0832 37.9436L33.0729 38.2304ZM34.1196 36.1399C34.8466 35.4106 35.683 35.0878 36.3415 35.0878V31.0878C34.4525 31.0878 32.6372 31.9612 31.2867 33.316L34.1196 36.1399ZM36.3415 35.0878C36.4904 35.0878 36.6321 35.1058 36.7481 35.1421C36.8551 35.1756 36.9204 35.2177 36.9682 35.2657L39.8022 32.4428C38.6322 31.2682 37.1686 31.0878 36.3415 31.0878V35.0878ZM36.9688 35.2662C37.0254 35.3231 37.1798 35.5381 37.1427 36.0506L41.1322 36.3401C41.2334 34.9457 40.853 33.4969 39.8017 32.4423L36.9688 35.2662Z" fill="#FDFFFF" mask="url(#path-3-inside-1)"/>
<mask id="path-5-inside-2" fill="white">
<path d="M23.0324 38.7126C21.5304 38.7126 19.9916 39.3934 18.8106 40.5797C17.8189 41.5745 17.1756 42.8361 16.9995 44.1322C16.8125 45.508 17.1923 46.7858 18.0407 47.6364C18.9425 48.5411 20.0691 48.7316 20.8547 48.7316C22.3547 48.7316 23.893 48.0519 25.076 46.8656C26.0677 45.8708 26.711 44.6082 26.8866 43.3121C27.0736 41.9363 26.6938 40.6585 25.8449 39.8079C24.9421 38.9022 23.817 38.7126 23.0324 38.7126ZM24.9416 43.0463C24.8248 43.9057 24.3675 44.7903 23.6874 45.473C22.8704 46.2921 21.8371 46.7622 20.8542 46.7622C20.4391 46.7622 19.8552 46.6721 19.4283 46.2439C19.0108 45.825 18.839 45.1693 18.944 44.398C19.0603 43.5385 19.5176 42.654 20.1987 41.9713C21.0152 41.1512 22.0481 40.6811 23.0324 40.6811C23.4465 40.6811 24.0299 40.7712 24.4568 41.1994C24.8744 41.6183 25.0461 42.2745 24.9416 43.0463Z"/>
</mask>
<path d="M18.8106 40.5797L20.227 41.9917L20.2279 41.9908L18.8106 40.5797ZM16.9995 44.1322L15.0177 43.8628L15.0177 43.8629L16.9995 44.1322ZM18.0407 47.6364L19.4571 46.2244L19.4567 46.224L18.0407 47.6364ZM25.076 46.8656L26.4922 48.2778L26.4925 48.2775L25.076 46.8656ZM26.8866 43.3121L24.9049 43.0428L24.9048 43.0435L26.8866 43.3121ZM25.8449 39.8079L24.4285 41.2198L24.4293 41.2207L25.8449 39.8079ZM24.9416 43.0463L26.9234 43.3156L26.9235 43.3147L24.9416 43.0463ZM23.6874 45.473L25.1034 46.8854L25.1044 46.8845L23.6874 45.473ZM18.944 44.398L20.9257 44.6678L20.926 44.6662L18.944 44.398ZM20.1987 41.9713L21.6146 43.3837L21.616 43.3824L20.1987 41.9713ZM23.0324 36.7126C20.9349 36.7126 18.9023 37.6529 17.3932 39.1686L20.2279 41.9908C21.081 41.1339 22.1259 40.7126 23.0324 40.7126V36.7126ZM17.3941 39.1677C16.1187 40.4472 15.2571 42.1015 15.0177 43.8628L18.9812 44.4015C19.0942 43.5708 19.5191 42.7019 20.227 41.9917L17.3941 39.1677ZM15.0177 43.8629C14.7615 45.7478 15.2635 47.6841 16.6246 49.0488L19.4567 46.224C19.1211 45.8875 18.8635 45.2681 18.9812 44.4015L15.0177 43.8629ZM16.6242 49.0484C18.0454 50.4741 19.7841 50.7316 20.8547 50.7316V46.7316C20.3542 46.7316 19.8397 46.6082 19.4571 46.2244L16.6242 49.0484ZM20.8547 50.7316C22.9502 50.7316 24.9817 49.7925 26.4922 48.2778L23.6599 45.4533C22.8043 46.3112 21.7593 46.7316 20.8547 46.7316V50.7316ZM26.4925 48.2775C27.7682 46.9978 28.6298 45.3422 28.8685 43.5807L24.9048 43.0435C24.7922 43.8742 24.3672 44.7437 23.6596 45.4536L26.4925 48.2775ZM28.8684 43.5814C29.1246 41.6964 28.6226 39.7599 27.2606 38.3951L24.4293 41.2207C24.765 41.5571 25.0226 42.1762 24.9049 43.0428L28.8684 43.5814ZM27.2614 38.3959C25.8392 36.9692 24.102 36.7126 23.0324 36.7126V40.7126C23.5319 40.7126 24.045 40.8351 24.4285 41.2198L27.2614 38.3959ZM22.9598 42.777C22.9083 43.156 22.679 43.6514 22.2705 44.0616L25.1044 46.8845C26.056 45.9292 26.7413 44.6554 26.9234 43.3156L22.9598 42.777ZM22.2714 44.0606C21.7582 44.5751 21.2125 44.7622 20.8542 44.7622V48.7622C22.4616 48.7622 23.9826 48.0091 25.1034 46.8854L22.2714 44.0606ZM20.8542 44.7622C20.8217 44.7622 20.7921 44.7604 20.7671 44.7572C20.7419 44.754 20.7283 44.7504 20.7252 44.7494C20.7224 44.7486 20.7353 44.7522 20.7584 44.7652C20.7827 44.779 20.8138 44.8009 20.8448 44.8319L18.0119 47.6558C18.9923 48.6394 20.229 48.7622 20.8542 48.7622V44.7622ZM20.8448 44.8319C20.9146 44.902 20.9281 44.9584 20.9248 44.9457C20.9199 44.9271 20.9024 44.8389 20.9257 44.6678L16.9623 44.1282C16.8022 45.3043 17.0214 46.6622 18.0119 47.6558L20.8448 44.8319ZM20.926 44.6662C20.9771 44.2881 21.2058 43.7936 21.6146 43.3837L18.7827 40.5588C17.8295 41.5144 17.1435 42.7889 16.9621 44.1298L20.926 44.6662ZM21.616 43.3824C22.128 42.8682 22.6726 42.6811 23.0324 42.6811V38.6811C21.4235 38.6811 19.9024 39.4342 18.7814 40.5601L21.616 43.3824ZM23.0324 42.6811C23.0645 42.6811 23.0938 42.6829 23.1185 42.686C23.1434 42.6892 23.1568 42.6928 23.1598 42.6937C23.1624 42.6945 23.1495 42.6909 23.1265 42.6779C23.1022 42.6641 23.0712 42.6423 23.0403 42.6114L25.8733 39.7875C24.8933 38.8044 23.6576 38.6811 23.0324 38.6811V42.6811ZM23.0403 42.6114C22.9702 42.5411 22.9569 42.4846 22.9604 42.4979C22.9655 42.5172 22.9829 42.6061 22.9597 42.7779L26.9235 43.3147C27.0826 42.1396 26.8639 40.7812 25.8733 39.7875L23.0403 42.6114Z" fill="#FDFFFF" mask="url(#path-5-inside-2)"/>
</svg>
