<svg width="60" height="60" viewBox="0 0 60 60" fill="none" xmlns="http://www.w3.org/2000/svg">
<g clip-path="url(#clip0)">
<path d="M37.177 48.9419C38.378 48.9419 39.5362 48.9631 40.6944 48.9419C43.0536 48.8995 45.4129 48.8146 47.7721 48.751C48.0724 48.751 48.2225 48.6449 48.3298 48.3903C48.7373 47.4993 49.1448 46.6295 49.5737 45.7384C49.8311 45.1869 50.1957 44.9959 50.6032 45.2081C51.0107 45.399 51.0965 45.7809 50.8606 46.3112C50.3673 47.3932 49.8526 48.454 49.3378 49.5359C49.1448 49.939 48.866 50.1299 48.4156 50.1299C44.3405 50.236 40.2654 50.3421 36.1904 50.4482C35.74 50.4694 35.4611 50.2572 35.2038 49.939C33.8955 48.3054 32.5871 46.6719 31.2788 45.0383C31.2145 44.9535 31.1501 44.8898 31.0643 44.805C31.0215 44.8686 30.9786 44.8898 30.9786 44.9111C31.1716 45.8869 30.5711 46.29 29.7775 46.6931C26.3673 48.3267 23 50.0239 19.6113 51.6998C19.1394 51.9332 18.7748 51.9332 18.303 51.6998C14.7641 49.939 11.2252 48.1782 7.66489 46.4385C7.15014 46.184 6.93567 45.8657 6.93567 45.2929C6.95711 43.4472 6.93567 41.5803 6.93567 39.7346C6.93567 39.6285 6.93567 39.5225 6.93567 39.4164C6.97856 38.9921 7.19304 38.7163 7.64344 38.7163C8.09384 38.7163 8.32977 38.9921 8.32977 39.4376C8.32977 40.6256 8.32977 41.8137 8.32977 42.9805C8.32977 43.6169 8.30832 44.2534 8.32977 44.8898C8.32977 45.0383 8.43701 45.2717 8.56569 45.3354C11.6971 46.9053 14.8499 48.454 18.0027 50.0026C18.0241 50.0239 18.067 50.0026 18.1528 50.0026C18.1528 49.8329 18.1743 49.642 18.1743 49.4511C18.1743 45.8869 18.1743 42.3016 18.1743 38.7375C18.1743 38.4617 18.1743 38.2496 17.874 38.0799C14.7855 36.5736 11.6971 35.0461 8.63004 33.5186C8.54424 33.4762 8.45845 33.455 8.30832 33.3914C8.30832 34.2612 8.32977 35.0885 8.30832 35.8947C8.30832 36.1281 8.24398 36.4251 8.09384 36.5524C7.92226 36.7009 7.5791 36.7857 7.38607 36.7009C7.19304 36.616 6.95711 36.319 6.95711 36.1069C6.91422 34.7915 6.89277 33.4974 6.95711 32.1821C6.97856 31.9275 7.32172 31.5881 7.60054 31.4396C10.9035 29.7848 14.2064 28.1513 17.5094 26.5389C18.0241 26.2844 18.2172 26.0086 18.1957 25.4145C18.1743 21.4898 18.1957 17.565 18.1743 13.6403C18.1743 13.0038 18.3887 12.6432 18.9678 12.3674C22.6354 10.6914 26.1957 8.93055 29.7346 7.14849C30.1421 6.93634 30.4853 6.93634 30.8928 7.14849C31.622 7.55158 32.3941 7.89101 33.1448 8.27288C33.681 8.54868 33.8526 8.93055 33.6381 9.33363C33.4236 9.7155 33.0375 9.77914 32.5228 9.52456C31.9008 9.22755 31.2788 8.88812 30.6568 8.61232C30.4853 8.52746 30.2064 8.50625 30.0349 8.59111C27.0107 10.0762 23.9866 11.5612 20.9625 13.0675C20.8767 13.1099 20.7909 13.1735 20.6408 13.2584C22.1421 14.0009 23.622 14.7222 25.0804 15.4647C26.689 16.2709 28.2976 17.0771 29.9276 17.8408C30.1207 17.9257 30.4209 17.9681 30.6139 17.8832C33.681 16.377 36.748 14.8707 39.815 13.3432C39.8579 13.322 39.8794 13.2796 39.9652 13.216C38.6568 12.5795 37.3914 11.9431 36.126 11.3066C35.9759 11.2218 35.8043 11.1581 35.6542 11.0733C35.311 10.8611 35.1609 10.5429 35.3539 10.161C35.5469 9.77914 35.8686 9.67307 36.2547 9.82157C36.6193 9.97008 36.9625 10.161 37.3056 10.3307C38.7641 11.052 40.2011 11.7733 41.6595 12.4734C42.1099 12.6856 42.303 13.0038 42.303 13.513C42.2815 17.7772 42.303 22.0414 42.303 26.2844C42.303 26.4541 42.303 26.6238 42.303 26.7723C43.4826 26.7723 44.6193 26.8147 45.756 26.7511C46.5282 26.7087 47.0429 26.942 47.5148 27.5573C49.874 30.5698 52.2547 33.5399 54.6568 36.4887C55.0215 36.9555 55.0858 37.3373 54.8284 37.8889C54.0134 39.5437 53.2413 41.2197 52.4692 42.8744C52.4477 42.9381 52.4048 43.0017 52.3834 43.0654C52.1475 43.4897 51.7829 43.6382 51.4182 43.4684C51.0536 43.2987 50.9249 42.9169 51.118 42.4713C51.7185 41.1772 52.3405 39.8831 52.9625 38.589C53.0483 38.4193 53.1126 38.2496 53.2198 38.0162C53.0268 37.995 52.8981 37.995 52.7694 37.995C49.4022 38.0799 46.0563 38.1647 42.689 38.2496C42.4102 38.2496 42.1957 38.292 42.0456 38.589C40.4585 41.9834 38.8499 45.3778 37.2627 48.7722C37.1984 48.8358 37.1984 48.8995 37.177 48.9419ZM29.563 31.0789C29.5845 30.888 29.5845 30.8031 29.5845 30.7183C29.5845 27.0269 29.5845 23.3355 29.6059 19.6441C29.6059 19.2622 29.3914 19.1774 29.1341 19.0288C26.1099 17.5438 23.0858 16.0375 20.0831 14.5525C19.9759 14.5101 19.8686 14.4676 19.74 14.4252C19.7185 14.5313 19.7185 14.6161 19.7185 14.6798C19.7185 18.3924 19.7185 22.105 19.6971 25.8176C19.6971 26.1571 19.8472 26.2844 20.1046 26.4116C21.9491 27.3027 23.7721 28.2361 25.6166 29.1272C26.9035 29.7848 28.2118 30.4213 29.563 31.0789ZM34.067 29.1696C33.9598 29.3605 33.8954 29.4878 33.8097 29.6363C32.2654 32.8822 30.7426 36.1281 29.1984 39.374C29.0268 39.7346 29.0268 39.968 29.2842 40.3074C31.3432 42.8532 33.4022 45.4202 35.4397 47.9872C35.5469 48.1145 35.6542 48.2418 35.7829 48.3691C35.8472 48.2842 35.8901 48.263 35.9115 48.1994C37.5201 44.7838 39.1287 41.3894 40.7373 37.9738C40.8016 37.8253 40.7373 37.5283 40.6086 37.401C39.5148 35.9796 38.378 34.6006 37.2627 33.2004C36.2333 31.8639 35.1609 30.5273 34.067 29.1696ZM29.6059 33.4126C29.4343 33.4762 29.37 33.4974 29.3056 33.5186C26.2172 35.0461 23.1501 36.5736 20.0617 38.0799C19.7185 38.2496 19.7185 38.4617 19.7185 38.7587C19.7185 42.3441 19.7185 45.9294 19.7185 49.5147C19.7185 49.6844 19.7185 49.8329 19.7185 50.0875C20.0188 49.939 20.2118 49.8541 20.4048 49.7693C23 48.4964 25.5523 47.1386 28.1904 45.9718C29.3485 45.4626 29.8204 44.8262 29.6488 43.5957C29.5845 43.1502 29.5416 42.7471 29.2198 42.3865C28.7051 41.8137 28.2761 41.1984 27.7828 40.6044C27.4611 40.2226 27.4182 39.8619 27.6327 39.4376C28.1904 38.292 28.6837 37.104 29.2842 36.0008C29.7131 35.1522 29.5845 34.3248 29.6059 33.4126ZM40.866 14.4252C40.7373 14.4889 40.63 14.5101 40.5442 14.5525C37.4987 16.0588 34.4531 17.565 31.3861 19.0713C31.0858 19.2198 31 19.4107 31 19.7289C31 23.3567 31 26.9632 31 30.591C31 30.7183 31.0215 30.8668 31.0215 30.9941C31.0644 31.0365 31.1072 31.0577 31.1501 31.1001C31.3861 30.8668 31.7078 30.6546 31.8579 30.3788C32.3298 29.509 32.7373 28.5968 33.1448 27.7058C33.3378 27.3027 33.6166 27.133 34.067 27.1117C35.4182 27.0905 36.7909 27.0057 38.1421 27.0269C39 27.0269 39.7507 26.8572 40.4799 26.4329C40.8016 26.2631 40.8874 26.0722 40.8874 25.7328C40.866 22.105 40.8874 18.4985 40.8874 14.8707C40.8874 14.7434 40.8874 14.5949 40.866 14.4252ZM35.3753 28.4695C35.4826 28.6392 35.5469 28.7241 35.5898 28.8089C37.6703 31.4184 39.7507 34.0278 41.8526 36.616C41.9812 36.7645 42.2601 36.8706 42.4745 36.8706C45.7775 36.807 49.0804 36.7221 52.3834 36.6372C52.5121 36.6372 52.6622 36.5948 52.8767 36.5736C52.6837 36.3402 52.555 36.1493 52.4263 35.9796C50.6461 33.752 48.8231 31.5457 47.0858 29.2757C46.4424 28.4271 45.7989 28.0028 44.748 28.2361C44.5335 28.2786 44.2761 28.2573 44.0617 28.2573C41.1877 28.321 38.3351 28.4058 35.3753 28.4695ZM9.29491 32.2245C12.5121 33.8157 15.622 35.3643 18.7534 36.8918C18.9249 36.9767 19.2038 36.9342 19.3753 36.8494C20.748 36.1917 22.0992 35.5128 23.4504 34.8552C25.1662 34.0066 26.9035 33.1368 28.6622 32.267C28.555 32.1821 28.4906 32.1397 28.4263 32.0972C25.4022 30.591 22.3566 29.0847 19.3324 27.5997C19.1609 27.5148 18.8392 27.536 18.6461 27.6421C17.0161 28.4271 15.3861 29.2332 13.756 30.0394C12.2976 30.7607 10.8392 31.4608 9.29491 32.2245Z" fill="#364751"/>
<path d="M36.2332 24.5659C36.2332 24.969 35.9115 25.3084 35.504 25.3296C35.075 25.3508 34.7104 25.0114 34.7319 24.5659C34.7319 24.1628 35.075 23.8234 35.4825 23.8446C35.89 23.8234 36.2332 24.1628 36.2332 24.5659Z" fill="#364751"/>
<path d="M38.4208 21.3837C38.0133 21.3837 37.6702 21.0443 37.6702 20.6412C37.6702 20.2169 38.0133 19.8774 38.4423 19.8986C38.8498 19.9199 39.1715 20.2593 39.1715 20.6624C39.1715 21.0443 38.8283 21.3837 38.4208 21.3837Z" fill="#364751"/>
<path d="M39.1716 23.5265C39.1716 23.9295 38.8499 24.269 38.4424 24.269C38.0349 24.2902 37.6917 23.972 37.6703 23.5689C37.6488 23.1446 37.992 22.7839 38.4209 22.7839C38.8284 22.7839 39.1716 23.1234 39.1716 23.5265Z" fill="#364751"/>
</g>
<defs>
<clipPath id="clip0">
<rect width="48" height="44.8696" fill="white" transform="translate(7 7)"/>
</clipPath>
</defs>
</svg>
