<svg id="Ebene_1" data-name="Ebene 1" xmlns="http://www.w3.org/2000/svg" viewBox="0 0 32.03 42"><defs><style>.cls-1{fill:#364751;}</style></defs><path class="cls-1" d="M25,34.62l-5.62-3.17a.94.94,0,0,1-.48-.81v-1l-1.64-.86a2.32,2.32,0,0,1-.39-.27c.58-.26,1.28-.6,2-1,0-.55,0-1.15,0-1.75-1.88.89-3.5,1.63-4,1.85a1.14,1.14,0,0,0-.68,1c0,1.13,0,2.23-.09,3.36,0,.31-.08,9.09-.1,11.39a.92.92,0,0,0,.48.82l5.62,3.17.1,0c2.1,1.11,4.19,2.21,6.27,3.34a1.29,1.29,0,0,0,1.25.09l12.44-5.83a1.05,1.05,0,0,0,.68-1c0-1.34.07-2.68.1-4,0-.65-.27-1-.75-1s-.82.33-.82,1c0,1.11-.07,2.21-.07,3.29a.59.59,0,0,1-.41.62c-2.42,1.11-4.8,2.26-7.21,3.36-1.19.55-2.39,1.06-3.62,1.58a1.57,1.57,0,0,0,0-.16c.1-4.11.2-8.21.27-12.31L25,34.64Zm1.78,1.3c-.07,4.24-.19,8.49-.29,12.76a.85.85,0,0,1-.05.21l-.53-.24c-3.28-1.72-6.55-3.48-9.86-5.18a.87.87,0,0,1-.53-.93c.12-4.06.19-8.11.31-12.17,0-.16,0-.33.05-.57L21,32.51c1.79.94,3.6,1.89,5.38,2.85A.85.85,0,0,1,26.73,35.92Z" transform="translate(-14 -9)"/><path class="cls-1" d="M39.44,36c0,.56.31.89.77.89S41,36.54,41,36v-.24c0-.55,0-1.13,0-1.68-.53.24-1.06.51-1.59.75C39.47,35.22,39.47,35.6,39.44,36Z" transform="translate(-14 -9)"/><path class="cls-1" d="M20.29,29.73c0-1,.05-1.92.08-2.88-.51.24-1,.48-1.5.69,0,.77,0,1.49,0,2.07l1.78.93A.88.88,0,0,1,20.29,29.73Z" transform="translate(-14 -9)"/><path class="cls-1" d="M45,32.27a1.09,1.09,0,0,0,.68-1c0-1.34.07-2.69.09-4,0-.64-.26-1-.74-1s-.82.34-.82,1c0,1.1-.08,2.21-.08,3.28a.59.59,0,0,1-.41.63c-.86.41-1.71.81-2.58,1.2,0,.57,0,1.17,0,1.75Z" transform="translate(-14 -9)"/><path class="cls-1" d="M33,31.69c0-1.84.08-3.71.12-5.56-.53-.29-1.06-.55-1.56-.84-.05,2.37-.1,4.77-.17,7.15C31.89,32.2,32.42,32,33,31.69Z" transform="translate(-14 -9)"/><path class="cls-1" d="M44.79,15.19A53.92,53.92,0,0,1,34.23,9.6a2.27,2.27,0,0,0-2.63-.31c-1.13.58-10.49,4.94-11.88,5.57a1.13,1.13,0,0,0-.68,1c0,1.12,0,2.23-.1,3.36,0,.19,0,3.47-.07,6.57l1.52-.72c.07-2.5.12-5,.19-7.51,0-.17,0-.34.05-.58,1.76.94,3.47,1.83,5.16,2.72s3.6,1.89,5.38,2.85a.77.77,0,0,1,.39.55,4.72,4.72,0,0,1,0,.65l1.57.93c0-.5,0-1,0-1.48s.22-.51.51-.65L43.9,17.81a3.79,3.79,0,0,1,.48-.17v.69c0,1.61-.09,3.24-.12,4.85a.79.79,0,0,0,.78.89c.45,0,.77-.32.82-.84V23c0-2.09.07-4.15.16-6.24C46.07,15.94,45.71,15.55,44.79,15.19Zm-1.88,1.32c-3.35,1.56-6.7,3.14-10.08,4.7a1.08,1.08,0,0,1-.77,0c-3.35-1.75-6.68-3.53-10-5.28a3.78,3.78,0,0,1-.38-.26c3-1.42,9.55-4.47,9.79-4.56a2.37,2.37,0,0,1,2.65.14c2.8,1.58,5.69,3.05,8.54,4.56l.75.41C43.18,16.34,43.06,16.44,42.91,16.51Z" transform="translate(-14 -9)"/><path class="cls-1" d="M36.5,34.5c-1.18.55-2.39,1.06-3.62,1.58,0-.07,0-.12,0-.16,0-.82,0-1.64,0-2.45l-1.62.74c0,.55,0,1.11-.05,1.66a.76.76,0,0,1,0,.21l-.53-.24-1.35-.72-.5.24c-.29.15-.49.27-.51.65v.39c1,.52,2,1.05,3,1.6a1.31,1.31,0,0,0,1.26.1l6.9-3.24c0-.58,0-1.17,0-1.75Z" transform="translate(-14 -9)"/><path class="cls-1" d="M39.47,34.84c.53-.24,1.06-.51,1.59-.75,0-.57,0-1.17,0-1.75-.53.24-1.06.51-1.59.75C39.49,33.69,39.49,34.26,39.47,34.84Z" transform="translate(-14 -9)"/><path class="cls-1" d="M31.51,25.31l1.56.84c0-.48,0-1,0-1.41l-1.57-.94C31.53,24.28,31.53,24.79,31.51,25.31Z" transform="translate(-14 -9)"/><path class="cls-1" d="M28.81,35.36a3.8,3.8,0,0,0,.5-.24l-8.49-4.46a.33.33,0,0,1-.16-.12l-1.79-.93v1a.92.92,0,0,0,.48.82L25,34.6l.1,0,3.25,1.73V36C28.32,35.63,28.52,35.51,28.81,35.36Z" transform="translate(-14 -9)"/><path class="cls-1" d="M20.37,26.85c0-.58,0-1.18,0-1.75-.5.24-1,.48-1.51.72,0,.6,0,1.17,0,1.75Z" transform="translate(-14 -9)"/><path class="cls-1" d="M31.31,34.21l1.62-.74c0-.58,0-1.18,0-1.75l-1.62.74C31.34,33,31.31,33.61,31.31,34.21Z" transform="translate(-14 -9)"/><path class="cls-1" d="M17.18,39.27a.82.82,0,0,1-.45-1.08.84.84,0,0,1,1.13-.45.84.84,0,1,1-.68,1.53Z" transform="translate(-14 -9)"/><path class="cls-1" d="M19.52,42.94a.88.88,0,0,1,1.11-.43.82.82,0,0,1,.44,1.13.85.85,0,0,1-1.11.41A.88.88,0,0,1,19.52,42.94Z" transform="translate(-14 -9)"/><path class="cls-1" d="M16.94,42.75a.84.84,0,1,1,1.11-.43A.87.87,0,0,1,16.94,42.75Z" transform="translate(-14 -9)"/><path class="cls-1" d="M22,26.49a.82.82,0,0,1-.46-1.08A.84.84,0,0,1,22.68,25a.89.89,0,0,1,.44,1.11A.87.87,0,0,1,22,26.49Z" transform="translate(-14 -9)"/><path class="cls-1" d="M24.35,30.16a.86.86,0,0,1,1.1-.43.8.8,0,0,1,.44,1.12.85.85,0,0,1-1.11.41A.87.87,0,0,1,24.35,30.16Z" transform="translate(-14 -9)"/><path class="cls-1" d="M21.79,30a.82.82,0,0,1-.46-1.08.84.84,0,0,1,1.09-.48.85.85,0,0,1,.48,1.13A.91.91,0,0,1,21.79,30Z" transform="translate(-14 -9)"/></svg>