<svg width="60" height="60" viewBox="0 0 60 60" fill="none" xmlns="http://www.w3.org/2000/svg">
<path d="M24.948 34.6205L19.3293 31.4543C19.0399 31.2864 18.847 30.9746 18.847 30.6387C18.847 30.3749 18.847 30.0391 18.847 29.6313C18.2924 29.3435 17.7619 29.0557 17.2072 28.7678C17.1108 28.7198 17.0143 28.6479 16.8214 28.504C17.4002 28.2401 18.0995 27.9043 18.847 27.5445C18.847 26.9928 18.847 26.3932 18.8711 25.7935C16.9902 26.681 15.3745 27.4246 14.8681 27.6405C14.4582 27.8324 14.1929 28.2161 14.1929 28.6719C14.1929 29.7992 14.1688 30.9026 14.0965 32.03C14.0723 32.3418 14.0241 41.1208 14 43.4234C14 43.7593 14.1688 44.0711 14.4823 44.239L20.101 47.4052L20.1974 47.4531C22.2954 48.5565 24.3934 49.6599 26.4672 50.7872C26.8772 51.0031 27.263 51.0991 27.7212 50.8832C31.8689 48.9403 36.0166 46.9974 40.1643 45.0545C40.6225 44.8386 40.8154 44.5268 40.8395 44.0231C40.8636 42.6799 40.9118 41.3366 40.9359 40.0174C40.9359 39.3698 40.6707 39.01 40.1884 38.986C39.682 38.962 39.3685 39.3218 39.3685 39.9934C39.3444 41.0968 39.2962 42.2001 39.2962 43.2795C39.2962 43.5913 39.1997 43.7593 38.8862 43.9032C36.4748 45.0065 34.0874 46.1579 31.676 47.2612C30.4943 47.8129 29.2886 48.3166 28.0588 48.8443C28.0588 48.7724 28.0347 48.7244 28.0347 48.6764C28.1311 44.5748 28.2276 40.4731 28.2999 36.3715C27.2148 35.7958 26.1296 35.2201 25.0445 34.6445L24.948 34.6205ZM26.7325 35.9157C26.6601 40.1613 26.5396 44.4069 26.4431 48.6764C26.4431 48.7244 26.419 48.7964 26.3949 48.8923C26.202 48.7964 26.0332 48.7244 25.8644 48.6525C22.5848 46.9254 19.3052 45.1744 16.0015 43.4714C15.5674 43.2555 15.471 42.9917 15.471 42.536C15.5916 38.4823 15.6639 34.4286 15.7845 30.3749C15.7845 30.207 15.8086 30.0391 15.8327 29.7992C17.5931 30.7347 19.3052 31.6222 20.9932 32.5097C22.7777 33.4451 24.5863 34.4046 26.3708 35.364C26.5155 35.46 26.7325 35.7238 26.7325 35.9157Z" fill="#FDFFFF"/>
<path d="M39.4409 35.9637C39.4409 36.5154 39.7543 36.8512 40.2125 36.8512C40.6707 36.8752 40.9842 36.5394 41.0324 36.0117C41.0324 35.9397 41.0324 35.8438 41.0324 35.7718C41.0565 35.2201 41.0565 34.6445 41.0806 34.0928C40.5501 34.3326 40.0196 34.5965 39.4891 34.8363C39.465 35.2201 39.465 35.6039 39.4409 35.9637Z" fill="#FDFFFF"/>
<path d="M20.2939 29.7273C20.318 28.7678 20.3421 27.8084 20.3663 26.8489C19.8599 27.0888 19.3535 27.3287 18.8712 27.5445C18.8712 28.3121 18.8712 29.0317 18.847 29.6074C19.4499 29.9192 20.0287 30.231 20.6315 30.5428C20.3663 30.3509 20.2939 30.1111 20.2939 29.7273Z" fill="#FDFFFF"/>
<path d="M45.0113 32.2698C45.4695 32.0539 45.6624 31.7421 45.6865 31.2384C45.7106 29.8951 45.7588 28.5519 45.783 27.2327C45.783 26.585 45.5177 26.2252 45.0354 26.2013C44.529 26.1773 44.2155 26.5371 44.2155 27.2087C44.1914 28.3121 44.1432 29.4154 44.1432 30.4948C44.1432 30.8066 44.0467 30.9745 43.7332 31.1184C42.8651 31.5262 42.0211 31.934 41.153 32.3178C41.1289 32.8934 41.1289 33.4931 41.1047 34.0688C42.3828 33.4931 43.7091 32.8694 45.0113 32.2698Z" fill="#FDFFFF"/>
<path d="M32.9541 31.6941C33.0023 29.8472 33.0264 27.9763 33.0746 26.1293C32.5441 25.8415 32.0136 25.5776 31.5072 25.2898C31.459 27.6644 31.4107 30.0631 31.3384 32.4377C31.893 32.1978 32.4235 31.958 32.9541 31.6941Z" fill="#FDFFFF"/>
<path d="M44.7943 15.1916C41.0565 13.7524 37.5599 11.8335 34.2321 9.6028C33.2193 8.93119 32.52 8.81126 31.6036 9.29098C30.4702 9.86665 21.1138 14.2322 19.7152 14.8558C19.3052 15.0477 19.04 15.4315 19.04 15.8872C19.04 17.0146 19.0158 18.1179 18.9435 19.2453C18.9194 19.4372 18.8953 22.7233 18.8712 25.8175C19.3776 25.5777 19.884 25.3378 20.3904 25.0979C20.4627 22.6034 20.5109 20.0848 20.5833 17.5902C20.5833 17.4223 20.6074 17.2544 20.6315 17.0146C22.3919 17.95 24.104 18.8375 25.792 19.725C27.5765 20.6605 29.3851 21.6199 31.1696 22.5794C31.3625 22.6753 31.5554 22.9392 31.5554 23.1311C31.5554 23.3469 31.5554 23.5628 31.5313 23.7787C32.0618 24.0905 32.5682 24.4023 33.0987 24.7142C33.0987 24.2105 33.1228 23.7067 33.1228 23.227C33.1228 22.8432 33.3399 22.7233 33.6293 22.5794C37.0535 20.9963 40.4778 19.3892 43.902 17.8061C44.0467 17.7342 44.1914 17.7102 44.3843 17.6382C44.3843 17.926 44.3843 18.1419 44.3843 18.3338C44.3361 19.9409 44.2879 21.572 44.2638 23.179C44.2638 23.7307 44.5773 24.0665 45.0354 24.0665C45.4936 24.0905 45.8071 23.7547 45.8553 23.227C45.8553 23.1551 45.8553 23.0591 45.8553 22.9872C45.9036 20.9003 45.9277 18.8375 46.0241 16.7507C46.0724 15.9352 45.7106 15.5514 44.7943 15.1916ZM42.9133 16.5109C39.5614 18.07 36.2095 19.6531 32.8335 21.2122C32.6164 21.3081 32.2788 21.3321 32.0618 21.2362C28.7099 19.4852 25.3821 17.7102 22.0543 15.9592C21.9578 15.9112 21.8614 15.8392 21.6684 15.6953C24.7069 14.2801 31.2178 11.2339 31.4589 11.1379C32.5923 10.6582 33.0746 10.6822 34.1115 11.2818C36.9088 12.8649 39.8026 14.3281 42.6481 15.8392C42.8651 15.9592 43.0822 16.0791 43.3956 16.247C43.1786 16.343 43.058 16.4389 42.9133 16.5109Z" fill="#FDFFFF"/>
<path d="M36.4989 34.5005C35.3173 35.0522 34.1115 35.5559 32.8817 36.0836C32.8817 36.0117 32.8576 35.9637 32.8576 35.9157C32.8817 35.1002 32.9058 34.2846 32.9058 33.4691C32.3753 33.709 31.8206 33.9728 31.2901 34.2127C31.266 34.7644 31.266 35.3161 31.2419 35.8677C31.2419 35.9157 31.2178 35.9877 31.1937 36.0836C31.0008 35.9877 30.832 35.9157 30.6632 35.8438C30.205 35.6039 29.7709 35.364 29.3127 35.1242C29.1439 35.1961 28.9751 35.2681 28.8063 35.364C28.517 35.5079 28.324 35.6279 28.2999 36.0117C28.2999 36.1316 28.2999 36.2755 28.2999 36.3954C29.3127 36.9231 30.3014 37.4508 31.3142 38.0025C31.7242 38.2184 32.11 38.3143 32.5682 38.0985C34.8591 37.0191 37.1741 35.9397 39.465 34.8603C39.4891 34.2846 39.4891 33.685 39.5132 33.1093C38.5004 33.5651 37.5117 34.0448 36.4989 34.5005Z" fill="#FDFFFF"/>
<path d="M39.465 34.8364C39.9955 34.5965 40.526 34.3327 41.0565 34.0928C41.0806 33.5171 41.0806 32.9175 41.1048 32.3418C40.5742 32.5817 40.0437 32.8455 39.5132 33.0854C39.4891 33.685 39.4891 34.2607 39.465 34.8364Z" fill="#FDFFFF"/>
<path d="M31.5071 25.3138C32.0377 25.6016 32.5441 25.8655 33.0746 26.1533C33.0746 25.6736 33.0987 25.1939 33.0987 24.7381C32.5682 24.4263 32.0377 24.1145 31.5313 23.8027C31.5313 24.2824 31.5313 24.7861 31.5071 25.3138Z" fill="#FDFFFF"/>
<path d="M28.8063 35.364C28.9751 35.2921 29.144 35.2201 29.3128 35.1241C26.4914 33.637 23.6699 32.1498 20.8244 30.6627C20.7521 30.6387 20.7039 30.5907 20.6556 30.5428C20.0528 30.2309 19.474 29.9191 18.8712 29.6073C18.8712 30.0151 18.8712 30.3749 18.8712 30.6147C18.8712 30.9505 19.04 31.2624 19.3534 31.4303L24.9721 34.5964L25.0686 34.6444C26.1537 35.2201 27.2389 35.7958 28.3241 36.3714C28.3241 36.2515 28.3241 36.1076 28.3241 35.9877C28.3241 35.6279 28.517 35.5079 28.8063 35.364Z" fill="#FDFFFF"/>
<path d="M20.3663 26.8489C20.3904 26.2732 20.3904 25.6736 20.4145 25.0979C19.9081 25.3378 19.3776 25.5776 18.8953 25.8175C18.8953 26.4171 18.8953 26.9928 18.8712 27.5685C19.3534 27.3286 19.8599 27.0888 20.3663 26.8489Z" fill="#FDFFFF"/>
<path d="M31.3143 34.2127C31.8448 33.9729 32.3994 33.709 32.9299 33.4691C32.9541 32.8935 32.9541 32.2938 32.9782 31.7181C32.4477 31.958 31.893 32.2219 31.3625 32.4617C31.3384 33.0374 31.3143 33.6131 31.3143 34.2127Z" fill="#FDFFFF"/>
<path d="M17.1831 39.2738C16.7491 39.1059 16.5562 38.6022 16.725 38.1944C16.8938 37.7387 17.4243 37.5468 17.8583 37.7387C18.2683 37.9306 18.4612 38.4103 18.2924 38.8421C18.0995 39.2498 17.5931 39.4657 17.1831 39.2738Z" fill="#FDFFFF"/>
<path d="M19.5222 42.9437C19.7151 42.536 20.1974 42.3441 20.6315 42.512C21.0896 42.7039 21.2825 43.2076 21.0655 43.6393C20.8726 44.0471 20.3662 44.239 19.9562 44.0471C19.5463 43.8552 19.3534 43.3515 19.5222 42.9437Z" fill="#FDFFFF"/>
<path d="M16.942 42.7518C16.5079 42.5839 16.315 42.0802 16.4838 41.6725C16.6526 41.2407 17.1349 41.0248 17.569 41.1927C18.0271 41.3606 18.2442 41.8883 18.0513 42.3201C17.8824 42.7279 17.3519 42.9197 16.942 42.7518Z" fill="#FDFFFF"/>
<path d="M22.006 26.4891C21.5719 26.3212 21.379 25.8175 21.5478 25.4098C21.7166 24.954 22.2472 24.7621 22.6812 24.954C23.0912 25.1459 23.2841 25.6256 23.1153 26.0574C22.9224 26.4652 22.4401 26.657 22.006 26.4891Z" fill="#FDFFFF"/>
<path d="M24.3451 30.1591C24.538 29.7513 25.0203 29.5594 25.4544 29.7273C25.9126 29.9192 26.1055 30.4229 25.8884 30.8547C25.6955 31.2624 25.1891 31.4543 24.7792 31.2624C24.3692 31.0705 24.1763 30.5668 24.3451 30.1591Z" fill="#FDFFFF"/>
<path d="M21.789 29.9671C21.355 29.7992 21.162 29.2955 21.3309 28.8877C21.4997 28.456 21.9819 28.2401 22.416 28.408C22.8742 28.5759 23.0912 29.1036 22.8983 29.5354C22.7054 29.9191 22.199 30.135 21.789 29.9671Z" fill="#FDFFFF"/>
</svg>
