<svg id="Ebene_1" data-name="Ebene 1" xmlns="http://www.w3.org/2000/svg" viewBox="0 0 24.02 26.05"><defs><style>.cls-1{fill:#364751;}</style></defs><path class="cls-1" d="M20.79,32.58a.75.75,0,1,1,.6-1.37.75.75,0,0,1-.6,1.37Z" transform="translate(-18 -17)"/><path class="cls-1" d="M22.86,35.85a.75.75,0,0,1,1-.39.73.73,0,0,1,.39,1,.75.75,0,0,1-1,.36A.78.78,0,0,1,22.86,35.85Z" transform="translate(-18 -17)"/><path class="cls-1" d="M20.58,35.67a.73.73,0,0,1-.41-1,.74.74,0,0,1,1-.42.75.75,0,0,1,.43,1A.79.79,0,0,1,20.58,35.67Z" transform="translate(-18 -17)"/><path class="cls-1" d="M19.58,24.12a3.62,3.62,0,0,0,0,.51c-.08,3.63-.17,7.24-.25,10.83a.75.75,0,0,0,.47.83c2.91,1.52,5.79,3.08,8.71,4.62a3.22,3.22,0,0,0,.46.21.88.88,0,0,0,0-.19c.08-3.78.19-7.56.25-11.37a.73.73,0,0,0-.34-.49c-1.57-.85-3.15-1.68-4.75-2.54Zm3.81,15.7-5-2.82a.85.85,0,0,1-.43-.73c0-2.05.06-9.87.09-10.14.06-1,.06-2,.08-3a1,1,0,0,1,.6-.91c1.21-.56,9.49-4.45,10.5-5a2,2,0,0,1,2.32.28,46.57,46.57,0,0,0,9.32,5c.81.33,1.13.67,1.11,1.39-.08,1.86-.11,3.7-.15,5.56v.21c0,.47-.32.77-.72.75a.71.71,0,0,1-.68-.79c0-1.43.06-2.89.1-4.32v-.62l-.42.15-9.07,4.25c-.26.13-.43.24-.45.58-.07,3.76-.17,7.54-.26,11.3a.36.36,0,0,0,0,.15c1.09-.47,2.15-.92,3.2-1.41,2.13-1,4.24-2,6.37-3a.53.53,0,0,0,.36-.55c0-1,0-2,.06-2.93,0-.62.28-.92.73-.9s.68.32.66.92c0,1.2-.07,2.39-.09,3.57a.92.92,0,0,1-.6.92c-3.66,1.73-7.32,3.44-11,5.19A1.08,1.08,0,0,1,29,42.85c-1.85-1-3.71-2-5.54-3ZM20.49,23a2.92,2.92,0,0,1,.34.24c2.94,1.56,5.88,3.14,8.84,4.68a.89.89,0,0,0,.68,0q4.47-2.09,8.9-4.19a4.09,4.09,0,0,0,.43-.26L39,23.05C36.51,21.7,34,20.42,31.48,19a2.18,2.18,0,0,0-2.34-.09C28.92,19,23.15,21.7,20.49,23Z" transform="translate(-18 -17)"/></svg>