<svg width="60" height="60" viewBox="0 0 60 60" fill="none" xmlns="http://www.w3.org/2000/svg">
<path d="M20.7897 32.577C20.4064 32.4275 20.236 31.9788 20.3851 31.6156C20.5342 31.2097 21.0027 31.0388 21.386 31.2097C21.748 31.3806 21.9184 31.8079 21.7693 32.1925C21.5989 32.5557 21.1517 32.7266 20.7897 32.577Z" fill="#FDFFFF"/>
<path d="M22.8554 35.8458C23.0257 35.4826 23.4516 35.3117 23.835 35.4612C24.2396 35.6321 24.4099 36.0808 24.2183 36.4653C24.0479 36.8285 23.6007 36.9994 23.2387 36.8285C22.8767 36.6576 22.7063 36.2089 22.8554 35.8458Z" fill="#FDFFFF"/>
<path d="M20.5768 35.6748C20.1934 35.5253 20.0231 35.0766 20.1721 34.7135C20.3212 34.3289 20.7471 34.1366 21.1304 34.2862C21.5351 34.4357 21.7267 34.9057 21.5563 35.2903C21.4073 35.6321 20.9388 35.8244 20.5768 35.6748Z" fill="#FDFFFF"/>
<path d="M19.5759 24.117C19.5546 24.3307 19.5333 24.4802 19.5333 24.6298C19.4481 28.2616 19.3629 31.8722 19.2777 35.4613C19.2564 35.8672 19.3629 36.0809 19.7462 36.2945C22.6637 37.8113 25.5386 39.3709 28.4561 40.9091C28.6051 40.9946 28.7542 41.0587 28.9246 41.1228C28.9459 41.0159 28.9672 40.9732 28.9672 40.9305C29.0524 37.1491 29.1588 33.3676 29.2227 29.5648C29.2227 29.3939 29.0311 29.1589 28.882 29.0735C27.3061 28.2189 25.7303 27.3857 24.1331 26.5311C22.6424 25.7407 21.1304 24.9502 19.5759 24.117ZM23.3878 39.8196L18.4259 36.9995C18.1704 36.85 18 36.5722 18 36.2731C18.0213 34.2222 18.0639 26.403 18.0852 26.1252C18.1491 25.1425 18.1491 24.1384 18.1704 23.1343C18.1704 22.7497 18.4046 22.3865 18.7666 22.2156C19.9805 21.6602 28.2644 17.7719 29.2653 17.2592C30.0745 16.8319 30.6921 16.9387 31.5865 17.5369C34.504 19.5238 37.6131 21.2329 40.9139 22.5147C41.7232 22.8352 42.0426 23.177 42.0213 23.9034C41.9361 25.762 41.9148 27.5993 41.8722 29.458C41.8722 29.5221 41.8722 29.6076 41.8722 29.6717C41.8296 30.1417 41.5528 30.4408 41.1482 30.4194C40.7436 30.398 40.4667 30.0989 40.4667 29.6289C40.488 28.1975 40.5306 26.7448 40.5732 25.3134C40.5732 25.1211 40.5732 24.9288 40.5732 24.6938C40.4028 24.7579 40.2751 24.8007 40.1473 24.8434C37.1233 26.2534 34.0994 27.6848 31.0754 29.0948C30.8199 29.223 30.6495 29.3298 30.6282 29.6717C30.5643 33.4317 30.4579 37.2132 30.3727 40.9732C30.3727 41.0159 30.3727 41.08 30.394 41.1228C31.48 40.6528 32.5448 40.2041 33.5883 39.7127C35.7178 38.73 37.8261 37.7045 39.9556 36.7218C40.2325 36.5936 40.3177 36.444 40.3177 36.1663C40.3177 35.1836 40.3603 34.2008 40.3815 33.2394C40.4028 32.6199 40.6584 32.3208 41.1056 32.3422C41.5528 32.3635 41.787 32.6626 41.7658 33.2608C41.7445 34.4572 41.7019 35.6536 41.6806 36.8286C41.6806 37.2772 41.4889 37.555 41.0843 37.7473C37.4215 39.4777 33.7587 41.1869 30.0958 42.9387C29.6912 43.131 29.3718 43.0669 28.9885 42.8532C27.1358 41.8491 25.2831 40.8878 23.4516 39.8837L23.3878 39.8196ZM20.4916 22.9634C20.6619 23.0702 20.7471 23.1343 20.8323 23.1984C23.7711 24.7579 26.7099 26.3389 29.6699 27.8771C29.8403 27.9625 30.1597 27.9625 30.3514 27.8557C33.3327 26.4671 36.2928 25.0784 39.2529 23.6684C39.3807 23.6043 39.4871 23.5402 39.6788 23.412C39.4233 23.2625 39.2316 23.1556 39.0186 23.0488C36.5058 21.7029 33.9503 20.421 31.48 18.9897C30.543 18.4983 30.1384 18.4769 29.1375 18.9042C28.9246 18.9897 23.1535 21.7029 20.4916 22.9634Z" fill="#FDFFFF"/>
</svg>
